<mxfile host="app.diagrams.net" agent="Mozilla/5.0 (Windows NT 10.0; Win64; x64) AppleWebKit/537.36 (KHTML, like Gecko) Chrome/129.0.0.0 Safari/537.36 Edg/129.0.0.0" version="24.7.17" pages="4">
  <diagram name="专辑管理" id="wgAv0tMbzj836fKuavCw">
    <mxGraphModel dx="4242" dy="531" grid="1" gridSize="10" guides="1" tooltips="1" connect="1" arrows="1" fold="1" page="0" pageScale="1" pageWidth="827" pageHeight="1169" math="0" shadow="0">
      <root>
        <mxCell id="0" />
        <mxCell id="1" parent="0" />
        <mxCell id="eZEC4rLQqNwzlbt_iTYG-1" value="一级分类表&lt;br&gt;base_category1" style="rounded=1;whiteSpace=wrap;html=1;fillColor=#DAE8FC;strokeColor=#6C8EBF;" parent="1" vertex="1">
          <mxGeometry x="-2470.93" y="210" width="120" height="60" as="geometry" />
        </mxCell>
        <mxCell id="eZEC4rLQqNwzlbt_iTYG-2" style="edgeStyle=orthogonalEdgeStyle;rounded=0;jumpStyle=arc;orthogonalLoop=1;jettySize=auto;html=1;entryX=1;entryY=0.5;entryDx=0;entryDy=0;" parent="1" source="eZEC4rLQqNwzlbt_iTYG-3" target="eZEC4rLQqNwzlbt_iTYG-1" edge="1">
          <mxGeometry relative="1" as="geometry" />
        </mxCell>
        <mxCell id="eZEC4rLQqNwzlbt_iTYG-3" value="&lt;span&gt;二级分类表&lt;/span&gt;&lt;br&gt;&lt;span&gt;base_category2&lt;/span&gt;" style="rounded=1;whiteSpace=wrap;html=1;fillColor=#DAE8FC;strokeColor=#6C8EBF;" parent="1" vertex="1">
          <mxGeometry x="-2170.93" y="210" width="120" height="60" as="geometry" />
        </mxCell>
        <mxCell id="eZEC4rLQqNwzlbt_iTYG-4" style="edgeStyle=orthogonalEdgeStyle;rounded=0;jumpStyle=arc;orthogonalLoop=1;jettySize=auto;html=1;entryX=1;entryY=0.5;entryDx=0;entryDy=0;" parent="1" source="eZEC4rLQqNwzlbt_iTYG-5" target="eZEC4rLQqNwzlbt_iTYG-3" edge="1">
          <mxGeometry relative="1" as="geometry" />
        </mxCell>
        <mxCell id="eZEC4rLQqNwzlbt_iTYG-5" value="&lt;span&gt;三级分类表&lt;/span&gt;&lt;br&gt;&lt;span&gt;base_category2&lt;/span&gt;" style="rounded=1;whiteSpace=wrap;html=1;fillColor=#DAE8FC;strokeColor=#6C8EBF;" parent="1" vertex="1">
          <mxGeometry x="-1900.9299999999998" y="210" width="120" height="60" as="geometry" />
        </mxCell>
        <mxCell id="eZEC4rLQqNwzlbt_iTYG-6" style="edgeStyle=orthogonalEdgeStyle;rounded=0;jumpStyle=arc;orthogonalLoop=1;jettySize=auto;html=1;entryX=0.5;entryY=1;entryDx=0;entryDy=0;" parent="1" source="eZEC4rLQqNwzlbt_iTYG-7" target="eZEC4rLQqNwzlbt_iTYG-1" edge="1">
          <mxGeometry relative="1" as="geometry" />
        </mxCell>
        <mxCell id="eZEC4rLQqNwzlbt_iTYG-7" value="专辑标签表&lt;br&gt;base_attribute" style="rounded=1;whiteSpace=wrap;html=1;fillColor=#D5E8D4;strokeColor=#82B366;" parent="1" vertex="1">
          <mxGeometry x="-2470.93" y="370" width="120" height="60" as="geometry" />
        </mxCell>
        <mxCell id="eZEC4rLQqNwzlbt_iTYG-8" style="edgeStyle=orthogonalEdgeStyle;rounded=0;jumpStyle=arc;orthogonalLoop=1;jettySize=auto;html=1;entryX=1;entryY=0.5;entryDx=0;entryDy=0;" parent="1" source="eZEC4rLQqNwzlbt_iTYG-9" target="eZEC4rLQqNwzlbt_iTYG-7" edge="1">
          <mxGeometry relative="1" as="geometry" />
        </mxCell>
        <mxCell id="eZEC4rLQqNwzlbt_iTYG-9" value="专辑标签的属性值表&lt;br&gt;base_attribute_value" style="rounded=1;whiteSpace=wrap;html=1;fillColor=#D5E8D4;strokeColor=#82B366;" parent="1" vertex="1">
          <mxGeometry x="-2170.93" y="370" width="120" height="60" as="geometry" />
        </mxCell>
        <mxCell id="eZEC4rLQqNwzlbt_iTYG-10" value="" style="shape=image;imageAspect=0;aspect=fixed;verticalLabelPosition=bottom;verticalAlign=top;image=https://oss-liuchengtu.hudunsoft.com/userimg/c4/c41727cc2995b62262876e0bffaff17a.png;" parent="1" vertex="1">
          <mxGeometry x="-2040.9299999999998" y="320" width="160" height="162.95" as="geometry" />
        </mxCell>
        <mxCell id="eZEC4rLQqNwzlbt_iTYG-11" value="" style="shape=image;imageAspect=0;aspect=fixed;verticalLabelPosition=bottom;verticalAlign=top;image=https://oss-liuchengtu.hudunsoft.com/userimg/cc/cc02d135ae80e1292123c4a885bc9515.png;" parent="1" vertex="1">
          <mxGeometry x="-2763" y="340" width="282.07" height="164.18" as="geometry" />
        </mxCell>
        <mxCell id="eZEC4rLQqNwzlbt_iTYG-12" style="edgeStyle=orthogonalEdgeStyle;rounded=0;jumpStyle=arc;orthogonalLoop=1;jettySize=auto;html=1;" parent="1" source="eZEC4rLQqNwzlbt_iTYG-15" edge="1">
          <mxGeometry relative="1" as="geometry">
            <mxPoint x="-1840.9299999999998" y="280" as="targetPoint" />
          </mxGeometry>
        </mxCell>
        <mxCell id="eZEC4rLQqNwzlbt_iTYG-13" style="edgeStyle=orthogonalEdgeStyle;rounded=0;jumpStyle=arc;orthogonalLoop=1;jettySize=auto;html=1;entryX=1;entryY=0.5;entryDx=0;entryDy=0;" parent="1" source="eZEC4rLQqNwzlbt_iTYG-15" target="eZEC4rLQqNwzlbt_iTYG-18" edge="1">
          <mxGeometry relative="1" as="geometry" />
        </mxCell>
        <mxCell id="eZEC4rLQqNwzlbt_iTYG-14" style="edgeStyle=orthogonalEdgeStyle;rounded=0;jumpStyle=arc;orthogonalLoop=1;jettySize=auto;html=1;entryX=0;entryY=0.5;entryDx=0;entryDy=0;" parent="1" source="eZEC4rLQqNwzlbt_iTYG-15" target="eZEC4rLQqNwzlbt_iTYG-20" edge="1">
          <mxGeometry relative="1" as="geometry" />
        </mxCell>
        <mxCell id="eZEC4rLQqNwzlbt_iTYG-15" value="专辑信息表&lt;br&gt;album_info" style="rounded=1;whiteSpace=wrap;html=1;fillColor=#FFE6CC;strokeColor=#D79B00;" parent="1" vertex="1">
          <mxGeometry x="-1900.9299999999998" y="560" width="120" height="60" as="geometry" />
        </mxCell>
        <mxCell id="eZEC4rLQqNwzlbt_iTYG-16" style="edgeStyle=orthogonalEdgeStyle;rounded=0;jumpStyle=arc;orthogonalLoop=1;jettySize=auto;html=1;entryX=0.5;entryY=1;entryDx=0;entryDy=0;" parent="1" source="eZEC4rLQqNwzlbt_iTYG-18" target="eZEC4rLQqNwzlbt_iTYG-7" edge="1">
          <mxGeometry relative="1" as="geometry">
            <Array as="points">
              <mxPoint x="-2250.93" y="530" />
              <mxPoint x="-2410.93" y="530" />
            </Array>
          </mxGeometry>
        </mxCell>
        <mxCell id="eZEC4rLQqNwzlbt_iTYG-17" style="edgeStyle=orthogonalEdgeStyle;rounded=0;jumpStyle=arc;orthogonalLoop=1;jettySize=auto;html=1;" parent="1" source="eZEC4rLQqNwzlbt_iTYG-18" target="eZEC4rLQqNwzlbt_iTYG-9" edge="1">
          <mxGeometry relative="1" as="geometry">
            <Array as="points">
              <mxPoint x="-2250.93" y="530" />
              <mxPoint x="-2110.93" y="530" />
            </Array>
          </mxGeometry>
        </mxCell>
        <mxCell id="eZEC4rLQqNwzlbt_iTYG-18" value="专辑属性值关系表&lt;br&gt;album_attribute_value" style="rounded=1;whiteSpace=wrap;html=1;fillColor=#F8CECC;strokeColor=#B85450;" parent="1" vertex="1">
          <mxGeometry x="-2310.93" y="560" width="120" height="60" as="geometry" />
        </mxCell>
        <mxCell id="eZEC4rLQqNwzlbt_iTYG-19" value="" style="shape=image;imageAspect=0;aspect=fixed;verticalLabelPosition=bottom;verticalAlign=top;image=https://oss-liuchengtu.hudunsoft.com/userimg/ef/ef01a56dc85bfb4f1b0d744d0ab6e4b9.png;" parent="1" vertex="1">
          <mxGeometry x="-2544.9" y="580" width="193.97" height="193.26" as="geometry" />
        </mxCell>
        <mxCell id="eZEC4rLQqNwzlbt_iTYG-20" value="专辑统计表&lt;br&gt;album_stat" style="rounded=1;whiteSpace=wrap;html=1;fillColor=#E1D5E7;strokeColor=#9673A6;" parent="1" vertex="1">
          <mxGeometry x="-1630.9299999999998" y="560" width="120" height="60" as="geometry" />
        </mxCell>
        <mxCell id="eZEC4rLQqNwzlbt_iTYG-21" value="" style="shape=image;imageAspect=0;aspect=fixed;verticalLabelPosition=bottom;verticalAlign=top;image=https://oss-liuchengtu.hudunsoft.com/userimg/28/2835fd3294ec7994c359347c0730d654.png;" parent="1" vertex="1">
          <mxGeometry x="-1650.9299999999998" y="370" width="410" height="164" as="geometry" />
        </mxCell>
        <mxCell id="eZEC4rLQqNwzlbt_iTYG-22" value="" style="shape=image;imageAspect=0;aspect=fixed;verticalLabelPosition=bottom;verticalAlign=top;image=https://oss-liuchengtu.hudunsoft.com/userimg/72/72ca838074f60b4b3a609c9b8d6e563c.png;" parent="1" vertex="1">
          <mxGeometry x="-3161" y="590" width="520" height="440" as="geometry" />
        </mxCell>
        <mxCell id="eZEC4rLQqNwzlbt_iTYG-23" value="&lt;b&gt;比如播讲形式这个标签，有&lt;font color=&quot;#ff0000&quot;&gt;多人，单人，双人&lt;/font&gt;这几个属性值&lt;/b&gt;" style="text;html=1;strokeColor=none;fillColor=none;align=center;verticalAlign=middle;whiteSpace=wrap;rounded=0;" parent="1" vertex="1">
          <mxGeometry x="-2200.93" y="310" width="140" height="60" as="geometry" />
        </mxCell>
        <mxCell id="eZEC4rLQqNwzlbt_iTYG-24" value="有声书分类" style="text;html=1;strokeColor=none;fillColor=none;align=center;verticalAlign=middle;whiteSpace=wrap;rounded=0;" parent="1" vertex="1">
          <mxGeometry x="-2400.93" y="290" width="120" height="40" as="geometry" />
        </mxCell>
        <mxCell id="eZEC4rLQqNwzlbt_iTYG-25" value="播讲形式" style="text;html=1;strokeColor=none;fillColor=none;align=center;verticalAlign=middle;whiteSpace=wrap;rounded=0;" parent="1" vertex="1">
          <mxGeometry x="-2400.93" y="310" width="120" height="40" as="geometry" />
        </mxCell>
        <mxCell id="eZEC4rLQqNwzlbt_iTYG-26" value="是否付费" style="text;html=1;strokeColor=none;fillColor=none;align=center;verticalAlign=middle;whiteSpace=wrap;rounded=0;" parent="1" vertex="1">
          <mxGeometry x="-2400.93" y="330" width="120" height="40" as="geometry" />
        </mxCell>
        <mxCell id="eZEC4rLQqNwzlbt_iTYG-27" value="有声书分类" style="text;html=1;strokeColor=none;fillColor=none;align=center;verticalAlign=middle;whiteSpace=wrap;rounded=0;" parent="1" vertex="1">
          <mxGeometry x="-2260.93" y="260" width="120" height="40" as="geometry" />
        </mxCell>
        <mxCell id="eZEC4rLQqNwzlbt_iTYG-28" value="&lt;b&gt;&lt;font color=&quot;#ff0000&quot;&gt;以下都属于标签:&lt;/font&gt;&lt;/b&gt;" style="text;html=1;strokeColor=none;fillColor=none;align=center;verticalAlign=middle;whiteSpace=wrap;rounded=0;" parent="1" vertex="1">
          <mxGeometry x="-2410.93" y="270" width="120" height="40" as="geometry" />
        </mxCell>
        <mxCell id="eZEC4rLQqNwzlbt_iTYG-33" style="edgeStyle=orthogonalEdgeStyle;rounded=0;orthogonalLoop=1;jettySize=auto;html=1;entryX=0.5;entryY=1;entryDx=0;entryDy=0;" parent="1" source="eZEC4rLQqNwzlbt_iTYG-29" target="eZEC4rLQqNwzlbt_iTYG-15" edge="1">
          <mxGeometry relative="1" as="geometry" />
        </mxCell>
        <mxCell id="eZEC4rLQqNwzlbt_iTYG-29" value="声音信息表" style="rounded=1;whiteSpace=wrap;html=1;fillColor=#ffff88;strokeColor=#36393d;" parent="1" vertex="1">
          <mxGeometry x="-1900.9299999999998" y="760" width="120" height="60" as="geometry" />
        </mxCell>
        <mxCell id="eZEC4rLQqNwzlbt_iTYG-32" style="edgeStyle=orthogonalEdgeStyle;rounded=0;orthogonalLoop=1;jettySize=auto;html=1;" parent="1" source="eZEC4rLQqNwzlbt_iTYG-30" target="eZEC4rLQqNwzlbt_iTYG-29" edge="1">
          <mxGeometry relative="1" as="geometry" />
        </mxCell>
        <mxCell id="eZEC4rLQqNwzlbt_iTYG-30" value="声音统计表" style="rounded=1;whiteSpace=wrap;html=1;fillColor=#ffff88;strokeColor=#36393d;" parent="1" vertex="1">
          <mxGeometry x="-1621" y="760" width="120" height="60" as="geometry" />
        </mxCell>
        <mxCell id="eZEC4rLQqNwzlbt_iTYG-35" value="" style="shape=image;verticalLabelPosition=bottom;labelBackgroundColor=default;verticalAlign=top;aspect=fixed;imageAspect=0;image=data:image/png,iVBORw0KGgoAAAANSUhEUgAAAVcAAAHvCAYAAADgqJwAAAAAAXNSR0IArs4c6QAAAARnQU1BAACxjwv8YQUAAAAJcEhZcwAAEnQAABJ0Ad5mH3gAAHV6SURBVHhe7b0NsGZHeefX8y1phL41gIQkE8RYCAEBFgNmjS3vxh8as2hZIpxiN0qMP5JUHOOkcJIqbdnUTlXiklMWRSUbeRMcFesvsruRXZKwUzhGsIARBgECIQ2S0CcajWZGXzMazXfu79z3f+e5j/qc0+e877n3fd/7/Kr63vec06e7T5/ufz/d55zudScXSEEQBMFEWT/6HwRBEEyQENcgCIIBCHENgiAYgBDXIAiCAQhxDYIgGIDObwscP3EyPfFCWnAn0vOHT6YDR9elF4+eSIePjTwEQRDMOOvWpXTGxnVp6+Z16czNKZ1/+rp02dnr0zmnjTwUUCyu+w+dTHc/dSI9sO9EWtDSIAiCNcc5W1J647YN6aoL16VNGxYUuIFWcT14NKWvPH483b8gqvFGbBAEQUqnb0zpnRdvSG+8cH1l5eZoFNf7FgT1zoeP11qqJxZOPfTSkfTi4SPppSNHq+0gCIJZZ+OCVbp1y2np9NM2pS2bNo32vpxXbl2XfvZ1G9JZW16usFlxZc+djx5P39nzclU9fPRoemT3vvTYnv3pqX3PhaAGQTDXbNm8MV2y7fx06SvPT6++4JzkZXTLhpR+/vKN6TVnLT/yMnFl63M/OJbu37dcNI8cO56++9Dj6f5Hn0zHjsegaxAEa4+zt56e3vz6S9NlC0JrYfj1mtdvTJedfUpgXyauX3rseLp793LxfGr/c+nff3tXOnT46GhPEATB2uWSbeeld7/p8rR548bRnpQ2rk/pA1dsTNu2LgrsMnG9b++JBav1+GhrkV2P7U5/970fRPc/CILAgBX73rdeUf0XZ25elz70xo3VA6+ljwheOHwy3fnocot116O70133PhTCGgRB4Hju4KH0ua99Nx08dHi0J6UDR06mzz+8+NL/krh+9YkT6ejxUyK655nn09/d94PRVhAEQeA5dPhI+uK37k/HzXOoB585mXYfOLkorvsPpeo9VnH02PHqhLBYgyAImtn73IH0rQceG20t8pXHTyyK6927jycro/c+/EQ8vAqCICjkvkd+mA68+NJoa3F6gPWMBDz4zCmrlY8Bvvfwk6OtIAiCoA16+d9+aLn1uv6J50+mI+YFgUef2p+OHV/+xkAQBEHQzCNP7lumnesfe375GwKP79k3+hUEQRCUcvzEifTDvc+MthbE9ekXT422njhxMu3e/9xoKwiCIOjCD/ee0s/1B4+Mfi3AawUIbBCsJh/6sYvT/3DN9vSa8069nL1avPt156V/9Z+9tXL8DoIm7Duv6w8ePSWmzG4VBKvNay/Ymq5926vTJef2F1fE8G9v+MlKqPvCub//n7wpvek1Z1Xbl56/+mIfTDcHXzLietQ8uzpyNJYTCBaR9TirfO7ePemex59PX3pg/2hPd/7hlduq/x/83+5Kv/J/3Z3+7K4nqu0gqINZA8V6Owhw4uTyh1vB2uU3f+by9LptW0dbswdCiCA+zhcyPZHFOk4YwdpinZmQcOnz1yAQdqyT39Mw9gld0zJOuu25XeMNAlj3ybuOLBmvj+3Zl+68+/7RVrAWYSiA8U4PXeN/+q5LqmO/+Sf3VGORcOs3nkz/8x27qoc92mf5/f/3gZd1p3N+6cJjaYLSQDxfeXCxW699iq+NpjDY90s/cdmSZQo2XIZEsNw979p5Z/W/7njuWoO1xWmbN6UPXv2O6ndYrsEy/vXfPlaJDyB4/MbZrjHChBix/8779472LgoUIowI8R+8CFlh5Xz84RgjrQMx6yKsbRA/8RGvrpXwZZ0yTqv9wG9tk35dk9KvY+yPNwoCEeIaLAMRlaUH/Lbb8OCeg5XI2WP8Z59EmP+IIVjBQZgBQeIc/OHqLD6JGUI/CWEFWZi6VqVTbydov+C3tpV+RFXp5z/boONBEOIadMZaqxYsP8SQ7jevQmENWjhOVxyhtOJVB68+ycrVkMEkeHTf8gdUP9h7sPrf9qqVTT+iamGb/RyP8dkAQlyDiUDX/d/8Vz9WiSFvGWDdyiLsi7rf44YTBKtBiGswNlhq6roz3oqVSRdeFmFfGDogTCxgxHvaiVe3AkuIazA2GqvEWrXoJXxhu86lD340HDAND4ua0q9tjgcBhLgGtSAiWIwIR9M44mPPLFpqWJjyy5irLDnLp774SPWf4QPGZvFPHPyuQw+LOGe1xzNt+pU3/NfY8Mf/4r7qfxCEuAZZ7OtFEo46sOh4Ag/4ZewVK1b7LDzIUtiIMf41tloH4escwl5NgbXpV95oSIRGIIYEAhEfEQRBEEyI+IggCIJgYMJyDWaSpjFa3lKIz1CD1cBariGuQRAEEyKGBYIgCAYmxDUIgmAAQlyDIAgGIMQ1CIJgAEJcgyAIBiDENZhp3vHacytnYfvn3vTK0VZ3ml7zCoJSQlyDiTCuIL3uwq3pn737ktFWOVe86sz0wJ4Do61FvvaDZ6r/hNkVhPmvv/f0aCsI+hPvuQYTAXEdd6UArM3v7z6QHny6bKrCc7duSr/w5lel+xbO+QdvuHC0t5lcGhH1i0cze7Xxf3/tieL0BWuP+Igg6AXi9x9ecvZoqxtW1PpYuTlR6yrGdSCut317d3rm4Kk153NMKr5gfglxDSZOH8tVluenv/LYaM8pNI6qLr6Hc3/tJ1+7JLol1ufNd/4gK6BhuQaTIsQ1mDh9hwUQyXf+B+elv7znqdGexbHS17/qzGX7PFiRF565OX35gf1huQZTQ4hr0JsuVp6wotvnfKFwJL77DhxJ+xfcJMQ1LNdgEoS4BjMNYshQAkMHEtcSgWwaFgjLNZgEIa5BbxCYrg+1+gwXlGDFdRxCXINJEeIa9KZOYOrGXGVlehDGktenvvnYc7Vjr5MU1xgWCCZBiGvQm0mKK9S9DQBtD7asuJZY1F0s6FJrNggsIa5BbyY1LDBpy7Wty970NoOE9LwzNqfzzty8JPi+YahrKIJAhLgGvZmURTeE5dpHXG0c/Lbi6l8T88eDwGPFNeYWCDrB2OQ8dZX/43dcXCveXKdEF/FGuJnLIAhKCMs1KGaSltsQwwJdx1yxwu1HCHXXZ61srNnLt50Z1muQJYYFgl70/Qorx7QMC3jwl8OeG2OvQR0hrkEQBAMQY65BEAQDE+IaBEEwACGuQRAEAxDiGgRBMAAhrkEQBAMQ4hoEQTAAIa5BEAQDEOIaBEEwACGuQRAEAxDiGgRBMAAhrkEQBANQO7fAmy85u1q6+PQtm9PW0zZX++Dc09en0zaONoIgCNYQ+w+dTIePLUlm2vvcger/3z38bHru0NGyiVt+70NXpb//+vOr30EQBEE9v/yHd6fvPPF8TNwSBEEwNIOL676HPpe+9ZkPLXNP3vMno6NBEATzyaDi+vSu29KBhz+Ttp331DJ39OnPpie/9a9HvoIgCOaPwcQVi/XFx/8inb7+wfTqS89b5l6xZXd6afdtac99f55OHHtpdEYzv/Zrv5be8573jLby4AdXyp//+Z+n73znO6OtPF/84hcrf13pe14QBPPBxMX1xLHD6YXd305P3/O/p62bHkrbLjo7nThxPB09dKByJ44fS+deeGY6/9xn055v/n56/om70rHDL4zODoIgGBYMKowfwfYf/MEfvMy1GV5tTFxcD7/ww/Ttf/tP00WvPpAueOVZ1b7jhw+lZx+/Lz372PfSkYPPppMnT6azzjkjbX/jWen+z/6XC2L8zcpfEzfffHP60pe+NNpaOX7iJ34ivf/97x9tldP1PG5kWLpBsDq84Q1vSL/6q7+6zH35y1+uRLYvgz/Qgo1bzkjnXnplWr9pczr49OPp0DP5BeeCIAimBQT2la985TIrtwsrIq7r1q9PGzafns688LJKYE8c777u/Sc+8Yll46kPPPBAWrdu3ZLz47HPP/981erwvw3fLbD4LgQ89thjy/xzXE748/jNPhuXLFX+00o+9dRTS+EFQbD6vO1tb0vf+973RlvdWBFxBQRwy5nnpNPPeWXafMbicEFfPvvZz6bXv/716fvf/341xIC77rrrKmHqCqIG6grQPWjqniOsxP+Lv/iLS+ece+65RTfAx4WYIqQMH/z4j/941UqynyGFIAhWn0suuaT6X2KkeVZMXMVpZ52fNm89Ox09ciw9/9zRdNZFP5Y2nb64hn0pO3fuTDfddFO6/PLLR3tS+o3f+I1KmMRZZ51VbfO/CcT0qquuGm0tjpUienWZ+Y1vfKMSQhsu5xNOGz4uwtm/f/9oKwiCeWKi4sqbAkdf2p82b9m4sHE8nVxwOY4fO5Gee/ZoeuzRzeny/+h/SWduOyU4JWAB7tixY7Q1HlidHizI5557brS1HIT30ksvHW11w8d19tlnj34FQTCN9LFYxUTF9ZlH/316+P/7b9Ob33FxOn7wh+nwgWdGR5bz1BPPpqf3vypd9Y//MG087ZzR3jIYax0aBDTHOBkdBMHsgZGFsdXWA84xMXF96t5/m577/qfSJZdtSIf2/SAdP3xwwXI9kfbveSF95+8eWeaObn5nuuRd/13adPp5ad26bknQUADjrR4eFnXlmWeWNwAS0JxVqQzOWbXRvQ+C+YPnK6973etGW92YiLgirEee+mzauuHhtPHkM+noi8+lLa84b0GoTqQDRy5N52z/L5a7y/9J56EAC+Ot11xzzTIrljcJ9MAIEEkecLVZmzyI4iGV+Ju/+ZtqbLSupWKclAy34fJQqs7aLQUxHzeMIAgmg/TDPyfpwljiyhjrvof+Oh187N+lzce/l7ae9lI6/ML+tPnMc9PhE69IL6XtafMrfz695u/9yjJ39sU/NgqhHzy8QmB5Y0CvYl155ZXLHmiVgljykIqMxJ133nmNT+vJaM750z/906VzfuRHfqTogVYTPJWk+0F48SpWEKwsGFmqzzjqN28EjfPmTu/5XI8ffTEd3Pu9aoyVoQAsVoR1w5Yz05ZzL0uP/CClC970X6cLt18zOmO+QRB5YNW3lQuCYHaZ6HyuLzx5d7r/9l9JP3rVWWndkT3ppef2pk1nnF0J67f+9uF00bs+ni64/GdHvucfWr54+h8Egeglrsxm9fS3f39BWM9PL+59KB176UA67ewL09F151YW65XvvyWdeeGVad36DaMz5gd9ZWXhowO69HrhOAiCoJe4bj1/ezr9wnekvU8dSJu2npu2XvCa9OLh09LBo6+thgLOevXb0obNW0e+5wu6/bxhYMdnGKftM7lLEATzS+8x1xf3P5Ce/Ob/mU4/+Y207uThdHT966qHV6964wdHPoIgCNYGEx1zPeO8y9NlP/7fp2cP/kjas/+V6bSL/lEIaxAEwYixXsXi66or/9HN6S3X/VnadkV0i4MgCMRY4hoEQRDkCXENgiAYgBDXIAiCAQhxDYIgGIAQ1yAI5gomYpqG+Tl6v+e6VmH2Lb7QaluJVut9sWrttBHzIATTBnXKzmrXxM///M+3fg1JGX/LW97SOA8rfpgqtOkDIIl02wQuufdcQ1w7EuLaDvnz4IMPLhVaX3GYQcwWVqZ3YxYij61ETX6Y1Yw5N6OxmF0oI8zNYUWzy75SYbYz54W4zihrVVzpkiF2KrC5uPhkmGkbtU/C2TRlZJsf5ne4+uqre80YH6w+44qr35eDMtL1M/VxxDXGXIOJgrCyHLGgUHoRx9rEsp0kxMlE58HswiT0ds4OrNHcvllhZsT1Pe95T5XRlk984hPVfqGJs3F2lQL81R0DjmNpEj7HbZge+bUQng3fn4/VRcHgv4f9tLweLECOAS2uCpf2WTifFlbnaGlwbdt9Fs7TcZyna7yf/vSnq/1tFsQQEGfTqr3B9EOjS89Ejt5Nbt+kUPkVqqdyuTrThbmxXBG1O+64I508ebJyN954Y7UfMfzMZz6ztB8/rGDgIaNvvfXWyk/beKoFQSY81vRSHNddd11WjHJQWHJWnJbwJl10d1W4GK/M3XTGjh5++OHKD10fziNtzKbOPsJgn5AFoHDBFrQ+8b71rW+tZghrA/+5dYlswUawczT5IY2PPvroaCtYS3gLN+eallGiLGn1AZV5yijzNPdlLsRVlqgVTY11fvSjH0233HJL9RtoCREtbwUjNn3GR3fu3FktOaOFE4FlaLg5gnFAtnPjgXSZuelWKGhB2ccxnD2PJWVyhYR9dlyI6+FadS7/bfccIbLb5IldZLFPvEzFyPhqE4g28di4iUcFGke6uT82T0r8ELdfcDJYG1hRbHJ1yJixZZ4ySj3py1yIK8JGxiGutstuRdd22xGeXbt2VcdEU8Y3QVg7duwYbfWDG4g1J771rW8tu6kIklpf3ygI619d46buuRdBHgh4usaLaObCEYRHfrU9VCDdFHQKfB05P8RtG4hgtqCMqbzhKCu5fZ5JNKgYCZdeeuloazLMzbAAViddciowAmpFVt1167Aux8WP3faF9/HofkgU+c0+oEAxbKCWF4utjdzS313pE28TEtbSRqxJpEWJn2A2QCC99UnjSbnz+zw0qNbi7MpQ4/QzJa7e2rz33ntHv07BeCnjn4iDxK/O6hoXDQUQnwcxKYWCwTIxjBdyHtYg+9Tl7fr6iESnb6HpG2/deCtjuRLqUrDk28ZvvR8alZIx32D6GFcgx0Hx5oyScXpCMyOuPCRi/FSouwCIKA+uPBouuOaa5SvQ+qf948B4K+FbK5bwbfcFkSOtTWLHq0QIEI7xTciJZElDQWFBoO1L94RRKvh942WowQ5vgB6SNQm13jgQpNNa71Dip2TMN5hO+jaKlNFJNKhYxJRxW+Ypc7nnDKXMjLjSjScDNG7Kk32EDRBRrFgd09N79jNcgMDqGO7aa6+tzpsEpIt02HHdK6+8spOVBnZ8VL8RSa4ZkUSccaXdcx4yca7O4x1Q+xCpib7xIsq2pUcMEUCcwpGzbx6QVjWWOA0fWEumxA/xTHrcLBgeGkoZFF3h+YRtYPtC3fBlnobaPlPoSnyhFUwURBMrvOlh2hAg5Dzc6jqUEaw+lJncfUN0abApS/iRFcnYLI0qVibiat+SWS3iC61CrJVrXdPHBcEiCGvTU/6hIE77ZVgwO9Q1iFiTaqTxQ0/F9lb4Pw3CWkeIa4bc2wW4Lh8XrFWoDLx8nfvgYCiIizhX2loOgiZCXIOJg8Wxkt1z4iodTw6ClSLENQiCYABCXIMgCAYgxDUIgmAAQlyDIAgGIMQ1CIJgAEJcgyAIBiDENQiCYABCXIMgCAYgxDUIgqmDuSJKZ3GbVuZGXJnmz04lyDwAuWkIVxvSWDJHgb+eJvj8s6QgMoVa189S+5wTBOPC1JWlM5wxgQvl1KKZrbyz01aWlG38+LBLCcs1CIJVBcHzIsj0kXb6P+usIcE2/uy0lhxn8nlN9CLHlIIrydxMOSgrT4sMYh0ywfYklnNZDfz1NKGJS6bl+3oKN5N+r+T8AsH8gNiyKkBpecayZE5XO7cvIpuDeYm7TPAjq7Vt9q1VmXLw6NGj6emnn0533XVX+trXvpaefPLJdOTIkdHRIAiC5XQZEhCIsbVovdUqt5Izpw1quSKse/fuTY8//nh18cyJeuaZZ6aLLroovepVr0qbNm0a+SwDa9Qun8I0gKLOcgW7PIw9B/B3ww03LJtpn7Haz3zmM9UUg4TLygKgcLhJxIM/7aPLUTIlIeewaoK1SFkixi4LTlhqtfHHmBJdH00S7JHlCjZ/SKeFwsdSKLYVxkqwS7jYmdfx58+hJddSKoqLLpisVNJil8YgvGmeczNYfeqszCb8hNmsZCBr15dBj+qFL9uqZ4JyrSVk2srwilqux44dS/v27auE9dlnn03btm1LF154YTp48GC1b8+ePZUfL3Z1IEq33HLL0tyqZFDbgyEJX5dzcvhwKAwKR/ugzwM0hE3L0igsGoWuBU5CxzXiELW2wXoJq111E+Fk/KoJHxcFWd0nRJbGQWNeIaxBGypHOMoOzu7LORkZLOrpl4ihDObGXLUvB3VBBoz8Y7C01YUmBhHXEydOVIL60EMPVa0JVuo555xTOUT2pZdeqlZyxc/x48eXxKkJxk612iqwDpa10nKQQXbMFSuQc7ouie3D0Q2y+xBErN2u7Ny5s1qDy14b4SoOoCCxnbNaBWJqx6gQNUSP1rgOZu+nINtwCaNt3SAfF2GMs0pmEAjqpy1bbWB5YiDgOBejRGWe39Y1WbN960ITExdXhJWLu+eee9Lhw4er1uIVr3jF6GiqhgUQ2A0bNlRjsBLYErAMteSKX9E1h7rzFjIwtxR2Ez4ctrsUgCYoEDt27Bht9Se36il5T+NWB4Wtz4J+Pi6tFhsE44D1CF4UrbPjqoARgeHBsJ4sXgkkv62jPtTRty40MXFxxSr99re/nTZu3JjOP//8tHXr1rR+/alo+H3GGWdUYxkcY/yxyboSCCqWobrOd9xxx+hIN9qs3ZWkqwXdlaaWuiTPg2Al4WGTF0Q5uuvQZNTIcpUAe2Guqw9D1YWJiytWKKY6lumWLVsqkfXo2ObNmyvLlbHXJvTApesaVgi3RWJmHx4BQxQWf95QaCggZ0n7FroN8tyiAlNnVap1z1m20cUPVgPKLCIoC1awzdLwiKxHwolGyHKVAFtxxtVZrkPVhYmLK8JJtx/BPHToUPXGgIdjWLi4Cy64oPWtAYmhtfRKhgWU6eL666+vMtmObzJWat8mwD/nrRSMt3It9tp4Q8Fa2Cp0TS0sA++2UFIYGS+yY0geCiPXa8PlwVSTxVsCgj5uGMHag7JK/eRVLMo7ZZGHsmzXvTMt4bRv+3Au5Y//1mlfrh4NURcmLq5YpBqjxCo9cODAsjFVfvPGAJYWwrt9+/ZlY7I5EENECJHVmGvJsADn8MBI59Ci2VeggIdHZKz83HrrrdV5KwXx+2sj/ygwXeAaGJRXQWLYpe1JPfnBefZLGJ68jjOID3TvsBIIT28RBEEpGkelLCJuuecJTUhwvaNM8j9ncOTqAvGOUxcGec+VMVFMbLrXL7zwQnr1q19dvSkAtAxkGCLCOvNcqB2TDVYfBJGC1TS+FQQrhX8fdRpZsfdcEU6sUawx3m3lqywyh/GL3bt3Vw+ysM7wM4/CKgvUuz7v2K4GDDHEGwDBtEAjP83CWsdgysbYK9bPxRdfXI2rYq3yGSyVllce2IefeURvNHjX9YHc0GAR+AdnjHHRfVrJzwSDYB4Z1GzU61iMnegLLYSV/7m3CIKVBYuAHoXGmHCM1caEK0EwPnMzK1YQBMFqsSqzYgVBEKxFQlyDIAgGIMQ1CIJgAEJcgyAIBiDENQiCYABCXIMgCAYgxDUIgmAAQlyDIAgGID4iMGgxQrt8S18Ii09Lmz559YsqzhoxwUvQBJ9S9/naj8mdWHSwdD4B6hmf1fPJNr/rJsRnhivCJHy7EKFg2kI7RamF2bSayH1EEOJqCHHtxtDiSv49+OCDSxXUVxxVFsF8trZyMIWcT1udH4SABemioegOedd13tM2saJsveUtb2mcj1hYcS0hJ96+IejaMMy0uLJ+lpa7Hoq+4lqStpyfENd6EEHmp1UBz8XFXAgSR4mmXXIZ6wRrRJWuzQ8V6uqrry6q0EE7JQLlG7s2bIOZE3V7v+uos1wR/FyYuUbaE+LaQohrN4YUVwo58/02VRQrwPj3lqe3fNv8eEEPyqGhK0WNm6fOWuW+Nd2TkrJiabJcfVyUCeam7iOuM/FAi3lQWYqFLiHzokqUECx+0/JpvlScnUM1h/zrnDpYeqXNT1vaoM6Ph3OULpxd+oUCQQHmv4f9iISHgmELPQWHbTkL51O4dQ5+Qdt2n4dz5QdnaYoTcvHqGksrC2Bt+NU72Wa/wmvzQ3zWf1AOVl+pq+sZIHYsT2ShbCCcdXCvuGeyfm1ZyzndW+YstvsJw0K5pEyOw0zM+4e1V2cdSlSYLxU/LFOtNbIQMYTNnoMfhI5FAfGHgLHPW6vsZ7JvlpOx6/N4mtImSvzoONcBFBbi13YTdFuwvnzrqrXYgXyyXV4KLUJmW2ktxkYFAM6hQbDdaPbZeDhOHDqHgkrYVJSSOCEXL1MftsHaSliiqjC+0trtEj/AOO6jjz7aaqkEy+G+l2K77pQHL2w+LITQonICWKDcM3pQhGWPUY7qxmKtv6GY+VexqNzqViOQdvHBa6+9tjpuQVgRTPnjf19hnSSk65ZbbhltLRZAREstMiJAgfBiAAgBBdS2tGrRJRL8t+dqfSIL27arRN6RDp3Hfy86FGy7jzRLLEviBB8vc8xSWZqg4hAPceRW7fSU+AHiJf6gG1qfyrrcPjX2gobW+2lzHu4ZIoqFSx2QESD4beuGrFXvaPwFZYAwx2HmxdVnNhagutV+hVh1s5sEk3W/VlpYlS7itcMCiJtf9rsORA5LTqhFt1DIVJAk2hbrX5ZeW9fci6AvkG1xgk8notlUsAmTvJEFXFIJSisK/tQ4BCsHVqfKSZ3zIIY02IKyiqPs2waf37ZuWKFG7Knn/LYNPGUgZ8h0Ya4+IkCQ1LXG+RViGQpoQy1eqahNEqXbutKHazwIoPskUeQ3+wSFk6EDFaq2hqPU0muia5wlSFgJz6NrF9q2laTET9Adeh9WCHG5fb4naVE5yTms4By+8cdCrev12HuPmAsafdLGuTTYlDGGpfBD+FaouzA34iqrqG5ME7AMQZZijuuuu64SNbrpdQ+ehqLOsisBcaAAMl5I4cAalGCoS+THOpuQpefFqJQ+cYq68VYsFYm1RdfuGwTyQpWyxA9wvGS8N1gOeegFsc7V9Ya8EFuXG06ylqbAQs2JIRYu91rYeyzLlXRRdyhjhE3ZJe6+dWBmxHX79u2NrV5OOP2wAOOrZKL8Av4ZSvAgsGR005sCoi1t0ORH6fLpteLODW670Yw5UTBwtruUE8o2IUeMEGj7PiDnkycl9IlTYHnYbhxoPKxOrLl2Gz7xkt/2SXOJn5Lx3mA55CMPFsdF4ptztgGsg7Jpe2sWhFP1j4bf9vJErowRt3+DoZSZEVdaF8ZH6PrnLEoE6qabblo2bumHBYCHX/iTn+uvv7626y0rGH9NwtCWNmjzQ7q4kUoXjgdyXbAWgf2NUBI3QilLoKSLTuvNeTqHQlbaReobJ/hxT1UGnMKSU/eO67VptR8HiBI/xOFf1wqawSKcRJ7pvuRcznL1UDYpd3VgLFCW6J3wBgzlGcFVQ055z5XvPr0viM9fg6kE0cSitMI3NFS8+IigO1h8uS56F7jfTfnedByLlQZZZYX00EhC7oMFn17rvw4MnyZiboExwJLMgSXUNM4b9GM1hG41BD2YD2b2C61pwD7Bty6EdRgQOMbx1O0fGuIhvhDWYFKEuAZTC+NfK2W5Ek/peHIQlBDiGgRBMAAhrkEQBAMQ4hoEQTAAIa5BEAQDEOIaBEEwACGuQRAEAxDiGgRBMAAhrkEwY/D1WukEOsHqsWbFlclT6iZZmWf4jnqlvnqaJfrmCTMrkad9IE4/M1MJTDRSOlFKLn25iVFwiHYbXfKprhFoCqMuP3UO4ZWkU3BeF/+TZM3OLSBhndWVV/tCwWXGqZX8Zn+aoLKVzLBkaZu0gzwtXWNfUOERybYJT/BXOlUjMNeFvjRDMD0cZ0pKf//95Cd1kH+lZSfnF/FkFq26r+E47ldmBYXVlE7uQ9sELJa6VWj7EBO3GNaquHaFwpyrjPNGiWiMI3RdKz7zl+bSQxqYMq/0U92c8OdEF+z0i4icncu3DXsuZcbPXazjuWNMBYiY2nRx/UxorTxTfvjzbcPXp5GbFCGuhhDXMuZRXOvEJcek19iHUqs1R1cBwT8Tp3cRZGizIC2UEWtNNm2THhumj2dcy5W8wTL2Am6xjd6kmHlxZcUAll8RtFpWHDnOAoNMMs2s/poOkNUG7OoDNnP9+TZ8Lb8t6sLPgXhfeeWV1W+F6f2zysENN9xQteqCOLQEdy4MXbNNqw1XFkedKFA4mW1fhZcCqZn3VSBlJVCgbRdaFkawiBcaCVmu4lsQd2txNVmjXRoCoXsvobLi6u+pR+kaQlxzDcoQ4lrX8KjnYfN+UuTEdWP1dwaQmDDNn0CcECArkGQ+yB+ZiRBaoVRYNpMlavY8BNnGBz78JoiDVQ/kV6sQdLGWc2GQBq31BeQD6S9dzNCDqCLQyg8qNAVVhXktW662u5sTJh+W7/r7iox/25i2Yc9X2Su1urDg7HI/wH3MCWRu3yRBWH1aRN2yOpRBOywgNDTT1NjLyJAfwoIhhLWOmbFcERW/3LUsUglnnQAjRF54/LAA4XtL1VuWufDr8OGDBFxWZonlCjYM9lHJrAXsw22Cc73lCraQWkGdR3EtFReuvc5K6ooqOyLBhNyITdMYbE4EEOYu4mDFSWDVsrxJznq1YY9rufpuuRopzr/66quXrEtvtSufwKaHayEtTfcEP95ylbWq3thQzOywgEQ0J2pWoBAZuu1WjHKiCVa4/LCBBatRwpwLvw7Cp0tvRZ2bvHPnzk7i6sPIpWFcccVysNYQBVKrAOA/xHV5RcZv2xsHXgQlKliTPsymYQEhkWjCDndZfPgl129FrgSJJ/h889vKC0TQpk35mrNIS8W1qcGyTFpsc+I6E++5Io59QDS7gHh717erHUwvVGCsQOty+5oeiiCedc52YQUVuW4ssATEJBcXDmsUmsSZa+GaECfw1+obC9Kai4try+3PiV0d5AVWsUAsgf26FqH0lcArhrm0IdaEq20agkmsVtvGTIirLDvfciOeFJo6q1PWak6cVcgsbZbBEOzatWv0axGs0mBY6gQi5+pEwwqTd21WbR+wJAkbS8/CNt180upReijXGlOXANtrxOUahCGRZYrVmkPXiyhS/+14Ldeja+sDvbKmhmhSzMwXWhQAv64/y2Kz33f5LXTrOc9asXS3rVXC+bnwNXQwFIwFM4YrVGjGQYWS/5MAq2IIsVgtyJdpWGO/K7IkGavl/tIFphvNdl33Vumxw06c22S5T6rcWAFs6gEwRCXL1aLr5T9iaBs5rkfXJkg378W2kRv+II1qtOy2P9aVmRFXxhgRSsZQ5RCntvFPuvWch3Wr8xjHtDcGCId9NnxeuRoS0oZFofhuvfXWKq3TBIUasaCQUaFnnWlYY98KD45tdduty4HFRznFkiOeuiftdUiUvJM1P87QhcUKIGW8DrryTXHSw+QBYBu5NyNy1DVEQ7BmPyII1iZ6MDIO3vrxNB1veiDTB8KzDyiHpu3awV9jblvWrH14pf16MMc22C68D0vk0sU+NXSI/JDEF1oTBmszB4Wj5Ml9EATzwcy+LTCt5N4uwIWwBkEQ4hoEQTAAIa5BEAQDEOIaBEEwACGuQRAEAxDiGgRBMAAhrkEQBAMQ4hoEQTAAIa5BEAQDEOIaBEEwACGuQRAECzBZzqRmBYMQVwNTDDKrf1c4j1UFgkWYHEWTbgRrFyZO6QMC12UGtrp42F8qlsTHnCDMjTspYuIWQ25ZlRI4DzGJOQUWoaD6pWMmCXltl55h284ZamdaonLllithSjzNrNTmh0rKHLArMcHyLGJnnyqlbZYqylDJEuL+3kPTOmEc82ESF9MVcq+ZuzW3Sm0bMz0rVpd1ovrSV1y7shLXspoMKa4Ufq3vBbm46N5p2joJZ1NlLvGDgNiF9YJ2yLO26Qm5n8xnW4ruK3DftCaZLRPcf4kov5vuK8dtQwtKU5dpCkNcWwhxnQxDiisVlsmT/XyeFivAkxJXL+rBchCpUnLWI9RZq3Uibfdzf3IWJ/cWK9afL4u3TXitmDcxs+LKeKY1/ckQVg5ApFhzihUDWKKFjADrlykAPbRKWtKFcyRyXly1Kqz1k0Pp0KoICge0jIvC6HIt+Ge/XQpG/oWEIVdg6wqHb5kppLYLZQschZDJmOk2cQ4z1lNQFQZon5C4gr9W0RQn5OLFcsxVFM8Q4grkZ50wBJPBCyllSV32HFZUbZnM0WeYh3JYsvrx3Fmu2kcmSaB27NixtKZWbixUYqXlthHQ22+/vRJUK64S1jvuuKO6KU0QphdXKqJdlpuJtam8SmfbtWgfabUNBOJs/TSJa13BsIULPyx7onMpzCy9oXMUBusT+RnjFSdpoHumwkoYLHFshZ380FhoW5xQF2/JrPsSd+JW/lh8N7DED9hwg+Vwf0uxeesb2RJ8I2gb0zooO7kVDLinXazlOnLimhBXud+67cmT7/wXn6/cF3ftXajT08OCUJ1cqKyjrUXYt3AJo62XsyCMLzvONvtzLNy0KswF4W305+EczhX8tttg0196Lbk0KG38L2FBhE8uCN9o6+TJ5557rtpXB37t8Xvuuedl/n2Yni984QuVsxDOrbfeOtpajo8TcvESJvubaIoHFFdT+uv8ELa/rmCRXJ7n9pGHTXnfBcqy7ofumXcqL3Xxcj7heJrKUI6PfOoblW7+5O9+aUlPZ/5VLN+KYe1pwT+/mqtWgG2yRLFASy3WJjQsILZv3z76VY+9lrq0Ym1jEeaWC8+BtUi3SbBePPsstOpYHrhct8r6x8oDbwF4NCwgsBosbXGCTyfWrQ/HQphY1E0WB+km/7B06qjzQ9ykIZg8WIoqD3WuDe4ZdUhunPo7CebqPVcEla71QkNSOQTSUiJIVFDYtWtX9X+1KBXPNujy0EWXKPKbfYJCS/e7tEDWrTPfha5xliBhJbw2mgRalPgJTkHX3gohLrfPjsF7VB5yjjH3NgjbxtU0/iraVp8dh7kRV2WkHcf0YJGCrMIcLNeNMDPWydjpaiHB8QWEtFOIdC1tUHAomAtdokqAsAZVmBirgi5jSxIdiXVX+sQp6talZ9xMYl0ClnzbGvc5PzQsbeetVShjXhDrXF2vxwqjdyXjsl0tV8rwkPdzZsSVbnVTq5cTTj8sQJeaTLfChH+GEjwILGI0xJdXbdciSKu/huuvv77ar4d2FBAKX5PY8eoS4oOza7vnhLKttUeYEWj7AIjzZfG30SdOwVCDHeIAhBXqxJrjEnQgnd56L/EDPEzzwx3B4r3kAem4SBRzrsRy7QpDZP4eT5KZEVdaIVomuv45ixKxuemmmyrh1JirHxaAm2++ufInP4hV3XutsoLxVyoAJbRdi/BpxWFZs78L1lKwvxFK0oFQykIo6aLztJ7zdA6vR5U+Qe8bJyDMdswTQUQEcQpLjjE8IK3cO+2nUaOyynqHEj9APLzlECyHXtEk8kX5n3Mlliv3zZ7TVGdpQGko/T2eJPH5azBTIJptHxEMAUIeHxHkwfJvez2ujbZXn3LHsZixPpviRkTVS9Srg9xLvRtbR1t6PDP9nutqg9WYAyusaZw3mCyrJXKrJerBbJAT17l6W2BI9AaCdyGsKwvixvgeYrdSEBdxhrAGXQhxDWYOxndX0nIlrvgqK+hKiGsQBMEAhLgGQRAMQIhrEATBAIS4BkEQDECIaxAEwQCEuAZBEAxAiGsQBMEAhLgGQVAL3+jbSXaCckJcDUyikpshqw+EVTqj1jjxdoknWH36flmGwGkGsDbq4mB/F6EkPj7vnuRa/iWQxr75xHl2hrMu9I2zjphbwIBQTWr1V8Ji0oiSz2PHibdLPMHKQUUdd20oD2LHFHlNMznZiUoEE5Z0WccfiGvctfxLyKW3CcS+7Wu5knzKwT3r++Xf3C1QOGkmKa5dWMl4VyIfBRWHOWQn+anqEGGuJCUVGDHrMsWlBAeLj+n/mJrRTm5D114iyu82EccP00DauRSUprZzu8L9JL0l8zaQBiYsl7iSzq5wXTQUTB9ZCnPJtt2zENcWQlwny1oX1y6Vv8mCzFlhOZG2++qsTQS4bnly8lZz2dbBNZVYj6VIXNsED4FjVjIrriV4Qa5D5YqVCfpY6DMrrl3W+gfrl5mrPLTAmuGfcyQ0XuRYpYDJt62fHLl0MKm1XW4b2uIFlpcRubR7FDfx5MKx8XTJR85hv02P/AsqKpNe54TBd4tZvUCFVpVY2PNzFZywKPRMlF0X5jzjhdR22T1WVGVt1mGtU+KY9Fr+KwXlsG5e19IhAvxRvhBwKLGkLTlx3Vj9nXJU0XMWFzcaECL87NixY2kJFMQGQbHnSDBYABB/WubFW40S1tJVYG06gDAtbfFyjFUHdL5WKbBiVkJTOKX5CEqvtoG8LE0TFS9XCbVP4okAINDapnKznAqFXQIBVpjn0XL1QufHR31Y3spT/tkwyCPbSFl0v4XNzzZrmXvUxXosIXfNnrprUToRWZ/mkgUIyQuuF4ue/OP6u4prFixXud+67clq7W3cF3ftXahX08OCYBSt9W9hzX9/nG3251i4eVWYCwLY6M+TSwf7CE+0xWv9Qu56c9h4SsLJhcu+knxSvvC/BNaK9+u/Lwjzy9aJx49dU57j8ueP5cKcVnLpzO2b1Fr+5Ne46/jDJNbyt/ewhLaw246rrFi4jrZ8tXmm8zlH+VTKRz71jUo3f/J3v7SkpzP/KtaCmIx+LYLFpfWm1AUXWIvQZInSPe5isQqfDktJvOrOCxYx7EPfcGz669KLxc2QAdZ3H7AswK6fhcNiWSjk1THA0iAe/DEcMBErYgbBmrP5lHNNkIfcV7ku5Xlc2qxFC9dBGfDXZp2Oqwx5iI9hDaxOUI+nrexQxvxwAufQe6qLq5S5es8VQaXLu9CQVA6BtJSIgrpLu3btqv5Pgr5itFoMnV5b4eUm3c2cBnKCkdtnx589ubySa1sRlXBtPKVvIExqLX/GxEvILcud29cWHmWIRQcRWK41NwZrIU8Y78/BuQjvOAI7N+KqguPHEi1aUluWWQ4eRCHMjDcyvjgJSuKdJmTh+MpI+qmwup6+yKqogwJNPKSDscVxLYjVIicQda7OwrLi6B1C3UQfy5W8nuRa/iUiXdoIlbw+xZsH+GsSYq6R8Ore0BDk2TgCOzPi2rbWf07A/LAA3VoyzIoD/hlK8CCwWLGT+PqpS7xD05aPgvT6/GMZcvZzPaBCWlf4KOhWACjIFHov2urKCR4sIAwIDv/tF0I+zGmFPFnra/m3WY5iUpYrwyi834tf3qaoK5uUJ/yAhBvnBR0jAH8IbB9mRlxpdaloevrtocLfdNNNlYBpzNUPC8DNN99c+ZMfBKPu/VJZwfgr7VLV0SXeIWnLR+HTi8OqZ38piCOVhIIqAaXCUUlsIaYiCPxRyDVMwH+2dX4uzGnk0SlYy7/rsADGxNBr+efwoobL7auzXDU2ffXVVy+99UA5QRgRUo5ZkZUfrhM/cl7Q1Zvgdx/i89cgGACEv9Ryq0OvPtXhjyMgfdbxB6y0tk9c29LTl9JwyVP7ihjnIcJt3Xso8TvO9c30F1qrDZZbDqzApnHeSbCacQdB0E5OXOfqbYEh0RsI3q2EuOXixYWwBsH0EuIaBEEwACGuQRAEAxDiGgRBMAAhrkEQBAMQ4hoEQTAAIa5BEAQDEOIaBEEwACGuQRAEAxDiGgRBMAAhrkEQBAMQcwtMEZqlqsvMUysJE2cwa9I8Tmw9j/SdiKRkAhhPW1z2OLNUdUUTrjDBTJcZ6ph/Y5zyqpnX2vIiJm6Zcta6uDJjk1180M7gBExVaAs5IpCba5NpFZkuru04Fb50xdNphutom37Q0zaNnp+Bqo0u4lpHSZyIK0sC2XtWF3bOb1dCXOeEtSyuVAQmOlYlycWFxWMtEYlnnVC0HQcqJvOAlorILFEiaONYgtyj3ByrarwsbWmhIWUidH+exwsm4fqGhXlZiSvENVhiLYsrlYQ145sqlxfgSYirD3NW6dLVrpvTlPubsxxLRNr7qUuP4u6SXnv/rGASJ0vSWOGzx1dbXGdmaW1gqeeFJFduoQUd7V1Ey0PLLdyQ0ZFF2Icfj8IEH4ZfQprjhKtzfBosHMOfhfPtOT48nNK9UCgalybmWG75Xy2pDCwVzG85D+dr+WGO41+/tW3BL+fg5Adn6RMn1+jjysE51p/yqI624wI/dfm81sjdc/K9jbb754/b7Vycuh/+GGlR+cMP2/jXMf0G+RWE5a+F44ojVzbZtmHWkVtae+NChZ4JWG+KRQNZmZQlXbQGFUul6NjCNY58p2rtKyzBhUyqtheErFoZ1i+tsnPnzuoYYWjlWKCrxJIxNkyg+wJ+f19seLJcS6B7xvikb5WxwjhGuLa7Swucs0BY6ROwDjiH65Z1geXHPhsHY6CEj3/AAiFsWvY+cQLnlSyKx0z5uXWprBWU65K2HWcsd6FCjWXhrDZdLEGbB9wf3632Yfmuv733Fm2rW14K8fuw2tbxUhpU1jjfj8n3wZdNWa69mBXLdSGpL7MERe4YVif7rfXp/ckPeL/grU8sTflvw58LOcvVhrdwQ19mcTdB62pb4iZLTa2xRRaA8OF5cq24bfk9JXECYbK/iaZ4hOKru4a644RdYp1MM7m8ye3jWuvyZ5IQh81Tnxa77Y9xXpvlKvite4pffutc75fj/to5rjgUloW0lJSNnOU6E++5akVXWlxP3TGsWywsLF1Ba7SQkaOtlG688cZqn8KwixvisNJ27dpVHRNq0SbFOOHRUmPNCV6fYZ/AIqRFx9U9tJB/rFRoe6DAmKuFhxCWLnEKrAUfjoUwuRdt1hBp555jveeoO07csljWKliwum91rgnOt5DX5KnK1aTxaaKsMWZPfdKihLZulOLL5jjMhLhagfQ0HfN87GMfqzJdYspv9omFBuhlbjVWaC2FrhNdNhVgfqs7xbUxbEBhw+UaJstCaz/61Z+ucZYgYSW8EppEGtqOzyrqWluX22dfbfPovuUcXX0PXWaFa+PingFiR4Pfhk9n3SqvFqWLoRz9Rkw5XyJrVxVeDWZCXLXev0TRogrsrST8UpB0Lsiavf3226sxVm6A1uCHOkurL97qvffee0e/JgPjTRT6ha5OVaBpddnHU1LoMu4l0elrafSJU9SNt1J5JdalUMGaxm9zx2lYSsZ8pxm/LHSTq+udWIHzDgH0ML6pMG38GrsmnpIxUJ/2UuuRsqr0adyf8+uuD7wR8cwzz4x+TZ6ZEFcEkEyzQol4IpDAsWuuuab6La6//vpqvxVPuOGGG6oHV7hrr7222qfwfRhdHjB5WOOfh2wC4aYQlKKC0yZ2tNIIEE4tdU4o2xoORJlCbV+653xZIW30iVMw1OC7cHqQ0CTW+JGoA2m11nvbcUEF88MdswR5nnvQ1xXqQJ3LWa45yGM/RDAUlFmlj7IvobX33EIeWcsdfyVWcl9m6j1XvRUAWKB29VN7DHgDoK5Lz5sE4FdPRUytAN5xxx3LurbEgfV5c+F7qMSjm0kBuPLKKytRV7w+PPueKxUGoWtaZ12oMFshopDbgsR1IHakQ+AHYbHWhT2PCmXDRKz8e64UUL0n2jdOG4a264TZp8k3WDYuaDsO+CnJ52mFPL300kvHSn/urQFPLu/Anku9zL11gZ+m+9aEjbepbOTw6bFpxZigPGOYqPz6sqlGvs0Cj48IgqmFQt/2EcEQeGGfRRCAtsrfhhc/T+64BLLpowRZhjmRK8lz74/7Rdc+J+CeLn7HJcR1wvBGQQ5vVQftrJbIrZaoB/NFTlxjysExyL1dgAth7Q7ixpgYYrdSEBdxhrAGQxDiGkwNdN9W0nIlrpXoMgZrkxDXIAiCAQhxDYIgGIAQ1yAIggEIcQ2CIBiAENcgCIIBCHENgiAYgBDXIAiCAQhxDYIgGIAQ1yAIggEIca2BGarslIP81mxaQ+DjW0mGvrauMOGHZiMaF8JZiU9qJ5nmYD4IcQ2CAWEaOy/u7GNGKSar8bCPY3L47YLClrOCTzq6hhf0J8S1EOZYnYcJWZhD1lup83JtOZiKb6Vn2hIIpeYKBQkf5Cafxj9zlTKFH3OY8p/5cXMinENCyrlyTPknQSUdpMdOaB4MR4hrEAwEUygynaFgkhgEr26yGPwzXaXmRuU/2+wvgYbEh82E5QiqID0s4BcMz8yIK+OCWF04rc6qMUq7z1tl9hgutw4X+6yf3Pgj4dgxUfzYc7pQEh/7/IzrpMH6VZrwp3Ca0sUxVmvAGuKYzT97beDzzR8H9uHP+lX6sI6w0tqsJPmTy42P+q5uLkzbnbZhcK7tGvObfTZMHbf7culgn47jmlAau0xnyAz5rChgYZv9bflYCumZZHhBPTNluWoZF82bSgFXZdY+oLLrP8uq6BjLtth1uABhYh+ryMof6181VR7CveWWW5b8Y40oHW30ia8JBIHlwhVOU7ro+rP8DdYQx+uWq+H6yGuFgyOenMD6e4Jw5/zlQBC1lI26scyvatc1Il4sLx3HErPrfAF+bHf66quvrvbVoaVoFCbxSUy1D2wY/CZcHWeJkJwACxaN7LLoocTOz+g/ztItwNpkfn0t0k76gmGZKXGlUNt1sVQJ7D4EBkEFKj5iI6iYCIu1CHfu3FkJjl3IkPAUdg6OW/8sdGjXjmqiT3xNEK9Ecpx0Wcg3GiIL+UgD4C1/f0+4NoQIUeBYkzj4bjDQrbWrf5J+RE1geTFeacch8cO9VTj8b5qnlfDtccVn9yFItjvNMZtOFsTTWkw5ui56OImlzT3ch/37978sL0gX6QuGZabElQX+LGzXVSKJAFai7d5SEe2S12zv2LFjtFWO7Qr7VWOb6BtfHV6U+6ZLKN8QKwuijRBicVv8Pdm+ffvoVzu5brBF1hyWKsIux3kSoz7dby96bJdYmYiV0mAb6ByImlbELaGL3xJIK2Ut9zCPuEhfMCxz/0DLdm3lZGl5K6wUhMsPN5TQN75S+qbL4sVzKLqM+dGAeKdGdQiLLweC6ocnhsDnS91wQRMSVtIZrB5zL65NFoa60DlBoYDmUHh9Xl3qGp+1sIFluOsYJ10WiYbPNxoGKqwfs+6LxCInjt6qanoVSRZfF7HuiuLv8kpXl/FWID8Y7vD5wdho7rWtOng4p0agDuLomr6gO3MrrggZBcx3jf3DFsYI8WOtSvwgJDkkLtZ/l+53aXyMHethESB2WE91lKaLbnvdtYlcvl1//fXVfjum2wRiR3qbRE/j39YP4qCxTASH8VAv9Pbpv/zYh1yEV9c49iEn4D5NHoYaeJjUBV6TsuESH/fKvs7VlKfKl7ZGoOt48DxDXpKnakDttj/Wlbm2XHnQgyBoDBLHQx4LQwQInh2bZRyxruVHXLz/Lt3v0vjwh/jID28EcF4dpenSQz2O1z3VJ98IS+HgEPu6twv6QteetNgxVSq9faDFu5ts6ziOh0kW/BCOjvMeZ91YfB8QcJ/OtmGB3Lgmgq/zaUDUYOKAcWN7HcRHPBpPppJjxcrqt3CMtx5wOl/Ov9WAn6ax7mAyrPvkXUcW319a4LE9+9Kdd99f/f69D12V/v7rz69+B0HQHUQNq7PLw7YmZI2P03Agwryl0WWII2jnl//w7vSdJ55Pp23elD549TuqfXM/5roaWIvPutJ3YYP5AGEt/bqqBMZSx7XISY8dZgiGI8R1APS03rt5/X4/yIPFyvuyTR8bdGFca5N0kJ5JWdJBMyGuQTAgWJrT0gUnHZMciw6aCXENgiAYgBDXIAiCAQhxDYIgGIAQ1yAIggEIcQ2CIBiAENcgCIIBCHENgiAYgBDXIAgGgYlP7CQ7kNs3r4S41sCkJnZiE35P6vNVZq7SJ7FM3uHD9nH3pTTNk4pvCKiIk5zhKiiHfPczQvmvzThed3+YLtFPstMV4vNpaCP3RdykvpLrQojrKsDMVcxYxSexQ026HJSDOKjyIeZ2RiksLQ+V3fqx4kI489IYMDUhs3tJQLlWZvOy145xwLSIOfFi/7if2vJVGVM35u5DDtKpNcNW20qOWbFqkCU36Wn2sFoRV4S1jqHirmOl4+sClYNpCIf6bBPh0CxRVEzERILANgJhp4PEP4LCYohM/UcF9lMDIjSs+5WbGnCWIO+ZzpFrZoJt7gHXZj/ntccs7EcU3/KWtyybazcH0ygSJmLdFZvvYNNH+omf++DTPWlys2KFuNYQ4jodDC2uVLqmaQGp8F44sYxsehBhZqxS5bWCPctIkPiPxUqDkhNK5qD194d8Yx5exNnC/WQ+2br5ktuoE3Ow+a5Grw4J+qSY6SkHEQAW37ML8EkU7D4/xmiP4exM/cKOgeJy45SEo/gAP/acEggDYQV7ng/bU3INOXLhtl0rhZKKkeuGsR8h8VCoZXVQEfkt5+F8KpjOwT9o2+6zcJ6O4zx94tU11gmr0EoEgMj4iabZZr8Nz27PGioDGgIAGhgsQEQJYZTLDWuR1wiuh3A1GTr3og781R3HGq6b6NtO78iE6XbJdp/ulWj4ZmrM1a+Rz42XOGgfICr67xfsk7gJunjsY10r+WPW/VwFFYTLUtPyz83KCbKH1QW0fpbObaPkGkrpc60WKoxdblpQqDlGpSpZ258Z+qkkKuScp642+wiDfULL0ihcsJWvb7w8cGlaS4o4CEvde4ml7+7nuv+cR/izCNfDveAayCssdTUwElw57puHsdqcAH7rW99a2s+DLhq6HD6/LdzDXH5TBjRPrX7n/K0kMyWu3Git3Apsg92HWCBGgBgjgoJWFhGwBWLnzp3VkiZ2bSjCU9g5OG79s3SMBGDSlFxDKSXXSoFkO1cw6YpRuWyloAKwj2M4e17d2v7ss91F8k6WEfDfdvuo5Hab67dLqPSNN7eWlLWAOWb9+8UDm+Bcwp9V7JN+GlTlL2UDxz1RY2jvDfihAKChYvxTYN03PajCL9anhTDqJvomr9UDIT1tvZGVYKbE1a+Rz7a/sUJdZyw12w2mIttVVdnesWPHaKscLEqF2WWBwi6UXkMpfa/VQqWiUgisEfYJrIYmqwasf1WupsrgBdB200XXeAGB9mFh0UpAgPDUmOTirQO/tgGYNdRD4f5g3dv8xTFuypim3VcHoohQ2wYQEGEENCew+MViVg9F96CunFhB19CPdTSsfl+dsE+KuX8VS91f62Tplo5dehA431UfEpt2OWutl9D3Wj1YFFQsFUx+yyKhwFIpJU658ThPF2uwjj7xlkDDjZVsGxPwlVLbXjxmGRoZrhsBRRjJC+UvzlqucjkkrHWiSDzeQhXEScNKGDSYOYs4B3HZdOH8mCtu6Ps19+La1H1W91jjoBZa6hwKbyWXbGm6hlL6XGsOCiQFlW4j51HJ2CfLgsrSBVmDfa2IvvFC17X7de2+QSAv2G/BT9fwpw2Jmb1e7rm9V2zrHuRQGLIWEWsaZG1zftO9o3zg3/c6ZoG5FVfEhNbJd9n903PGIPFjLTv80IXOoYdJ1v9QwwKl11BKybVScSj0TWLHuBeWIk7jcjmRLGkUECwqjn1thjBKBb9vvIBVZK1S/xAM0SBvdI3AtdvwiRc/fiwwN547a2AxYp2CBJTrshYf1mVbfltL0j4ow9UN6wH3g4el+OMetJXLPhAe4er67LY/1pW5tlx5b5MbY8crefhkoXuN6NhxTcZyOS8Hguf9DzksUHINpXS91jpsF0+/qXB0oe04XGn3HOuGc3Ue3cSmSmcZJ14/LsobBwoDh2iQN/56bVqJl/isH8DaqntlaBagcUPQyF/uBdeH2OW65gimxkYngR4qcj9k1RI/94KywbFJi+wQxEcEwZqGiozV6cVxHLB0ZvkjAtLPUIBt4MgnxE5WK2Kqr58AMaYx0Tbix8NOL8Z1+4E4ePCEWCucOur8sj+X73X7J0V8obVCYBHmwOKZ9FjtSsY1jwwhhFTkSQt2MN3M9Bdas0Tu6T5uCLHLxYMLYS0DAeSVHwRxEhAO4YWwBiGuwZqH7u+kLFfCKR0vDuabENcgCIIBCHENgiAYgBDXIAiCAQhxDYIgGIAQ1yAIggEIcQ2CIBiAENcgCIIBCHENgiAYgBDXIAiW4Nt/PwlLbl/QTohrDUzFZ6f243fJOllD4dMzTVDxSqcIDIaF++CnyPOf9nK87n7Z5V26YMNEjDVrWM759AFlKLe/5LPkOj+5vLAQJ2nNMYnPoUNcg6mHSmILO9u2suasKiqV9ePFpOk4cXn/swLzrTKVItenfPJLnDCVInPQ5gSE/ePOi8AsVUwcxIxVTBNoVwFgLtdc+MySZVdvFV0nHG8SzJVmwzW/8s9/Z/Q7PX/wUHpk977q989ctS1dev4Z1e+1yG233Vb9f9/73rf0/yMf+Uj1ezXw6ZkmsHZOP/30tG3bttGeyYFI3HvvvUvf/lN5iIs5VN/+9rdX7q/+6q/Sli1bluLnHASEyk0lZ/5atjku4Wk6fsUVV6SvfOUr6aKLLqrCnSW4F9u3b68E5vDhw1U+Pf744+nDH/7wUn5xnbj3vve9o7MWIV82bdpUTfLNophf//rXK4dI7927d2kbR5jkEyDYTMDO+RxTHHfddVe67LLL0v3331/5Rczf9a53LctTzlWYBw8eXPrN+VwD90H75AjfovCB63/Vq15VxbFnz5502mmnVfeUuI8dO1aFK6xfwI/CsWGW8Bff3J32vHA4bdywIV352ourfSGuNUybmK1Vcf385z9fTd9HBQEqq4+HbQRYlYFzmGtUFhKVByc/bcdh69atVcXuUsGmgW9+85tL13jfffdVDcdXv/rVZeKEEHLtPh//7M/+LF144YWVOEuIcS+++GIlrlie2mfzhW3CwiHmiPGtt966JMgSTf5zjN+cY89F1D/wgQ8sha9GkKE4NYDHjx+v/AjE8Atf+MJS+ITz7LPPLgkm94/84JjWebPX7MXVCuokxHVmhgUYb2TFVbvqqsYg7T4/LmqP4ewSJ4J91k9ubJVw7Jgnfuw5pXAeVpKFsG2cigt/Pj0az6rr+nAs16WloHIMKJT8lvNwvsbAOI5/0LbdZ+E8Hcd5muLNxalr7NpNpRvsVwFgm/2E2XYciNNuTzukk3wjzcpbhI4uul+cj/0e8h8R8xAulizd+dzwSw5mBVNcnKf1xQhf+z25JXFYRqhp0mx6M4Sl61M50aoUDClwrYpPDTTXwXFWi5Bfyt2kmakxV9bwB81ZSqZIeLQPECf996u00gJaEDD2sXCf/F133XVLBTQH4dJtkn9unhXASUBhp/Un/C5zs1KAKZQexrM4RrjMKE+acRT+nFCy/AnrS+GHQsx56kqzjzDYJ7QOl8IFWxlL4vVxYlmUjLlxDnOogsTQV0pta7G9uuMW0kgaZgHSz70hzeQf+SExkeDK+cYdGKv1DQ6waoD286CrSYQIQ/dcjaQejqlM1NUryo/SR1nB2XXJuG9ta5JxLoKpMmr9aywaGN9VGZTfXAOu9OTqRwkzJa5kgl1SWjfM7kMYEVRAjBFBQSuGwNjCtXPnzmpdKa2OCoSnsHNw3PpnTSuJy6QgPNbP8lCJSFtODACrgcpkKwGCwz6O4ey5FH6Oedhnl+IgPbKEgP923lIKqt0mn+36VCXx+jipEG0VikpIPIrbrlSao+24hbhJw6xAQyAxs1Yf5QVnxcTeK8gtu4JQqjsNCBANWc6ap04hbISDGKmRtKJFnOxDsDyyamVVk+/cKzXg/M6Jv0XXmIMyYstfCYSH03h/V2ZKXFlMz8K2LyRC3X+sUtt9RyR27dpVHQO2d+zYMdoqB+tVYQ6x+is3tS8UMAq3wPqwhY4Cq1Y5Z8WA9a/KlGvdhRdBWQmWtnh9xaBC5MIRhMf9s4W/yT+0Hbfg1zYQ0456LNwvLH6b3zjbDZarA2FFqL0gIZ4sEmgFlnAQRxxwP8g3xUGjqd84BN6CcPr7QjyIqRq3tiGCaWTuX8VS1906Wbq58dcSEFQ/3DBNYG1QkVQB+C0LhMJNQVWrnBt/83Sx9uroE28TEta6RshbV9pWJa47PmsV2IKo0agioAijLEU5Gi9ZrnI5JKx1jSnxILCCcHKNluLwr2J5bJfdwr1ApLnXXV/J8vS1Psdh7sW1zjIDde0Zb/VwQ3MovHHWqLKWM/CUepJQKCnQdBO5Dgo0+zRU0LWg1QlSKX3jratQVH4JtUfX7hsE8oL9bcct+Bm3Uq806t7b66MM2HvHdtPYqcKQpYlY00Brm/NL7qX8W8uVcDy+y26FlnFXGlE7PJGDNOG6wn0nXX3LdhNzK64IJ5XPd9n9V06Mt+LHWrH44Ybm0AMx67/LsABjwnowB4g1N7cUCkFJYaBQIkA4jcPlRLKp8REUfASaSiYIo7Qw942XoQY7vAF6YNJUubl2Gz7xcj/1gKTtuCgZ8502yB91uyWgXIcVLyzatvzHapW1SXjcf23XDcV55J9GS7+95Ure2wbMN3r6sAARzMH1It5co08X29b6xq/KIGUXoVcjbfNnUsy15coDITJOY6M4Hj5ZGCJAYO3YLGO5nJcD0fb+uwwLEB9jUzqXNwIIb9LYQqXfFCDituNupd1zrBnO1Xl0C0srWd94EWU75olYUCGsFSVnn+hyvTatxEt8yoe244J42h6iTBMIhsZJJSzkiyxRC4KphmoolL9NliuiqcYf7BAB/mnwqIvs9+nl2mj8OJ67Ro/KEuEC5w05XLDuk3cdWXx/aYHH9uxLd959f/X79z50Vfr7rz+/+h0EqwUViArmhW9oEHKspiEr3yQhvVh9tsEj73j9TVYZ4kT3WtuIMY2HtrHqePjphapuvyBcRNM2UMSdyzufBvlTGFi5pJkGzxs4XCMWd53hA1xTXa8Tqzl3DRLbJmiMlOYcv/yHd6fvPPF8Om3zpvTBq99R7QtxHQAs0hxYS+OM1a5FVkvkVkvUg9kkJ65z/0BrNbBvJlgXwtodxI0X4hG7lYK4iDOENRiHENdg6qGru5KWK3GVjicHQR0hrkEQBAMQ4hoEQTAAIa5BEAQDEOIaBEEwACGuQRAEAxDiGgRBMAAhrkEQBAMQ4hoEwdzAp7p1H5zwtV/pZEOTIMS1BmbGsjNo8XvSS7lYhg7fQuErKWR8793ny6i+580iVGautwvkPRVdvzWpiXfy4yFv647Vkbsffe7ROPeVfNKsVEPB9//MTeDvCfEyw9pKfhwS4hoEY2AnPWnDChMTkCCgTJzCRCQ4OzUfru7zW74gQyhKhQoBt2uMdW0MLLMwvy33hJm2ZEDQEDGLW8nMWZMkJm6pQVZrbh2rWYdKTmWblk88qQTMq7nSk7N0hUraNg+qhYl6/CxVXCPXy7R6VjwRvdzMUwhwV/z0iYoXEFbNSmX3l9LnHGHjHgLytW5GLIu/L5MgZsXqQIjryjEr4mqpE4om8dExL67sZ85TSxcBQPT9dIOCY5pVDAFnKr86sJyV9lyamrDnCp9HdruuMRmHXKPl70dTXo3DTIsrYqcFCjWTP10nxI/FArXPT+tnjwFLutiVW4FVBbTCANiCLXElHJZj0Tbjo7aVZNarUuyUhEqPDR/rKLe6AZNqa/2vputSJaqbg5ICp26ivQby00JhZZJiWwG89WZnlpc/ex4VSrP5K66mSlw35+Y04isu11q39lSdBUpeQJsANIlRndADaQTC57ed39Wnvw0JdWnDnMsfm06fnnGh3E2T5TpTY64SE03hR4HVQyDtA4RH//1CglZEAaFgH+IkfyzF0tQdI1yW7JZ/RKn0YZRWLtC5N9544+jIKejW6TgOUaVAWGFtu642VAg1voeoqSLWIWFFtHUewulnl/f4uBBTKhpQ+bg2jTdOs7CSP5QLOTvDPo58IH/sPqFrx5HXykMrPogDeZxDAoTIevwaVILwtHSNfo8jZAg+YdDLaIN0to3PElbd8i19oe7YvFa5kuP4SjFT4krmSGCAbbD7EEaEBxBjRFCQsVRka3nt3LmzEi9rzRKews7BceufpWNKWky73LdoG3bgHH8dbddFBSL9TRWJCm5bb0QNschVXoHVQjw2XMKw1msOHxdh2OVbZgWEkHzt4iw0KDZ/2a4T0xxYfXbVVSAMCaiH3oOsaPI/Z1F3AVElDESzqZyAX74lB2G11RvioZFqi28amSlx1bCAYLvOvLdCpvWqcNxMu/oq2zt27BhtlYP1qDBLFyhEkKlwpEljum1cf/31y8S/9LrayC28RyuPdVIH4ttnTSkfl9ZImlW8BZtzObyFyXYXweNcuuSy+iXMdWHYXgB+fRq95Y2rEzHO11ASotlmcVphb4KGtqmBaTIQcvieg79Ga1gNzdy/imW713KydCVUXUHMfLe8FCxVzqGbRjhNIqvhDWuZC8VtXc5fFyiIdcyi5TAk3kK1TuOoFgTEWpiIk+82I0htDQ/GBI0VAotQlA6jIHS5dPp9dWJGXDJkCAsrtkmI26xWQWPtV/j1tPWMBOnz15O7xjqDbNLMvbg2tVSyBhlv9SB+ORTeuEu2cD7x0prmRF7DAXXxjNsCU5Etqih1lVuVLmfZzmIXf1ysNeRdrpFCQGTJIYiIE9180LgrY7Yllhr3CL+lojMuWOp+rJIHUX6IQthrbYPrLSk/bfmSuw+4nHUuNzRzK67qgvsuu7cU6XLjxwocfurGgjReav2XDgtwjqzRNognZxGXXBdCSeFpsjapnLY7RkWhsjYVYo3r2nCxoJos3hIQi3HDWGmsJeRdznK1FiZi5R8ukY/krx4q1llXHGfsm3iwDtvu87gQH8MBXixJO9eg9FpKrWlhH+rlKAnP3wO5nOUqB6orqgt22x/rylxbrnTByUQ7NsnDJwtdaQTWjmEylqvM9yBu3n/psADn8rqVziMM+wqVkFAioPKLkzCXXFcbVGQqKYUHRxe1rRBT4TmP17x0HhV8XAuKikslIDyNJ047uv6cq2soqKQcx+qzYqVrJn8RGu6L7zkhYjpXYkQYlAMaRo5NWmQJs+m1K+JHYPEXvJz4iCAYG8SBccCVGstabRC6JmsrdxwBohHyDRh+EShvGbJfXW/Eum3dfOCcnN+69NbtB8XfFicg6jS4dQaJxJcGtCnfhqDpGidJfKG1QmBJ5sDqm8fltak8jMl5gQiCtcLMf0QwK+Se5ONmXVjpqua6q1gkIaxBsJwQ16AYuv28ZYClKsdY7Up39YJgFghxDTrBmCFja3JdnwwHwVohxDUIgmAAQlyDIAgGIMQ1CIJgAEJcgyAIBiDENQiCYABCXIMgCAYgxDUIgmAAQlyDIJgqmKvAT+CT25dD8xgIzpn0hDalhLjWwMxUdho/fpeukxWUQcGvmzc3GA4+We5DqcAB99VP1efj5Xju/pcsEVMHH7Y0XR/iu1JiGxO31CBh1RpXbFMQ5nHildWCijrkbFrcL79kN/uYqzc30QyV3U5CzkQ7ShsVtnTV02mBNHedJ7duZivBPatbadYif0yujqubHxn8bFkIoE8Hgli6FLdEnfurdEDTzF3jErNidcCL66TQyq0h0sOKKxWMeVFVaSWqCCaC66f5k7Bquj4qM5XRijBiVToN3zTDdbTNB+EbmjZsQwTcW4SQcBBXjvl47THBPlYyQBDJ/yasKBNf2yrElklPfxji2oEQ1+EZUlypyLl5UiF3jH3eMvWWLxXfCvYs4Mcgm6ibM1bWnz/WJNI6xn/NMZsTSy/KpDc3763Es8Ty5L4B4SrtiLhtPCfNTE85iNghTDjNvi8BtPv8uKg9hqtbr8r6yY2tEo7iA/zYc0rgHNbFwoLiHMLjP2F7KAgc4xyO++vI0XStWGJ1403sV4G0ICa2clJR2JazcD4FWefgF7Rt93k4V35wlqY4IRevrjEnrHUgAH5lW7bZb8Oz27MAYlTq6kQHoStd0lvljHzS/cL6J2ysRRufX5eLe4nYegiTRhjRJd46FDf4Bpt7R5xcR105nDQz9UALYQLNj0pGSgi1DyRW/PertGoNLIGIabkV+bvuuuuWblIOwr3llluW/HPTcoLswVpliRgKEOdhFbNNGj233nprdQz8defiK7nWOtRV9mClqbBT8OkSq2JQ0H0hZaE5unQcx2rhHFkL7ON89lk0FqdwQRWoJE7w8eZWVm1CYunFJSc2pKFtWelpgnJc6mighG/UJJZyWJHcW7sPyDPuN/nE/aA3oEUvfRicb2E6y9zS7Yy1aj8Pumw6BWUF4STOpp4Q5YMytSICy7CA3G/d9uTJd/6Lz1fui7v2LtTR6WEh0ypnYXuh8o+2FlkQpKV9C5d3ckE0q9+CYwvCM9pa3OYcj48PPz5+QXjEVYJNn+BcmybSrLTjNxevv7aSa21iQehPLojGaOvkyYVuVLWvDvza4/fcc8/L/PswPV/4whcqZyGchYZltLUcHyfk4iVM9tdB+DZduXAF+8kLQbg+zdNMLi9z+7iupnvVBRtWLi7yz+aphf02f+XX7m8639PF7zh85FPfqHTzJ3/3S0t6OlOWKwsHWtiua6XUJbYLCeKwlHbt2lUdA7Z37Ngx2irHdsFLV3+tY0E8K0tV3H777dU+LVzorxsWhHNpSfDSa20CSwPrT2AtsM+CdVBndYD1L2uwrWtOd8/il/ZuixN8OrFk65YIz9HV71paStxbsDnnUS+IMkAPwt5DHFYv4692Xw56MFiqvgehYQqVsWll7t9zXWhUXuZY8RVy468lIFy+Cz4OH/vYx5YVMIYB2NeEutMWe41yutY2GPSn0KvA8luvsADpo9Ig+jg/XuZZsBZGv/rTNc5x8ZVV27nhgVnBd8VxuX258iSU/znHOKqHrjcNNQKKOGIA2XNoDDVUJOeRsNY1zsRhx4HrGoGckMsNzdyLa521A7IMZQFaaG1zKLxJPu0nHViiWMOEz2+73DbLcVuspWpputY2EBAqykJ3rrp2KoBERWNcFOhSZA32tS76xCm6jLeCrt03COSFFw/8dA1/NfEPkZpcnZDlhEkOoc6hp/02TylXtjywnRs/BZ2veBBIhFLbnGvLBr/99dAYU47JA+qUPz40cyuuiBMZ6Lvs9ok/8NAIP9aKxU9dSy5Bs/67DAts3749G/YNN9xQWcM7d+6sflsoTFY4r7/++uraJMAl10qhJpwmsePpL5Yizn4hkxPKNiFHsCjY9vUbzq9rtDx94hQMNdghjhK4dhs+8XKf/BNxHrr4oYxphWvggdK4SIxyzjc+AssT6xQkoOSd7QVg0TbdUz3hx9mHZLimh1ZAnISNSEuEJcoW8oj9SqPd9se6MteW680331zdCDsOee21146OLkK3GYG145WMcXJeDoTM++8yLEBrSivKeVb82C/R9d1f4kN0FR8Fi2uzlFxrG9Zysb+pEKTZdq9KuugUbM7TOXTj2iqF6Bsn5MZFqVQKB2uLiqdt4HptWomX+Lw1h/WUe6I9jWB5TyKtypOcy1mu5LXGSrnf5CHddlmjFkSz6fWqrkgQ9faIIB3a5jj+hiY+IpgieL2K18DsOGluX9AOldl/KDAuWDCz9BEBopUTtC6Qj03X64+TRwwF2EYUP/bLNtJlP0pAjGkE2Eb0cp+51u0XxIHQY0mX3B+fpnGJL7RWCKzGHFhGdWO1WFJ063kIZQlx7ccQQkiFnLRgB/PBTH+hNUv4J/ZyTQ/B6PbT/Q8mAwLIeCOCOAkIh/BCWINSQlxXGSxTLN2wTicPXdNJWa6EUzpeHAQQ4rrKYM1i1dYJK8dDdINg9ghxDYIgGIAQ1yAIggEIcQ2CIBiAENcgCIIBCHENgiAYgBDXIAiCAQhxDYIgGIAQ1yCYAyb1JVowOUJcpxQmtyidni+YLvoIHROTTHJ2qBykS2VKs0e1uZWYPWpeiYlbphQq2lDLTgOVjHlbc5+HUqlAU7Tpu/r4/HM55EvdZNF11E1lCX62qBxMSNM0B6qHyYLsfdN9Z0YoP8sUx5iucdLzJ/g0+zQJ4rdzHTN/q01fSTgKIzdd5JDErFgzxJDi2jRjFPEyFyqiYYUAIZnkFG3zDHnVNKfBuAKJNclcrXafj7NNKO0UfmpMPXUi2AVdK/O2akrB3Fy5Knd1+dYWjkSVNNN4rPTsZSGuM8SQ4kpFzBU+CqgKJgXZimuTIK9l6oQph4TBUmettgm0P8/7bzvfimvOL/fbz8vaB8L2vR6VM8VZUrZKwhH4nQZxnakxVzvLvl1mxa7EivNLuQCzT3lrgfPYr9+chx/C0H5t230WH7fSReEtGbOiYOEPR6HwUIB0HOfhnLrjnEslVBz4VXp8wWM/LX9dAcc/1mzb9aw1aIBKnRdQQNzsQnvAPUMcmkBYEccc3Pfc+ZQBjnm4r7YM4XxdyaEyTvmqg7D9aghs27LEqgFt11sSzrQxM+KKcLGciuZGvfHGG6v9iBurpWo/jgKUE9g2OI8lrgmD2agImwmsWcCQfbfccku1T/DbrwLrFw1sgvgoxFg0VD663bbwa/xJlROoeAK/nKPjjFF5gaarpSUvEE66k7kF9qjgbcuoED7nB6fwotTkJEK+QfTixlIylAu7z4NQc2+9sLDNWlU5qy1XhiC3iGFbWShBafONit/mehnCsNdry3FpONPGTAwLYA0iWoicXRUVJLq2MOT8Y3Wy8J/1J3GUkEqkRS5sC8d9mnLx1EEhwl+uIqgC+AcOuW6QoPJSKVWJ8I9AaxsI1w83+H0+HEF4VFybprUOIpDrlvp95N0kHhYRNmLcBX8fAcEaesy1rhwBcWqYhN9+eRaJK/tKwxGcG8MChWh1UwTTWqTqgnshwz8FI7dkdhP25tWFLXTcLlSIQ8x27dpVHWtCrXFTAUDwLFROD5WWAoajAHqwNi1YOzYcCi77SioR5+E3mAyIgO5dnfMgNpRT61RGKfP+GC6HXfJa/gjHhjGOsEKuvNbhhwXokanL3yWcJnx+qw4OxcwMC7C6KVYlYoKIIbJdxbMLpWFrSMC6ksmtbeHuCwUES9ZWjq7wIMF3SyXS/Ca/g3p83uFy+zTE49G9y7m6Zast3B+GffCLCPkuv4fGVPdUjTciw37B8UkKjw9L29ba9AKqY7aelITThG+YSs/ry8x9REAXHuGjwGp801tsWJUUZh0X3qK89957R79ejs6VhVpHzlosQYWpbyFWZfDdzzb8eGuTJcRva71Q0HPjtWuZ3Hhlncv1UrwIW9fW/VfXWcM0hM+S1pxbB0LMPeW/HhAx3m7TxvG6h2VdQLzIH29IMG5vG47cWL7qBfWkNJxpYybEFYGzD5IsFFoeOlmuv/76ar8dC2WNKsZUBaLYVAjtUISw6dBxH7eGLSgchF8nnhQYChXv6gn8llqKOXEuEXqsFSpWHxhv9UMVaxnynteDxoEyVOfqhIMyQtmi6+y77ogk53LcW7G2rDC8QxnET+5JPSLdVhYJj3is1eshbFsuOQfDx8ZJXOyz6UPwqR+yLkvC6YO/Brvtj3VlZsZcsTI1rong6UESwwWsmqpjOISU/Ra66ownyQ9vBbStturDRrRtl5/jFGQdx1177bWjo+1gcZAmbiCOAlU6zkWh41zEWeeXDAsgyn3HTXmq61+HWctgOY2bH7p3OZezXGWtUu4kPDk4LitWooU1yj7EAlFiP41lzqJmH43puBCOLeO5Dwj4zT5blukh2QenbeGowcGRbzKecKtFfESwBunzNJUKGR8RLAerb5w3J7gPTfnZdtxS4lfpzaWb8xElL3xBGfGFVlDRRyj7CHIQrBVm/gutYDIgkIwVIpgl4A//IaxBUE6I6xqFsd1SyxV/pWPBQRAsEuIaBEEwACGuQRAEAxDiGgRBMAAhrkEQBAMQ4hoEQTAAIa5BEAQDEOIaBEEwACGuQRAEAzAzn78y2xSTMzDl4FqHb8OZcCNe7A+miZJJUvyqAZRlJgQqhZnC9PELE8/YWeXa8PMmEDcT2fgvD0vmafDM9NwCIa6nGFpcyWe/nAz7mOLNF1B9GhtCH7SJEuU2t9JtDoSTWeJKRa4u7LY05Y4TVtcJeWLiljlhSHH1k7pIVJnuDcHNTd5CAWVu0ZJKE8wvfSzXHJRBpgxk2sRSuohrXToxHCA3L3JbWkJc54QhxZXCWDf7Vd2xmI4wgJyQWeoE0EIYzOXKnMOaz7ZkGsQu4gqUWSaN9xYqxgRz9BIO1rMWcWxjpmfFYgUAuzihnaC6bSkWQRj2PBsesHIrfry/HN6PTwNh+7AIX3DjaEH5XwcFAD84ComHgqDjOA/nNB3nfAql4vn0pz9d7W8ryB78UxGariWYfygDtrx51zS2qrJKD0hihrWIQwQ5lqsD44CB4qF31mZZlzIzlisixWoEzP6PUNklrxEyv/KAh/P90tmIHdafzmWbLjCrD2jFgdxYL2FpSW6gG8FyLzZszqNA2LBIN4WF+BAiBuPruknqjus4/pn5nvQiiBRUuuqyXomLZTFUMG0LDJyDNWBbcfxQmDTrO9tNS2dTuOusWsKPh2xBVyhTiHJueWxvcarOqItOme+K4tHQg6AuASt1qHzjh3W7Ssr0TA8LSFw/9rGPLVvmpRQvyIC1acPyYis418bnt4Fzb7jhhmWCDzYsL8pNUHDqukMIGVgRlFDWdctUmOzYkQRc+9oEsklc24Q5mF/6iJwthzly4toEZbfrsICEU7/tGnHsp0xbA6WJmR4WEAgaNwZRlIC1oS67FVYgLFoshFJceeWVo1+nsH4UFvEjsnKIlF9d1oe1ffv20a9m1L3OiZjwXRotWGihcFDwcblBesDaFVi2uXBKGGdtrmC2oT7mHGULSzF3zGLLqVxuiEFGRQ7KXokICsTUl3UMA8RUa4eNO0Qwkx8RYA3SBeemIGxtImvFsw8Ip4f4vbOLF46DX0K4DxRGCocKs29YgmDSYBQ0CWATlE8rvt4h0pMEAc0ZEogpQo22jLuM/Ex/oUX3GuFESJoeaklYvPXGOQgnVqhg6MFiLVVLnSU4CXTTZcF2hW4OdOlWwTiFiQZh3MIYzDY8WadrbrErusqpfE4KhLDrEufe0rVCy9AXuuCvpSszJ66IHWOXXaH146GThaWy2W/HTrn5Vji9Hw1L+LBKhygEwklcOQHlptOlsl+f4I9CVEJOnEsaA4YaeDLbBzteFaw9KGs8ZPW9rtywQNNwVx8QwpKHToK0WkPAp5nXCoEHyOMwk2OuWJca67QPpJpgKIEn9zoPd911173s4RV+du7cueQn94CLbQqJDevaa68dHZ0MjP8w1qvWnq9VSgsQ4sy51mooGRZAlP24qR0PYxwMkda2hYo17hr+wexC+aROIEw8ROqKLVc5Zw0NC8e6Dnkhmnz2KuwQAeFhuXIt7O87zAHxEYGBJ/4I7qTGTmeRpjcC6qCbFx8RrF0QJMRIYBnWiaGw/mnAEbemMkeY/oX+krKae1tA+xBOjALmK+D9WtJs0wWUbYTf7/fM9RdaWI85sOBK5yMIce0nlH0EOQjmibl4FauO3NN7XKmwBosgkDwcQDBLwB/+Q1iDYDlzI67B5GBst9RyxV+XhwlBsFYIcTVg5a7lIYEgCCZHiGsQBMEAhLgGQRAMQIhrEATBAIS4BkEQDECIaxAEwQCEuAZBEAxAiGsQBMEAhLgGQTA4zA0wziQos0iI6ypDgSudSjBopvSTXU+fip+Li/vYda5S4iX+eUdzp5bkT10+kud1eYV/e0/sbG451/U+9SFmxVplqFxN61aNC4Wsbm0tChkw44/mCJiFT1lJK9MfdqFtViPuQ9uyzxbS4POUvGZ2J+bEZUq7kvkWcuG0gTDY+XmZnMjeNwQoNysVU/MpTW1hCK6J+VLtuW2Ql00rvXqYlcrmgfLRx8d1NS11reu295oybtPOdt21jsNczorVZdE/0eecoRhSXKlAdTNcES9ztyJSKoxUdKZeKxWYaaNEqLyotGErInmmit0krlRk/FqBHVdwhNKvVUwlKFZAciJjKQlDosr10zh3mfWMax2nobL5KAOgDl1DEzbv2xrZvoS4jlgr4kqhzVUKCq8qDJVMBa5JjKeNtkpnqauAdSJQJ9LWcmoT1xLwD0zKXGeNeYjX9zB0P5WeNnEtCcNSV47q6Jqv2m9FUNhr4J43XZN6MzQITNxOHtRhl6GfBDMvrnbOVlYfYAkWWldBxmvVAOZmtceYfhD8fp3jl8aGnAj7NGzbtq26iU0tqLWWvEUicQWfLmELDvgCRsWggmIpEY8m/2V2eF+YbcVTumx4FOASa2Be8BWe+9HUpSfPEFDyVhMsN+HvlbBC3RanJXd/dE+1v01cS8KwkEdd5+u1Zb6JXBc9F58VbDVKOYOEc7kvYIcQ7Pk27ydFTlw3Vn9nAETtjjvuWBI/1qxC9HICyL5bbrllaekX/CKe+Kk7p4RcGm688cbqdx0UBETTFnz22YLBcQqZKgOFn8LAzcev7aqz3wsCaHkWhcF5uQUDEQXbgHho0VkGI1dwpwnyqBTb3SXv/HitD6vJerIVnntij3FvSnohVni4xxJY1nJqOpeyAyoLwm8Le13Kg65hjIMXTl9uyQe/fhX7uD/0oJTX5A2Nj9JIfck1HJR5LHL8cZ3cR3sv7W+7pPxQzITlyqKEdWtllQglBZkFBWW95s5ps1yb0tAEBdxWbg8FB2wrSiGp66KpYtrChX9f4HIV3e+rC6tLN3W1yDUwuX1cT5eueil18dOg1eUdFR7r0HZJKR/qzeg+5qxHyN0vQTht56lsdw2D61opy5W4AJEU5ImFNILtmREfDxKVr+T1aluuM/EqFmJGYUDcSldZRRixNHF+pdY+9EmDrIS2QqlhAYEYWKh0FHxcXYH1LTGWrA2Hwse+JssIOMcvUjiPUImVp3WuDiqqt3651whrXd4Rnxbxs5WabQkE94Zt/KnRtfhyUQrlDxHDGuwbRg6fhyrvQr0xORoRu20NGaCck4cIK+mkkVee4CjjnINAalhGcG1YpqRDeadtHL9p2PjN/5VgZt5zZVwUy5MbgGA2CRzHsTi11Atd+UnQJQ3guzx9oDBgxdYVyFIofAiCChtOQs1vrmmW8NeCy+3zVo9FeZpzCEEOBIUuqj+uFUWx8GjIPAgooiEBkoWm/4Jz8ddkVXkR03bOahVeVPuE4eGabJ51OTeH7zHpN3nCvdS4NOKp7r9QWqgfMlYQY6WN31i8/JblOzQz9xEBXXS65mQ2XXWPBKPreCrs2rVr9GsRlvDO0ZYGoQLtC3IpqqSybLrgx1t9RcBJqPkti5YGITdWO214K6jJ1fUcJMA55y1TQAixlnx43F8aQPbj6J7mQDy8AHFfiE/3mvPxlysznMt1+0YbYa9rDARp4r6OE0ZXaNh8ntpt3wvzDQp5gD/SrvuIsDaNa2NEtPXOVoqZEFcEjG5+ju3bty+zTui2gxU9PyzgzwFWff3oRz862jq1jrqoS8OhQ4cqf3WVgRbTdkPwV2ol5sS5bljAQwGsq+RNULH9MMW0QX7YMbm+eBG2Lic0CKEXR+D+2i4qFpa/x2yzPwfxIRwILP4QGcYEc2AZ2zJAXlCW2S8QIIk1ECbdYsYcoSSMceF6cnnq9zUJIXmNH4ku9YxhF193BdfcVi7IC+6XyjjXTrjKL7vtj3VlZsZcsSI1hmofLGF9Mbajbjr7brrppsqP/PthAX8OsHaW9uFuvfXWKhxRl4bLLrts5CMPBYNwuUk4xopKW1YKF+dqrAhXOiyAMPcZO6US8o7gNIOVNYk0Kk9zLme55sCa5Z5Y0UVYgMopZNk2QWOoBpXKb88XhGHLE2WD+G3YlDkZBzjECJFSGkvCQIR0nLyw4a005DHxcg3qgbHtRQ+rFZRGawnzm+un7rWJ+qSIz1/nGAol1khbpRYUVgpon2GIlQTLzFacPpA3TddZchwrCTGsy1/82NfoLFwDDZkFy27a834c2vJUIOzkK0MXNAx1b0HY8CS+gmNtDWRduH2Yyy+0gnq6iiUFsosYB0GwyMy+ihX0A5HEukI028APfkNYg2AyhLjOOYwtlViu+FmJcaggWCuEuAZBEAxAiGsQBMEAhLgGQRAMQIhrEATBAIS4BkEQDECIaxAEwQCEuAZBEAxAiGsQBMEAhLgGQRAMwMzMLfCpT32q89Rfv/3bvz36tZyPf/zj6dd//denat5SZrD65Cc/OdpaDp+k/tIv/dJoa9EvE1r8wi/8wmhPEASryVxO3ILoWuFpoknA4MMf/nA1tWAJzO/6R3/0R40ifdttt6Wvf/3ro61ULOicx5Rw1i/x7du3L73zne9sFVfOhxDfIFgZZl5cv/rVr6a//Mu/HG3V8/a3v/1lwoK1CjlrlnCffvrpYjGSSNdZxkCY559//pJYK+1N5wjE0aeli7gCYVx44YWV/yAIhiUnrhuu+ZV//jvVrwWeP3goPbJ7X/X7Z67ali49/4zq97TwxBNPVGLxgQ98IP3UT/1U5R566KH0m7/5m0vbb37zm6vhA1YbAETmT/7kTypR4zgie/rpp6fXvOY11XG2EcCf/umfrrZLILz3ve99jVYo4dvjbN95550v2+9BOJmoG79ySiurHvCb//Yac1xwwQXpj//4j6trDoJgWP7im7vTnhcOp40bNqQrX3txtW/NWK4WG06JJWmR+JUORVhKxnr9kABpZdUD4u1iuQJhXXHFFcVDHUEQ9GMu5nNlXBRBlONhj91GvHIgSIgb7rvf/e6Sf8Zs7XpbbbC0yxvf+MbRVjkIHaLfZrXu2bNnmR+GK5rOaYJhgfvuu2+0FQTBSjL3r2Ihnggq1qYEVVan3kDgwZSEF9cEwsxYagmKG4fQtVmajONee+21y9KA2PaFdI5zfhAE/VmTwwJYiAiZ76Lbh0Z1IJgIYFdrUmmveyPBduGVPvwqPV0faAH++g5hBEFQzkf+8O70Xf+2wL/8uyMnj52ofqfd+59Ln/vad6vfH7/2Delnr9pW/Z5m/BhlExItyIkcwtkmRH3FFRDY0rcSfAMQ4hoE08s/+1dfT99/6kB6xRmnpff/xOIS5evP2Fj9rzhjy+bRr4WKefDI6Nf0gFj4brsfo8yBAHOeHRpgLBKxA4VbKkL4HxrGdn/u536ul4iLlUhnEAQpvXjkWPX/dKOh68/YvG70c/mBp547PPo1PSA0CCNCiMOKfO973zs6Wg8Wnh1rBVl9VnRL2LZtW2VBtkHaLFieDAvQ9W+DxgAL1w5PYGU3DVfkIJ2ktw41KqTN/vbHgiBo5vlDi+K69TQjrueedkpcN23ckM57xdbq99cfebb6P43ojQD7MApBKgWLlXMQO8Lq0m1GHHmo1YYeTMmRTgS86bUoCVrJw68SEOgSMQ+CoD8PPn0wvfDSorheeO5Z1X9Y972nj5/83A+OjzZT+vYDj6ZvP/h4Wr+guX/x37w7XfCKU0q8mmAJam4B/609YGEhYBZZowiWhe52VyvQMs64ax00DgxxNAk9fvQ5bds1INSM2ZZa5EEQ9ONTX3wk/cGdD1e///F73562nr6l+r3upWMnT/4fdx9NJ0fvDDz7wovpti9/s/r9/re+Ov2PO+q/AlqrIORf+MIXOlm8Kw1CHJ+/BsGwPHfoaPrg/3pXZblecM6Z6efe+ebRkZTWb9mwYAmedWpo4JxXnJEu2bZokd32rd3pB3tfrH4Hp6Brz4cEflx1WpAVHMIaBMNyy5ceXRoSePPrLqn+i3UnF3jomRPpjgdODQ08d/BQuv1L30wnFszZS847PX3ql96WXnGaea0gCIJgjfPX9z6dbvh39yY6/a86/+z0D//eqS83t24afaH12nPXp1duPWW9nr319PTm119a/X5s/6H0O7fel47oZdggCII1zq7dB9L/dPuuSlg3b9yQ3nnl6xYPjHjXazYsiiuy+p5LNlT/xVWvvTi99tUXVL+/9MC+9J9/6hvpiWdeqraDIAjWKsyAxRdZBw4fS+vXrUs/8ZYfrT4eEBecsS5dccH6xWGB0b505yPH0z17TlmoDAt88Zv3p8f2LL6MztDAf/qeS9N177g4bdkYK8QEQbB2eGTfi+lf/s0P0p337a0sVoT13W96/ZIRChsWLNR/8oaNadvWdcvF9fjCr//nvmNp94GlXVUgd9//cLr34R8u7ljggjM3p59+w4Xpp664IF150VnptE0htEEQzB97XziSvvrQ/vT5+/emLz+wPx0/saiNWzZtTD/11iuWvdcK/+C1G9IbFqxWWCau8OLRlP7N946m590HWj/c+2z6xoLIPnvg5W8P8E4sKh4EQTAPIIonFoR0mTgusG5B51538YXpLZdfuuyLVnj7q9end79mw2grI65w4MjJ6u2BPQeXH2Lr0d370sO7n05PLojtsePxkCsIgvnnzDNOq15RRVjPOXPxK1aBWYmw8hDLkhVX4OWAzz98PN23Ly+gCOtT+5+rloY5eOjwgv8Q2iAI5gcs09M3b0oXnPuKpWkBPDx6uvpHNqYfPd/33FP6/wFhvMqWQG0ZcAAAAABJRU5ErkJggg==;" parent="1" vertex="1">
          <mxGeometry x="-2151" y="680" width="232.13" height="335" as="geometry" />
        </mxCell>
        <mxCell id="eZEC4rLQqNwzlbt_iTYG-36" value="" style="shape=image;verticalLabelPosition=bottom;labelBackgroundColor=default;verticalAlign=top;aspect=fixed;imageAspect=0;image=data:image/png,iVBORw0KGgoAAAANSUhEUgAAAQEAAAEGCAYAAABl6SBFAAAAAXNSR0IArs4c6QAAAARnQU1BAACxjwv8YQUAAAAJcEhZcwAAEnQAABJ0Ad5mH3gAACcNSURBVHhe7Z17kB3VfeePXqPH6DnSSKAXYAnZCGSM1tgYr9fxKwmQ2M7asZ2qpEhShb275V3wbnmzf5Da2o2qsrtsjPxPdrFTicnLDk5skRjYuGIwEIODA0LIRkgIJEZI6DGSZiSNHjOamb2fnv5JZ8509+37mrn39vdT1XW7T3efPvfe/n3P75zu8zvTRks4IURhmR5/CiEKikRAiIIjERCi4EgEhCg4EgEhCo5EQIiCIxEQouBIBIQoOBIBIQqORECIgiMREKLg1Dx24OLIqDtxZtAdOXXBHR8YdMOlbSHE5DF/9ky3fOFst3zBbNc5e0acmp+qRKD/3JD7wcvH3A9397oX9vdFQiCEmHpWLp7jPvj2Ze7D13W7TasXxqnZVCQCp89fdH/6TI/79k8OuvNDI3GqEKIZuX7VQvfFj7zN3bR2UZySTG4R2P5Gn/vdbbtc7+nBOEUI0exMKy2fvnmVu/tj69zM6WxNJJcI/PU/H3Jbv79Xbr8QLcq7St7A73/qerekc1accpmyIvCd5w+5//XYq/GWEKJVWb+80339t25yc2eN7zzMfET4Yk+/+8rf7423hBCtzN6jA27L3+12Ya2fKgJnB4fdvd99WU0AIdoInup9p9S890kVgb949oA6AYVoQ/7o6f1RJW8kikDf2SH3lz9+M94SQrQTJweG3EPPHYy3UkTgiVd63bmhy0ohhGgvHnnpcLyWIgJP7u6N14QQ7ciBE+fca8cGovUJIjA0POqe338y3hJCtCv/9NqYnU8Qgd7TFyIhEO3JZ9+zyv2X2ze41V1z4xRRVA71nYs+J4rAGT0RaGeuWdbpPrn5SrdmiUSg6ByLn/5NEAFGCIrGYrVxu1Pr9yzK7zRVmK1PEIGRykcWiwr50s+vd+uWd8Zb7Uut37Mov9NUYe8BThAB0Vj8tjjrzdI2r3dZav2etZ4v8jNhANFTe3rdf37oZ/GWqCe4trTHQz79h8+5X79lTbTvS9/c6e7/tU1R+rYX3nL/49E97n3rui6l+dz//b3ur7yXPiDp2J1vnnJ3fWN7tG5l4DrPvnZiXJpdrxwY5H/9+DvGBa1IukYI35O+iHLfJev8N0+MdWaJ2nnnmkXua3e+SyIwmWA8ZgQYzR8//UaUjjHajU/6a0cHLr2rwT4Mm2gxf/7jA5ERkM9f/7v3RPtv2fJk9Am+AGDkB06OGcz713dNMDATAdrduN15BQC+/ps3RQJgedj3MlHJ+p55vkvW+aJ+mAioOTCJcNP7NzLr4Y2NAGCM/j4+SbNakE+MFjAq47c/cFX0acbJcSyht2BwLgKAoeUVADAPwMoXfq9wm3Xb5rPcd8k6X9QfiUCTkfa2JrUjRkJNTk0cusvsxzgx6DwGs3bpZbfc3Pi8cA2gHL4I5aXcdxGTi0SgBcBlx2XGaOktx1uw2rNa8ACgmnwQDc5DdCjTj+/9YG4xaMR3EbUhEWhyqDXNZafNjAHiTu/rHXvvu1poMpAntTCGWSmUgfLQoQcYNWXNolHfRdSGRKDJoYMMqDF9Prpxebw2Bu1ojIvaOW+tbM0ADLMatx7obzAhsLKmkfe7iMlFIjBFYKzUwBhfVg1qPfzU2Has9c6HWC86tTLtbY7nGqynwWM3yFOTG9YXwPF8WtPCyurjf097DJXnuxh5fydRPRKBKQBXPPosGQ/GlwU1vO9y056mJrU0HzoELW8MjePNQNMgfzuHvPMYGoZpZbHykwd5+YTf882SSOT9LlDJ7ySqR+8JCFFQ9J6AECJCnoCYQFYfAj35aS8fidZCrw0LUXDUHBBCREgEhCg4EgEhCo5EQIiCIxEQouBIBIQoOBKBJifrmX0e1nV3ut9435p4Kz9J182bV7ljbr5mSbSI5kAi0OYw1dSxM4ORAecFA/3BrmPx1mXI65m9J8oa+fdeOlyV8IipQS8LNQG/uGmFe9eaRfFWZfhhwarxGr79k4OX5qQzyMfyXdI5y33hg9dE61n45QBE59or5rv/t/NInHIZ8wJ+sk/T3U0lemOwRfANMi8Y7i+98wr3Z88eiFMuU84AEaRXD5+JhIFjl87vuGTIGHZXaTuv8XL+iZIXEoqMRKA50BuDbQzzz+OSY9A+GDFGnWZ81mQwo/3Idd3un14fi1eIsNy6vuvSueRtxpwGx4YCIJoPeQJNAm3oVWUi84T4HkI15xuWD0aN4RsvHuiPvIA0zyKppvfLQb9CkuDIE2gO1BwQmfjNkHJ9DQ88uS/yPnx8Q8/bV1Fps0fUhkSgyaimc7BRRlNpTU3tn+QlgDyB5kUi0GT4HXI+aR2DSYYHGJjv0qdhrn5IVqci16SvgVq/nCFLBJofdQy2MbTFEY60hceCabz3bV2RoQNGbwZrhG6/aH3kCTQJ9WoO1OIJ8HSAJwBpHXu+VyJPoPVRc6DJ8F3tWshjYGkv8pgQJYlLeE4lIhA2dSQCzYGaA00Gte9Uu9oYuC8AGCsGDHgIGHISCBh9CUngPRxPeGFINA/yBJoAatlK3sTLAsOtpWMQMGpEyY5h+5WSAPjl82vzJC+G7/SrN69KbbKAPIGpRc2BJiLtCUA15DGwtOaAGb//3J80Bg2FNbkZORw8eS7xaUIaEoHmQCIgRMFRn4AQIkIiIETBkQgIUXAkAkIUHImAEAVHIiBEwZEICFFwJAJCFByJgBAFRyIgRMGRCAhRcDLHDvBucff8jmiY6Oo40IQQovW4cHHE7YmHgj/96nE3WNrONYDof3/2Bvcvr10arQsh2oPb73/WnRgY1AAiIcQYkyICx1//B7fjoc+OW97a+c14rxBiKmm4CBzb8z13Zv9DbnnXkXHL0LHH3Fs7/jw+SggxVTRUBPAAzr75t27u9NfclWu7xi0LZh925w9/zx195WE3cvF8fEY2X/jCF9z73//+eCsZjmHJy8MPP+x++tOfxlvJPP3009FxlVLteUJMJg0RgZGLF9zpwy+5Yzv/r+uc9bpbvnKRGxkZdkPnzkTLyPBFt6R7vlu6pM8dffF+d+rgc+7ihdPx2UIIgwqKysRg+2tf+9qEpVxFlkVDRODC6UPupb/5dbfyyjNu2YqFUdrwhXOu781XXN+BXW5woM/xUGLh4nluw/UL3e7H/m1JNF6MjsvigQcecD/60Y/ircnjAx/4gPvEJz4Rb+Wn0vP4I+U5iHJcd9117vOf//y45ZlnnonEoBompWMQZs6e55as3eimz+pwA8fedOdOJke6FUJUDkKwYsWKcV5DXiZNBKZNn+5mdMx187uvioRgZLjyGPtf/epXx7X39+7d66ZNm3ZpCfsLTp06Fakjn+UI3Syf0CWDAwcOjDue/bYY4Xmsk+Zfy2p+PlHzI0eOXMpPiErYvHmz27VrV7yVn0kTAcBQZ89f7OYuXuE65o01E6rlsccec9dee6179dVXo6YFy2c+85nIgCoF4wNzrXC3stxyBIDrf+5zn7t0zpIlS3L9AeG1MHoMnmbDrbfeGqk56TQlhKiENWvWRJ95Kj2fSRUBY87Cpa6jc5EbGrzoTvUPuYUr3+NmzR2LRZ+XLVu2uK1bt7r169fHKc7dfffdkQEZCxcujLb5zAKjv+GGG+KtsbY8xpn2Y77wwguRwfr5cj75lCO8FvmcOHEi3hJi8qm7CPBkYOj8Cdcxe2ZpY9iNlpYkhi+OuP6+IXegp8Ot/9gfuPnLLxtGHqhR77jjjnirNqjFQ6iR+/v7463xIBBr166NtyojvNaiRZVNQipEGpV6AEbdReBkzz+6/Y//R/fOm1e54YFD7sKZ5Flmjhzsc8dOXOFu+JU/cTPnLI5T80FfQKPB0JOo9ocWotFQaVF5lfN8Q+oqAkde/hvX/+ofuzVXzXDnju9zwxcGSp7AiDtx9LT76T+/MW4Z6nivW3PLfyo1A7rctGmVFcOaAPQHhNDpViknT44XKjP0pFrafuAkL0FuvZhK6Kdat25dvJWfuokAAjB45DHXOWO/mzl60g2d7XezF3SVDGrEnRlc6xZv+Dfjl/WfqrgJ4EN/wO233z7OK+DJgXW8AcZMR2G52psOPTr7jCeeeCJqu6cpKu14fnA/Xzr30ryHvCA6teYhiofd52F/U15qFgH6AI6//gM3cOA7rmN4l+ucc95dOH3Cdcxf4i6MLHDn3QbXseI2t/rdd41bFq16T5xDddAJiBDwhMAeEW7cuHFcx2BeMGo6+/ghWbq6ujJ75/mhOedb3/rWpXOuvvrqXB2DWdC7iztHfnpEKNKg0rL7joX7kCdV1T5RqimewPDQWTfQuyvqA6AJgAeAAMyYPd/NXnKVe2Ofc8s2fdF1b7g9PqO9wXDp+KtGjYWYLOoaT+D0W9vd7kfucm+/YaGbNnjUne/vdbPmLYoEYMeP97uVt/w3t2z9L8RHtz8otHr7RatRtQgw+u/YS/eXBGCpO9v7urt4/oybs6jbDU1bEnkAGz/xoJvfvdFNmz4jPqN9sLf+fHi5CFfeXtgQolWoWgQ6l25wc7tvdr1HzrhZnUtc57LV7uyFOW5g6JqoCbDwys1uRkdnfHR7gbvPEwW/XUY/QjWDjISYaqoXge7rXNe1n3KjC37OnRrodH2nZroL069zs6/8pagPoB09AB86YeiEtEWv+YpWpaY+gXld691Vt/6O6xu42h09scLNWflxd8X1n473CiFagZpEAHjbb+PHH3A3fuav3PJ3yB0WotWoWQSEEK2NRECIgiMREKLgSASEKDgSASEKjkQggJGIxDKsFM4rNycCcJwfJzEL3kLMMzSaMQtZ4dCSqOYckU61vyUjAMsNFsv7X3FcubySkAgIUQEYo/+mqC0MAU9KZ8nChquXG+7eSFpqVmJq6Iceeqihcw9QSzMkmaHKjcC8AOZQKAc3HEEimmVUIl7Ja6+9ptejE+C/Kve7WIDavDBcvZL/3ryAcm+vhqMIJ0UERkZG3Llz5y5F8GGk3bx589yMGZW9WiwRmFokAmOUq919GOefFJwGg73xxhsn7MsjJmk0rQggAAMDA+7QoUNu9+7dbvr06e6aa65xq1atisSAYCB5oL3tRw3ifX0MCWF4+eWX3Sc/+cko0hDqCf6xwVeMQJE5HjjHhCUUASIXEbjEPyYJK4dv3HauQR5m0ByHC2gBIZJuFBMBCL+7D8aJwNqfH9Y4frATOyY8hxvIgqDatRgVaTckZfGjHpFnuZtNZBMaPP8BwWnCkajhfwV27xj8Vwxig3L/SygCM+P0hoEH8MYbb7j9+/e7lStXRmncpKRzI3V25htpiAGmeQL8SICxcwxRiC0OIUaNgPjncMw999wTxSjkOIyVtLD2NyN+9NFH3W233Ran5sNExq4Bdt3QiLPAIBEPO4cbJau28OdEMGHh9yGfcpGPwmtR43E9biquRz7yBCrzBLhvzKhDIYUwr3DuiqR7pZb/OBE8AZ8ndx8bfe/v/TBant7TG6dWx5kzZ0a3b98++vjjj48+99xzoyWjipbnn39+9IknnojSOGZ4eDg+I5utW7eOlm7SeGsM0hK+xiVKBjxhP9ukJ1H60aM8S8abeVwI53CuQTlJC+EY/7gstm3bNvrUU0/FW5cpeRGj/f398dbo6M6dOy8dxzlsh7Dfz8s/B8L9wDHkZ4TbRSXpN0hK4/fq6emJt6on/K/y/sdp3PaVZyL7vusb26PthjwdoAlw9uzZqCbFbaG2X7x4sZs1a1a0oF7z58+PjsGFLgmBKwlBfHblhGpJjWtxB83lNygTZNXslKlaD8BAlesxL4LmRGg/8AjwALKWLGr5j5NoiAgMDQ25ffv2RSG458yZEwnA7Nmz473OdXR0RDcYQtDX1xc1F86fPx/vrQ0MnyZDSeCiBUP2SQpTHmLNiz179kSflWJC0yhCl9KYysdMRYLfPzTapDQqgjSouNIWRD6NRvzHDRGBwcHByBAwfIwdIQhhHx7BggULov4COg9rxTrDsjrwrKMuy1CZ0xABof1uvfmVUM95EeyJimE3QVItbe1DzYnQWDDSJONNWtLCzYWC4S9pIg+N+I8bIgLUxv7jPwwqxE/L+4Rgw4YNmeqaZOBhcwAD5c/xe+05niZECGXEaPO8CRiytU7zIjTLnAiA8NQjn1aG37WaCT5CQrHwlyxPAOr9HzdEBKj5b7rppqh2P3r0aNT2D8H9P3bsmDt+/LjbtGlTrvYn7XN+AEQjqYbGwDE+DJxjWMLmAPB4juPsmDvvvDP1vQDzKjjOPI08kF9YlmrmReD7NsOcCKB5EZzr6empS3vc/pukpZwxJ/3H9OdU+x835D0BsqRf4ODBg9HC9rJlyy49DkQUcF1oNqxevTp6Z4DmAe8QiMaA0WpOhNqxR6a1kPWIF8rtr5W6zjuQBrUenX+8F3DFFVdExt3b2xsZP94BAsDTAPYhAngOrSAAVqOHSzXNhclGcyLUh1oFAMoZ+GS/h9FQy6N2x4XE2C9evBgJAe4/XkJ3d3fkpiIAGFIrgEeTtGR1RE429GGEnY/ULLjxaZ1Uotg0vPpFCKjtaa/To3n69Olo2wRA1BfcfZ4o+G1MzYkgspi0UYS4/3gDMHPmzMj9bxUPQIh2YlL6BJLgkSFeAQvrEgAhmoPm740TQjQUiYAQBUciIETBkQgIUXAkAkIUHImAEAVHIiBEwZEIiIpgAE2lMRFEcyMREE0FAsNYBx/SeP3Zj6vgQ7r/mrSJFPlIsMrTFiJAQJBKR/JVck41+YvKwZj9aMZm/JAWaMOPvEusBj4J3EI6+ZBfVtAWIU9ANBEET9m8eXO8NTYYCsPOioHAOQTYsEhLfLJNOpAf0ZhEOi0nAjaGn4XQXdTQxAJE/UnzIw6xzz/eyDonJOlYPpPCkVEj2XU4j2NYSLMlifAYC0lGDUZNmFaT+a6vj7nHgEvMui0hnE87387heFu37SSslrbFp5pr2nesdLgzUXjCSD9sk06e5GfrIpmWEgEMhHBhNo7/vvvui8byE8YL9SfNZgDCsB588MFLx1KjYJiQdk4SSceyTUTjkG3btkX7DMQDkspgUM4wOrIf/zALyoS7G2K1I8b2oQ99KLouC+GnkoyaIC8Ee+UY4uf57jXnh0JjcRItX8CooZpr4rYTtstm0MmLGXYYbzHcpgzkL5JpGRGw2tE3kCzjJcafRf0Fpimzm7dWyJu8/JiDlI9azZ9rgBvcj11IeTnPDz6KUCBWhsVRJG9uZvIIb2oDN5lajhrVwDBIYx+Lfy4xHNgXQppFzKF8lMHO4zN0xzEqP43yWqTbaq4JxEBImmMhi7S5F0LIN4zaLC7TMiLgRwnOct99fDc7jDpcK5SFmt945JFHojRfeAgsGoLBWChyX9isnCwYYt45DzBIalRjx44dUZrhu+2+aPnY8Xld8nKTlFRyTQMRqTT8Wd7jOc5ESkykpZoD1KS4zNxkGEuWGLA/axKSWvnyl78c3eQGNTpp5UjyRqyM/pIW/TiEmW2JH2gGzDppQPloLiBOLOVmU8pbs2ZR6TXrQdjeT2smiGRarmMQaKdTm3LD+a61YbVPI2P/UeNTq+NtcD3WfS8AmM7MJ6lJA2m1ZR640Xl8RpsXcaSGJc2aCJWEFbOaNTSqvFRzTaPS/gCw7x6KF7+F/0iR/dXkXxRaqk8Ag0sinJTEjMwXiLA5UG4iE5+0Y++9997I29iyZUu0HhK6w8xv4DcZrIkTls08HIyRPMoZJY/BqH1ZaINDkkGXExuMChHxp7zmfMQlD9Vc06CJ4Tdr8sJ396/Btfmv/EeN1fQ3NCN8N+4HE1t/O9xXCS3VJ0DNau1mDB1vgPRwUhLS6KX329phcyA8J4u0Y0k3cUhyeykDAmFloNMs7MxkGyGwY1joxKwEvw1v6xg0ZfYnqEgqYwiddZxn5/CMPewYTKPaa0JSu93vW6AjEWO3bYPv65eXa3NN/zehiVTPCTzbjUkLNNqu8MiPuQvDNnxaukiHR4nU4OU6JiuBmpFHptU0UdqVKQs02uz4NbG/hM/1faiZ8ARk6PUBAbA3/eoF+flNAzERiUCM3zPvL1mdi7j6/stBojbwAHhZKenlomogH/Krp2fRjkgEqgDvAC9B7n79of+hXq47+eTtzygyEoEqwDvAS8gSAI6RQIhWQCIgRMGRCAhRcCQCQhQciYAQBUciIETBkQgIUXAkAkIUHImAKCQMTgpHRzLOIO+IyXZCItDiENuvXq/ZFgmGXYdvE9rrxWnDcUm3WIpJsM8fRm344mL/Fcf5cRmzxMeGCZdb0spdDo0ibHG4kRiCq1Fy+cFYCDRiIoBhJsVBNBjqbXAucQ/8+IgG/wVRnRhSHYKRM1zaBjT5IxuzzgNEgLBxSdc0LP884yTCUYRtIQIWsbeSSELVnNMOcLNQCxZZNDB6+/7+el5DShOCNGOmlk4DgUna7wtPo0VAzQFRKDAWRhbaug0zxtCIQGRGlNXE4pgsgwzBoAl0wkLYM7ZtQVAIimLbtn8yaTkR8Mf6Ez6MEX1pE4nYaD9bjKxzkmA/ngOL5RXGGWA7DKXF8f5xSfnYtZPytrYgn2lwI1vbkk+2Wayd6N/MrPOdcX3ZZ+cVCQyd34Dvj0eEQfP7EkHJN2zmTgh/n6TfNA/kj+dgAmP/K/8TzYI8Ix2JjmTXT1r4TtXSUiKAgUz25CNGOJEIP3o58UgizIc/0MplaUD5q8FuBqtZMHi7mXF7+c5W21RSm7ULfGe+O7+DeQEIgAmjLYQpw/D8zjb7TQ1+V/8cjvdDq7EkCQzNBcuHMpiocGxaQFRiP9r1kxa+T7W0jAgkRerNMl6G8VpAT6h18hF+aH9oMCKCkldKmA/b4KcRp4D+CrtZ0jqMkuBm8WsWbg7F3B8Pxua7/ogjv3PSkhXpyATFFn57m7nJFv4763PgutYUAf4nKwPQWTkVAVFbRgQsMi8ikLcG9l3sWicfCScSIQJxNYT5sJ3HHcxLuYlBxNgELRgwtXzYXDJs3Qy4FswrwEuwpogtgDBYZ2NaQFQ1B2Ko+XGXqYEx7CwxYH8jJx8RrQn3Dp4RhuM/pmskVF54ZHQMss4n26wDhm8eR5rXp+ZAAG36qZ58JIlw6rBw8hEx9dAMoN2N4fgCkNUeT4Pa2+8zSIO8qanNKws7A83wbc6Iyaal+gTSOssaPflIHmjHW6cfWIz8WuDmIQ8+6wU3YtaLMe0OzQDrpLPfF5i1KMkI8RySfn86Bf0e/3IgOnQQJt0T5EUHIfdMPf/rvLRUn8BUTT6SBzr2LD+WcJryZoGblqcD3IzhI7CiYMZPGx3jxND9jkIf0pNAMPwe/yyspkd8uUd4/GjiTt8DeXFtOhUpU5IQNLJPQK8Ni0IRdviZEIYGzXHmMSEUeSCvrDcGw3y4BoKQdLx/LKKg14YnAWrvJFDuor1aLNobvTacAlqYtEgARLsjERCi4EgEhCg4EgEhCo5EQIiCIxEQouBIBIQoOBIBIQqORECIgiMREKLgSASaAAYw+bEImwXehbd37UX7IhEQouBIBMpADIN61tJJ+RExaarHKDAKLaz1GbU2GZF30kgqk6g/EgEhCk7LDSUm+opFCfKH+VLDEnSEqMLst32k+xF/LBCJDzWzH5TBfpIwnTHefkjzcvmGpOVnZWed/gELRmr5+8dZWtIQ56wyMSadgBUErgjHr/tj54F4dngBFmzDxrHTR2CBTO17+MdaGkFLfA/C3wdJZbAx98B+CwNu2HUgLK8/9r7aMpKnRQL2y+rn3S6EQ4m54cfx5O5jo+/9vR9Gy9N7euPU5mDr1q1Y52jp5o62+SQN+CwZxmjpT4u2wdKMRx99NDrfh2MsP+B8/5wwD8iTbxpp+Vm5+SQv0gy2OcdPC7fDfMMy9ff3j5aEJPpMYufOnaPbtm2Lt8Yg7amnnoq3RqN18iDdYJvz/DR/O8y3p6cnOseHbdINu2Z4LpDmfweO9Y+ppozAdnhemHe7cNtXnons+65vbI+2W6o5QC1HmDCr3fj04/Wj4KU/Mt4aO54JSAwLKebPFMT5fg2eZ36CPPnWArVP3rkJjHJlouYln7AGrhRqVT9IJtvgp1GjMrsP8FsSPcew8GYWoNNCafmh0a3GT4Lr+N+B0Fy+VwCVltEIz6Mc5J0U7qudaBkRsKCh3NxpmLGAP1mJxf1j4aYMowLjRtv+cvMTVJJvtVQ6N8FklMkI5zVgOy1KrxlPOCsPhsVEG4BBY3wcY6G+yoFbb3klCW8lZfQJzwMEy8rarrSMCNC+rYaStzNh8WtUjKWa+Qn8/Gzx850KmrFMgDiHS1jjkmbzAWSJAfupwS2frEqhHoReRjvSMiJALQd+GPE8ZLnotq+ax3P1cv3rSTOWCfLE5gc66ugUJLJukgtu+TTqsWUYWTipqdKOtIwI0G5H+U0MAEHAlU/Cjg/dez+8eJKwlJufIE++WdR7vgPIUyZuaGrRtPZtI+YjMFc/FCe/pqc8uPdJhGUyY/S/Qz2FL5yAlCcUlL/WfpR6Yf+h359i2+G+SmipjkE6/bZu3XqpzXvnnXdmurscj3HY8Sx0/BkYD/n5bemwOWAdbOwzoyqXbxZJ+dWDWsoEjZqPAFcfQyJfW/xJPjAwamDb5z/GDMtEGr+d38dQz+YAeTM7kOVNP0JWJ2W7oJDjQpSw9wSyOmDbBYUcnwT82thf6vn6sRD1QiLQAPzeeX+Z6vEBQiQhERCi4EgEhCjBY8ci9AckIREQouBIBIQoOBIBIQqORECIgiMREKLgSASEKDgSASEKjkRAiIIjEfBgVF89R/bVA8rTjGMOGNWncODtgURAiIIjEagRgprUq6ZOyos4AVM98IigH2Gtzzj7RkX4yUNSmUR1SASEKDgtFVSEWvLee+8dF02G2pNAodSW7CcUN/iTcARfMYKQYn6oMqLK2AASal+DPP1wYH5e4T4i+3AuZfKv708CkkZWXjYxCdBHUM3kJFllIjTVVE1MAv5+CMtBlB+jlolJoJpykmc7TUzS0pOPlG7saFINH3/SDT5L33HcpBylP2rcpBxgE3P4k45wDmkcb5CWNTEJ+NeHcNuulYfwXCDNLxPr4Xdkm/P8NH87zDcs01RNTAJh3uHkJKzXa2ISqKacrIfnJOXdKrT05CN5KBnJuLiDpT8vUm8/mOiWLVui2IJ+7cw5nOtDmn9MM0xMAuF3tHL7af7kJOXKRK1LHqEXUCnUqP5wXLbBTwsn/eD3TJucxAKK1nNiEqimnOE5lIO8rYytTNuJQDhxB3DD+/MWcOPdcccd8VY2uNEWHqwZJiaBSiYnmawyQaWTfpgBpU1OgkFjfPWcmAQqLSeE5wBi1Q4TkxSiY9CvvX2PoBwYiyYmaTx4IeFiokaNy7YmJmkcLScCYe1Fp5lPuO3XhGDuve8ZGNQihtUimpik8eSJlU8nnSYmaQwtJQK0c/0ebm5s1N8ndAOZm4BawW/b0x+Aa+97BfS6+x6DiYZ/TFJzwJ9MhGtwLU1Mkg9z90OBstqe8vjC7KOJSepHS4kA7ivte2vXbtu2LTJoH7bp+LNjcCvpHPQhH47z28m0qzEWA+MJj0lqDlgnG/sxLK5FPnYOiyYmSQd3H2Mib1tschIMTBOTNJ62mnzE3hNolrauaA/sPYG0ztdWQ5OPTDF+bewvCJgQU4FEYJLxe+f9RROTiKlCIiBEwWkrEaA2VX+AqDc8dmyX/oAk5AkIUXAkAkIUHImAEAVHIiBEwZEICFFwJAJCFByJgBAFp6VEgEE1jXi9lnwrGbBT6fH1ptbrM+CmnpF6652fmFzkCQhRcFpKBBgS24rv2BOibKoGCDEeP6ylGQJbz+AbleaXVCYxdcgTEKLgtJQIUKP6bWF/KG7e2IEc55+XVEP7wUVZ8uSddg75Ew2JiEGk++XPc51y5c2KCkRty3WJwMMxFhCEmtgPDsI6aSwWNMNqatZJDyHKDvvAzy8rL0grk5g6WtYTwCCI9GNDce+77754TzqEmyJSEPEF7TyCkNjNDBhmGFzUQo2lkXUOzRciFBGZhn0W5SjPdfKUNwtcdK5LBB4iC2VFwrGwZhzHgpFioJzvh9429u/fH+1LIi0vqKRMYnJoSRGwGtM3mjCEWBJ55huoZt6ARp2Tp7yE1WK71lh3YVx9ykKEX9IwYj++Hl4HMffWrl0bp4wnLS/RnLSkCFjwTESgkkdl1FBZ8w344uK74JyXFqO/keeUK289CePq+1F0MWpqfqOnpyczyGZWXqL5aNnmADU/7jFtTwyonBiY4eXBXG9/KRenoN7nVFLeRnPjjTdGNb+BOJEm2oOWFQGDNjdtZtrJWYZjLnW5+QYgy41Po97nVFLeRkONTxue69IsYL3W5odoHlq2T4COtUqhfZ0134A1MyqZNyDPOeF8AnmvU668kPV0AOo1Z8DmzZujDkLCbrNeC/Uqk6gPLdsnwExD1pambU2NabVnGrjaGJbfFg/nG6gmRn+5c5LmE8hznTzlLUe95gwgHzNc1muhkfMYiMppq3kHRGPhGX87xd8vKm0974Bfq/rLVL2y207QF4AnIAFoP9pKBPxedn9RTP/aoS+AJo1oP9pKBET9oQlA213NgPZFIiAy4TVfOiIlAO2LRECIgiMREKLgSASEKDgSASEKzgQRmDNzRrzm3IWhkXhNCNEuDI+MvR84Z9aY+U8QgaULOuI1F71VJIRoLwYvjlXu3fPHbH2CCHTPnx2vOdd7RiIgRDtxseQFXDARWDhm6xNEYOHcmW7VkjnR+gtv9EWfQoj24Pn9fW5kdKw58I4rF0SfE0QA/tWGZdHnK2+ddqfPX4zWhRCtz5O7e6NP+gNueVtXtJ4oAh++rjv6HBoedX/x7OXYckKI1uXIqQvuezsOR+vvW7c0vWMQNq1e6G5aOxYX7qGfHHR9Z4eidSFE6/Lgj3qiTsFppfXfuPVyTIhEEYAvfuRt0cFnB4fd73z7ZyWvQI8LhWhVvv+zo+67zx+K1j96/XK3ceVYfwCkisD1qxa6T717ZbS+40C/+8rf73Xjoo8IIVoC+vZ+/5E9kf0unjfL/ftSBe+TKgJwz8+vd+++enG0/t0X3nJf+uZOdRQK0UL83YuH3V3feNGdK3n0s2ZMc//zV693y+NHg8aE8GIhGP3df/mSe/nQ6Wh7dddcd8/H1insmBBNzPEzg+7/PLHPPbLjcOQBzJg+zf3uL7/d/eKmFWMHeJQVATg/NOL++9++4h7fdSxOce5flDyEXyi1Ld63vst1LxivLEKIyYeneS/29Lln9p5wD29/K+rPA5oAW/71xktefUguEQAOomPh60/tdycHxj8t6Jg53c0uLbNmZLYuhBANgJd/eAuQsT72IhDQsf/hjd3uP3x0nVsRNAEu49z/BwbNQg9KpOqMAAAAAElFTkSuQmCC;" parent="1" vertex="1">
          <mxGeometry x="-1491" y="700" width="210" height="214.09" as="geometry" />
        </mxCell>
        <mxCell id="vC-f2QdZEVjvMHig6FlY-1" value="&lt;b style=&quot;font-size: 18px;&quot;&gt;&lt;font style=&quot;font-size: 18px;&quot;&gt;专辑表&lt;/font&gt;&lt;/b&gt;" style="text;html=1;align=center;verticalAlign=middle;whiteSpace=wrap;rounded=0;fontSize=18;" parent="1" vertex="1">
          <mxGeometry x="-2690" y="110" width="102" height="30" as="geometry" />
        </mxCell>
      </root>
    </mxGraphModel>
  </diagram>
  <diagram id="c_d5EoutmTW_BVgUwVy3" name="用户登录">
    <mxGraphModel dx="1042" dy="531" grid="1" gridSize="10" guides="1" tooltips="1" connect="1" arrows="1" fold="1" page="1" pageScale="1" pageWidth="1654" pageHeight="2336" background="none" math="0" shadow="0">
      <root>
        <mxCell id="0" />
        <mxCell id="1" parent="0" />
        <mxCell id="KML9hCWX98LyzHQHI29R-3" style="edgeStyle=orthogonalEdgeStyle;rounded=0;orthogonalLoop=1;jettySize=auto;html=1;" parent="1" edge="1">
          <mxGeometry relative="1" as="geometry">
            <mxPoint x="259.9999999999999" y="220" as="sourcePoint" />
            <mxPoint x="538.4" y="220" as="targetPoint" />
          </mxGeometry>
        </mxCell>
        <mxCell id="KML9hCWX98LyzHQHI29R-1" value="" style="image;sketch=0;aspect=fixed;html=1;points=[];align=center;fontSize=12;image=img/lib/mscae/App_Service_Mobile_App.svg;" parent="1" vertex="1">
          <mxGeometry x="200" y="170" width="61.2" height="90" as="geometry" />
        </mxCell>
        <mxCell id="KML9hCWX98LyzHQHI29R-5" value="" style="shape=image;html=1;verticalAlign=top;verticalLabelPosition=bottom;labelBackgroundColor=#ffffff;imageAspect=0;aspect=fixed;image=https://cdn3.iconfinder.com/data/icons/social-media-chat-1/512/WeChat-128.png" parent="1" vertex="1">
          <mxGeometry x="550" y="160" width="100" height="100" as="geometry" />
        </mxCell>
        <mxCell id="KML9hCWX98LyzHQHI29R-7" value="&lt;b style=&quot;font-size: 18px;&quot;&gt;&lt;font style=&quot;font-size: 18px;&quot;&gt;小程序(听书项目)&lt;/font&gt;&lt;/b&gt;" style="text;html=1;align=center;verticalAlign=middle;whiteSpace=wrap;rounded=0;fontSize=18;" parent="1" vertex="1">
          <mxGeometry x="140" y="280" width="160" height="30" as="geometry" />
        </mxCell>
        <mxCell id="KML9hCWX98LyzHQHI29R-8" value="&lt;b style=&quot;font-size: 18px;&quot;&gt;&lt;font style=&quot;font-size: 18px;&quot;&gt;微信开发者平台&lt;/font&gt;&lt;/b&gt;" style="text;html=1;align=center;verticalAlign=middle;whiteSpace=wrap;rounded=0;fontSize=18;" parent="1" vertex="1">
          <mxGeometry x="530" y="280" width="160" height="30" as="geometry" />
        </mxCell>
        <mxCell id="KML9hCWX98LyzHQHI29R-11" value="&lt;b style=&quot;font-size: 18px;&quot;&gt;&lt;font style=&quot;font-size: 18px;&quot;&gt;1.用户授权，获取用户存储在微信端的个人信息&lt;/font&gt;&lt;/b&gt;" style="text;html=1;align=center;verticalAlign=middle;whiteSpace=wrap;rounded=0;fontSize=18;" parent="1" vertex="1">
          <mxGeometry x="300" y="180" width="220" height="30" as="geometry" />
        </mxCell>
        <mxCell id="KML9hCWX98LyzHQHI29R-41" style="edgeStyle=orthogonalEdgeStyle;rounded=0;orthogonalLoop=1;jettySize=auto;html=1;" parent="1" source="KML9hCWX98LyzHQHI29R-12" target="KML9hCWX98LyzHQHI29R-19" edge="1">
          <mxGeometry relative="1" as="geometry" />
        </mxCell>
        <mxCell id="KML9hCWX98LyzHQHI29R-12" value="&lt;b style=&quot;font-size: 18px;&quot;&gt;&lt;font style=&quot;font-size: 18px;&quot;&gt;用户微服务&lt;/font&gt;&lt;/b&gt;" style="text;html=1;align=center;verticalAlign=middle;whiteSpace=wrap;rounded=0;fontSize=18;fillColor=#f8cecc;strokeColor=#b85450;" parent="1" vertex="1">
          <mxGeometry x="151.6" y="366.25" width="120" height="60" as="geometry" />
        </mxCell>
        <mxCell id="KML9hCWX98LyzHQHI29R-15" value="&lt;b&gt;&lt;font style=&quot;font-size: 18px;&quot;&gt;2. 把获取到的openId存储在数据库&lt;/font&gt;&lt;/b&gt;" style="text;html=1;align=center;verticalAlign=middle;resizable=0;points=[];autosize=1;strokeColor=none;fillColor=none;" parent="1" vertex="1">
          <mxGeometry x="271.6" y="320" width="300" height="40" as="geometry" />
        </mxCell>
        <mxCell id="KML9hCWX98LyzHQHI29R-22" style="edgeStyle=orthogonalEdgeStyle;rounded=0;orthogonalLoop=1;jettySize=auto;html=1;entryX=0.5;entryY=0;entryDx=0;entryDy=0;" parent="1" source="KML9hCWX98LyzHQHI29R-19" target="KML9hCWX98LyzHQHI29R-21" edge="1">
          <mxGeometry relative="1" as="geometry" />
        </mxCell>
        <mxCell id="KML9hCWX98LyzHQHI29R-19" value="" style="shape=image;verticalLabelPosition=bottom;labelBackgroundColor=default;verticalAlign=top;aspect=fixed;imageAspect=0;image=data:image/png,iVBORw0KGgoAAAANSUhEUgAAAMEAAABzCAYAAAAhQGbiAAAAAXNSR0IArs4c6QAAAARnQU1BAACxjwv8YQUAAAAJcEhZcwAAEnQAABJ0Ad5mH3gAABWfSURBVHhe7Z0JcBRFF8cbIgiI4VBJECIKyClIVESB4rLwAFRQMAE0cggowQNSoBIgfIUHghgrCkopBEUuLwTCJZcYUJRgFAQSRQGDQBJAIociSn/97+0hs53eK5kkszv9q5rKXDu72e3X/d7r915XoAyi0TiYiuKvRuNYtBBoHI8WAo3j0UKgcTxaCDSORwuBxvFoIdA4Hi0EGsejhUDjeLQQaByPFgKN49FCoHE8Wgg0jkcLgcbxaCHQOB4tBBrHo4VA43i0EGgcjxYCjePRQqBxPFoINI5HC4HG8Wgh0DgeLQQax6OLb4Ug+En/+OMPsnLlSnL8+HFyww03kOjoaFK1alVSrVo1cZfGQAtBCLJp0yYSGxtL8vLyxBlCrrjiChIVFUUGDRpEYmJiSGRkpLii0UIQYvz++++kfv36JDw8nIwfP56cPn2afP/99+S7774jubm55L///uP3zZgxgwwZMoTUrFmTHzsaCIEmdMjIyECnRvv37y/OUPrvv//SEydO0AULFlA2IvDrFStWpE2aNKFMOMRdzkWPBCEGbIFrr72W6/4bNmwgLVq0EFdcnDx5ksyfP59MmTKF5Ofn83OVK1fm98NmgP3QtGlT0qVLF9KtWzdSq1Ytfk8oo4UgBPn000+53o+GDOMYjVzmwIED3G4Av/32Gzl//jxhIwY5d+4c+fvvv7lxDeLj48kLL7xAatSoQSpUqMDPhRwQAk1o8c8//9AePXrQsLAw2rdvX3rmzBlxRQ3UpWPHjtGDBw9ydSolJYU2btyYskbPVSdmY9CkpCRaUFAgXhFaaCEIYTp37swbcmpqqjgTGBAGNprQKlWqcGFo2bIlZaMM/euvv8QdoYEWghCG6fyU6ff00ksvpYcPHxZnA4OpRnTXrl20TZs2XBDwrIEDB9KjR4+KO4IfLQQhTnp6Oo2KiuLCAKGQyczMpO3bt6dPPvmkV3UHQjR69Ghas2ZNLgw33ngjXb9+vbga3GghcADTp0/nDff9998XZ9xJTEzkLtO5c+eKM57JycmhLVq04M/D9uKLL3KbIpjRQuAAdu7cyRts9+7dxRl3MAJgtFi+fLk4453c3FwaFxdHK1WqRC+55BI+J3H27FlxNfjQQuAQbrnlFi4IWVlZ4ow7GzduFHv+AeN4zJgxtHLlyvy5UKeC1WDWQuAQ1q1bx43amJgYeuHCBXG2ZEANgrcIQgB1Cs+GezbY0KHUDoGNBDyADnFErKGKsyUjLCyM9OnThyQnJxOmFpElS5YQNiIQNiKIO4IDLQQOAYFynTp1ItnZ2WTXrl3irDU888wzJCEhgQvF7NmzCVOTxJUgQYwIGgeQl5dHa9SoQa+//no+O2wl586do88++yw3lOFGXbRokbhif7QQOIy33nqL6+/jxo0TZ6zj+PHjtFmzZhdthD179ogr9kYLgcM4f/78xVnk4oZTeGP37t20Vq1aXBAeeughcdbeaJvAYcCA/eabb3jINCJEv/rqK3HFGhC6DeMYfPjhh9xYtjtaCBwIwqIfeeQR7sUxMs2sZOzYsaR58+Z8H2HYdvcWaSFwKKtWreLCEBERIc5YR/Xq1QmzPXiSTlZWFsnIyBBX7IkWAgeCnnnLli3ktttuI02aNBFnrQXuWFS4QKIORgar5iZKAy0EDiQtLY2cPXuWTJgwQZyxHmShxcXF8X3YIMuXL+f7dkQLgQNB7jFUlQ4dOogzpQPsjs6dO/P9lJQU/teOaCFwGJRSsmDBAq6ulDZI3sdoU6VKFZKenk5mzZrF399uaCFwGCdOnCgVj5AnOnbsyG0D8Pzzz5NDhw7xfTuhhcBhGAJQqVIl/ldm7969vPqEVWAUmDhxIq94cerUKTJv3jxxxT5oIXAocGPKoAwLPEavvPKKOGMN99xzD1e/oAq9/fbbbuUh7YAWAodx2WWXcc/Njz/+KM4UgpneP//8k+vuKNtoJaNHj+Z/Dx8+TCZPnlymKpkvdPEtB3LTTTfxSnX79u3j4c8AjRIhFQa9e/fmRbysLLh18803k8zMTHL11VeTL7/8kjRs2FBcKV/0SOBABg8ezFWfzz77TJwh5IMPPuB/MYuMCTRUtkavbSVffPEFady4MS8afMcdd/BZZVuoRhgJNM4CeQURERG0V69elI0A/JyRg1y3bl1elQK5w7GxsTzq1ErmzJlDIyMjeag13g9/hw0bRnfs2EGZKibuKlu0EDiUPn360Msvv5wy24AfV61alTdKlFNBDjLKOOJ49uzZ/LqVIO9g1apV9L777uPvgQ3vX6dOHcrUJHFX2aGFwKF8++23NDw8nEZHR1OmFl2sGjFo0CB+HUW5UMYdWWil2UP/+uuv9KOPPuKjDkYIfKaEhAS6f/9+cUfpo4XAwUyaNIk3OqM3Rmrk6tWrxVVKv/76a947d+rUqczqCqGAMAQSayegDExZVK/QQuBgUDJl27ZtXDVihiqdN2+euFII1BbYCdOmTRNnShfULoJK1LZtW1qtWjX6wAMP0CNHjoirpYMWAo1PNmzYQOvVq0e3bt0qzpQNkydP5iXimzdvzlWm0ir3qIVA4xMYyjBmoatbXaXCG/BcnTx5ko4cOZKrSIsXLxZXrEVPlmn8BosAIgy7ZcuW3N9fGmASDbPVBQUFfGkpzGAfPXqUZ8Jhthsh2ViBs2JF66a4tBBoAmbHjh2kTZs2F2ebSwKa34oVK/jEGQQMy0YZIBQbgX4IvsM+qt1hJtvIUbAKLQSaYoF1zRAhWlLQ6Fu3bs1zkUHXrl25gLVv356PNqich8UDMZNdWmgh0JQ7GAUQYIdFA3v06EE+/vhjnvlWVujYIU25M2LECF6aBarPmjVreOyS1fWQvKGFQFPuwMhFUV8U88UazMg+Q/4zcpS3bt0q7io9tDqksRVHjhwh999/P6+cDbsDIE8ZOQhWGOIqtBBobAea5Pbt28nrr7/OSzkip6F79+48K+2aa64Rd1mHFgKNrfnpp5/IlClTyOrVq3n9VOQ91K9fX1y1Bi0ENgWuQ/zwyACDnowsLKw0YyWoRPf5559zrwwSXeCGRA3ROnXqkEaNGom7yh9kvR07dowMHz6cHDx4kGzevNlalymEwC7s27ePL/Cg2rBuLhaWLi4IxFI9F2XKSztAyx9Onz7Nk1n69etHWaNHx1Rkq127Nr82YMAA+s477/CQgkBZu3YtffDBB2nr1q2V72FsiB5FvP/MmTP9DqVmDZWvei9/x0bOghUsXbqUl3xHCXirsJUQIGJR9YMY26ZNm8SdgYHAq+rVqyufiZj5AwcOiDvLh0OHDtFWrVopP5+3jenHlOnJ9MyZM+JJnkHcPhbtVj3H18Z6Xb68q5GF5gkIAT6T/PoffvhB3GEdK1asEHslx1Yu0p9//lnsqTHyYAOF9bA87kUFYlQQn1JeIO8WM6bFWUcM9YEwseSphpDBJ598wpPci+t7x3fEel/y0ksviTPlT69evcSeBQhhsAWjRo0q0ouYN2Q5Id48EKBChYWFKZ9nbGlpaeLusgX/C9Q8+fMgjh7pjRj6s7OzeQ/8yy+/8DzchQsX8sWz0asjEys/P188TQ3+NzxPfg+oVVhyddmyZZQZn5QJIWVCQqdOncpzC4xMM3ljHZHHvOOyHAmsxFZCcOeddxb5AuUt0AaLGPgKFSoon2VsSP4uD5KSkpSfB8kt3mLnEdqMhfIQ3uwNCBBUGfn57dq182pPIJsL6o+RDG/e0KEg9VKFFoISgt6lQ4cObl+eOfXP2Lp06RJQBQR5dEFyufkY24gRI8TdZQcaMCo+yJ/FynW+jGR589atWze/vz+MEljbTH5GXFycuMMdLQQlBDmsSPo2f3lo8LJBC0MWXiR/gBoBj4rx2iuvvLLIe2Dr2bOneEXZYXjC5M9ilZGO58jPRs++cuVKcYd/wFslPwcb1DOZYBUC2xjGmCKHAWYGxpxcQhx+840bN4oj77AfnFdhNoAPnPWE4qgQFKE1Ax/9a6+9RsaPH++2+bvQBOvli7wWG5JDDLByC/zfMlYstI3n4v1k7r77bh6lGQgPP/yw2HMHkZ8hgxCGcic3N7eIepCSkkJnzZrldg4bEw6uE3sDOrVRUMrYYGgmJye7nTM2+XkoPSLfA8Pcn+oHa9asKfJa5MqagVsUo5p8X+/evf1yeXoDPXJUVJTbc2EXbd68WdwRGA0bNnR7Fjbk/cpOCj0SlBDMWsquysjISDJkyBDCGos44wKZTdi8gV43JydHHBGemHHvvfd6TAuUy5GjnLgMXLg7d+4UR57BVL8MYl/MMFWIXHfddeKoEJRGHDdunDgqHvgeMQNsBu9Xr149cRQY/fv3F3uFYLknJqziKLixjRBAhcA0vhk0XGaYKYdwrLbiDfjP2egijgiJiYnhUYieFqrLz88Xey4QpsBsEnFUCIrU+kK+B4VuBw4cKI5cIF/2iSeeEEfuzJw5k3/ebdu2iTOBgddduHBBHLlAiiLeszhcddVVYq8Q5P9CNQ0FbCME+FJl0HuB2NjYIonVmGSC7q4CDWDq1KniyIXRoCEEqiRtNpSLvUIee+wxsVfIunXrxJ4aCDKK3ZpBnIuqAjNGOeTMqkD05O23306GDRvGhVlu1N5QTYohRxedSnGAHSVXp4bdobJpghHbCAGComQQNQhatWrFezIz2dnZPPZcBVZLNBuh4K677hJ7rhFGRrU6C7MpxF4hMFy9VVKGIS6rCVBDwsPDxZE7c+bMIX379uUjnop3332XG/QQGJWgqlB9LxiNPL2HL4xkdzNaHSoF5B8OX7yRyI3oSdlLxAxfXnoDf2Xmzp0r9lxAFTFGFVC3bl2xV4jqB23atCmv5W8GXixvK7mgnLls2+Dze1JFateuTRYtWkSSkpIIM7yV6wFA7Xjvvfd4XX/YKrt374ZDQ1wtimwPgJIkxWPklEdPjEyBjE62xmUflz9ycBfrrcUVF3v37lVOdGVlZYk7CjEHo7HGR0+dOiWuuFAFksXHx4ur7mDCSL4Xk3iePDhLliwpcj8iPv2hoKCADh8+XDnLa94wd4IIT9yvokGDBkVe06xZM3E1cDAnoJq43L59u7jDhfYOlRC5V5GrDbAfkfeUMqhVYwa+fLOvHXMNci+sSsqQ5ygMYJSzH1YcucCoAZtERWpqqthzgfeGV8ofoDIhzxbqHILV0POrQDAg/k+sL4bEdHk0VOnqJdHfVfo/1KPiqld2wzZCgGQJM6oG0K9fP7FXiHm1FSbUF9fGMoAaJasYquQUT0IAj5K86DUahGrCDoKMRmmG9dgkIiJCHPkH1DAsdwq1JiEhgdswKmMek3ywJ5B8Y0YWWgAngpGzGygQMtkJASGQ7YRgxbY2gWp1RdnXDuAJgXsVYA0u2cCNi4sTe4UwtUrsFeIp1BoCBO+UDHp82UWIEoJm8NqePXuKo+Lx6quvkoyMDDJmzBhxxh2MSiNHjnQTYpXNgxnq4hqy8E7h9WYwUpdlbaDSxBZCoHJ1qnoZqDaog2kGP+zYsWN5L7x27Vo31QCVzFQqlErAVC5aA/Tm6J3NwAuE1EQzaWlpYs8F1AWVhylQ4F6dPn06YbYFN6RlUKJkxowZF41llfcLjRgeneIge9oABABu11DAFkLgqRdW8dRTT4m9QuC7x2iwdOlSccYFGoYK1Ujgq4HAXy+DpU4NoUMjk+0TzAhbWbh26NChHhNbMAoZeruqVif+P2PEDBRV7R+4beWZ/GDFFkKgmnk0uzTNQL2Qv3wM1yjHYdbTYWR6qkqgMuiw2ro3MM8gG9iwY4wRBD58OTMO6wJbWSsH6hWqtSERXgafwxBI1POUBR1CgBUpAwWTf3DPyrRr145/nlDAtkLgCRiZcugD1KlJkyaJIxeY5fQUIqFStXwJQYMGDYro2hACY9FrhGmYdW4IqqewiJKiUvHwPxmNEsKqMsYxMReobx9Gt/zd4Hv43//+J46CH9uqQyq9HWDm01OogZn4+HixVxSVQSfHLcmgZ1UFkqWnp/Nedtq0aeKMC38+Y3FAj69ST9DoDeHGKNixY0e+bwaTbIHmaSOOSQajUUjBZwvKmfXr1xeZYHn88cfFVTVM3y7yGmNr1KiRuEsNKhWoXscas7hDDSaDMPlmfg0bbSgzkN3OYcPqkL5AKLI/odkGbMSjzCYq8l7YJkyYIO5ywUYoZZ4wJtKQT+wL5GYj31h+PfKVmdon7nJHT5aVAG+eGU+oIjwNVC5NM7Jub2COOlUBFUeOaEXYNJJ3zEBdgCfLF9C1UYcfva2vkQigcjOMcRlEecpJNNHR0dyjJM8vQIXDey5btkycUYPeHnMVMvPnzy+1VWrKC1tUoMMXK/vz8QN4K/EBjxAypVQ6LhqltwwqBOuphGj//v282ps3UL4EE1RmECBnxOtAXcMEnq/5AdwPF64RFAdjF4IDfR9ChMlCTG4hDgkzyFu2bFG6KqE24rvA7LEMwsPhKZIz5wxg3LZt25Z7emBXQa1DvgRmw1XvhYlIeNw8GcTwPiHWSp6rgaHuT8U4tAGsRlPm8PGgnEEBKXwU85aYmCiuqsnLy1OWEkE1BF9kZGQUeR029uOLOzyDWCXVa40N6hEz9MXdnsEawYgRYj218jn+bIilQhkWXyBWCt+L6hn+bKzR0zfeeKPYxbf83VinJ55UtthCHVKFLPjqOaACPProo+KoENUMsYynmU5vIdIGqNGpclEaYPTy5N41g54bs91QWVRJK75AXU7MJMtRriowMsGbo8pp8Af0/G+++SZXuXypjMGILdQhJG1DJTIzatQoMmDAAHGkBt4O8yQWVBHMFeCvNzBcq+wG6NyqRHwZCJr8edFQnn76aZKcnCzO+A/8+0iigRqHhByoIugYMAEHj48xO4uYIAgPYqhQtS5Q4IrG6o/wLkHgMdOMtFZDpUT4OmabIcRQj/bs2XNxFtrMc889xz8DXNBmLx5su8GDBxdbUPD9IaOurLGFEKiiFDHJ5M9EkzmmBQ3RV0lCgH/Z31ANFfjx5YkxvBa6O/T84mJ8LhjJEAx8J8b3gA2C4M934gs8F40f74N9ownAiMb/ge8Q5xCGgtFW5cKGYCKw0Jxp5+l79Re8ryd7o1RhH1wTAKiGjK9N3lC9ORRhxi59+eWXi7ik4X5NTU0VdwU3WggCgPWItGvXrm6NAdvQoUPFHaHNxIkTebITDOVbb73VZ9mbYEELgZ8sXrxYWb2O2QdcOJxCTk4Or91U3uXsrUSvVKMAIdGo/QMDG0aeymsE3Rkh1ojHQZiCJnixhYvUbsC4wwSTp8oSMCDhHVq4cKEWgBBAC4EC+NORvCPPJyDPOTExkWRmZvJFK/zxRGnsj1aHvADXIMIIUK7En0kpTXCihUDjeLQ6pHE8Wgg0jkcLgcbhEPJ/FzDMMYJP2xIAAAAASUVORK5CYII=;" parent="1" vertex="1">
          <mxGeometry x="555.45" y="352.5" width="146.85" height="87.5" as="geometry" />
        </mxCell>
        <mxCell id="KML9hCWX98LyzHQHI29R-27" style="edgeStyle=orthogonalEdgeStyle;rounded=0;orthogonalLoop=1;jettySize=auto;html=1;" parent="1" source="KML9hCWX98LyzHQHI29R-21" target="KML9hCWX98LyzHQHI29R-25" edge="1">
          <mxGeometry relative="1" as="geometry" />
        </mxCell>
        <mxCell id="KML9hCWX98LyzHQHI29R-29" style="edgeStyle=orthogonalEdgeStyle;rounded=0;orthogonalLoop=1;jettySize=auto;html=1;" parent="1" source="KML9hCWX98LyzHQHI29R-21" target="KML9hCWX98LyzHQHI29R-28" edge="1">
          <mxGeometry relative="1" as="geometry" />
        </mxCell>
        <mxCell id="KML9hCWX98LyzHQHI29R-21" value="&lt;b style=&quot;font-size: 18px;&quot;&gt;&lt;font style=&quot;font-size: 18px;&quot;&gt;3.生成token&lt;/font&gt;&lt;/b&gt;" style="text;html=1;align=center;verticalAlign=middle;whiteSpace=wrap;rounded=0;fontSize=18;fillColor=#dae8fc;strokeColor=#6c8ebf;" parent="1" vertex="1">
          <mxGeometry x="569.6800000000001" y="510" width="118.4" height="50" as="geometry" />
        </mxCell>
        <mxCell id="KML9hCWX98LyzHQHI29R-23" value="&lt;b style=&quot;font-size: 18px;&quot;&gt;&lt;font style=&quot;font-size: 18px;&quot;&gt;key:uuid&lt;/font&gt;&lt;/b&gt;&lt;div&gt;&lt;b style=&quot;font-size: 18px;&quot;&gt;&lt;font style=&quot;font-size: 18px;&quot;&gt;value:用户信息&lt;/font&gt;&lt;/b&gt;&lt;/div&gt;" style="text;html=1;align=center;verticalAlign=middle;whiteSpace=wrap;rounded=0;fontSize=18;" parent="1" vertex="1">
          <mxGeometry x="569.68" y="450" width="132" height="30" as="geometry" />
        </mxCell>
        <mxCell id="KML9hCWX98LyzHQHI29R-25" value="" style="image;sketch=0;aspect=fixed;html=1;points=[];align=center;fontSize=12;image=img/lib/mscae/Cache_Redis_Product.svg;" parent="1" vertex="1">
          <mxGeometry x="810" y="485" width="119.05" height="100" as="geometry" />
        </mxCell>
        <mxCell id="KML9hCWX98LyzHQHI29R-35" style="edgeStyle=orthogonalEdgeStyle;rounded=0;orthogonalLoop=1;jettySize=auto;html=1;entryX=0.5;entryY=0;entryDx=0;entryDy=0;" parent="1" source="KML9hCWX98LyzHQHI29R-28" target="KML9hCWX98LyzHQHI29R-34" edge="1">
          <mxGeometry relative="1" as="geometry" />
        </mxCell>
        <mxCell id="KML9hCWX98LyzHQHI29R-36" style="edgeStyle=orthogonalEdgeStyle;rounded=0;orthogonalLoop=1;jettySize=auto;html=1;entryX=0.5;entryY=0;entryDx=0;entryDy=0;" parent="1" source="KML9hCWX98LyzHQHI29R-28" target="KML9hCWX98LyzHQHI29R-33" edge="1">
          <mxGeometry relative="1" as="geometry" />
        </mxCell>
        <mxCell id="KML9hCWX98LyzHQHI29R-28" value="" style="image;sketch=0;aspect=fixed;html=1;points=[];align=center;fontSize=12;image=img/lib/mscae/App_Service_Mobile_App.svg;" parent="1" vertex="1">
          <mxGeometry x="189.4" y="490" width="61.2" height="90" as="geometry" />
        </mxCell>
        <mxCell id="KML9hCWX98LyzHQHI29R-30" value="&lt;b style=&quot;font-size: 18px;&quot;&gt;&lt;font style=&quot;font-size: 18px;&quot;&gt;4.响应token 给小程序&lt;/font&gt;&lt;/b&gt;" style="text;html=1;align=center;verticalAlign=middle;whiteSpace=wrap;rounded=0;fontSize=18;" parent="1" vertex="1">
          <mxGeometry x="300" y="500" width="190" height="30" as="geometry" />
        </mxCell>
        <mxCell id="KML9hCWX98LyzHQHI29R-31" value="&lt;b style=&quot;font-size: 18px;&quot;&gt;&lt;font style=&quot;font-size: 18px;&quot;&gt;小程序(听书项目)&lt;/font&gt;&lt;/b&gt;" style="text;html=1;align=center;verticalAlign=middle;whiteSpace=wrap;rounded=0;fontSize=18;" parent="1" vertex="1">
          <mxGeometry x="40" y="530" width="160" height="30" as="geometry" />
        </mxCell>
        <mxCell id="KML9hCWX98LyzHQHI29R-33" value="&lt;span style=&quot;font-size: 16px;&quot;&gt;&lt;b&gt;订单服务&lt;/b&gt;&lt;/span&gt;" style="rounded=0;whiteSpace=wrap;html=1;fillColor=#d0cee2;strokeColor=#56517e;" parent="1" vertex="1">
          <mxGeometry x="250.6" y="700" width="120" height="60" as="geometry" />
        </mxCell>
        <mxCell id="KML9hCWX98LyzHQHI29R-34" value="&lt;span style=&quot;font-size: 16px;&quot;&gt;&lt;b&gt;专辑服务&lt;/b&gt;&lt;/span&gt;" style="rounded=0;whiteSpace=wrap;html=1;fillColor=#d5e8d4;strokeColor=#82b366;" parent="1" vertex="1">
          <mxGeometry x="80" y="700" width="120" height="60" as="geometry" />
        </mxCell>
        <mxCell id="KML9hCWX98LyzHQHI29R-39" value="&lt;b style=&quot;font-size: 18px;&quot;&gt;&lt;font style=&quot;font-size: 18px;&quot;&gt;5.携带token(请求头)进行访问&lt;/font&gt;&lt;/b&gt;" style="text;html=1;align=center;verticalAlign=middle;whiteSpace=wrap;rounded=0;fontSize=18;" parent="1" vertex="1">
          <mxGeometry x="180" y="600" width="102" height="30" as="geometry" />
        </mxCell>
        <mxCell id="KML9hCWX98LyzHQHI29R-42" value="" style="image;sketch=0;aspect=fixed;html=1;points=[];align=center;fontSize=12;image=img/lib/mscae/Cache_Redis_Product.svg;" parent="1" vertex="1">
          <mxGeometry x="165.13000000000002" y="850" width="130.95" height="110" as="geometry" />
        </mxCell>
        <mxCell id="KML9hCWX98LyzHQHI29R-43" style="edgeStyle=orthogonalEdgeStyle;rounded=0;orthogonalLoop=1;jettySize=auto;html=1;entryX=0.422;entryY=-0.007;entryDx=0;entryDy=0;entryPerimeter=0;" parent="1" source="KML9hCWX98LyzHQHI29R-34" target="KML9hCWX98LyzHQHI29R-42" edge="1">
          <mxGeometry relative="1" as="geometry" />
        </mxCell>
        <mxCell id="KML9hCWX98LyzHQHI29R-44" style="edgeStyle=orthogonalEdgeStyle;rounded=0;orthogonalLoop=1;jettySize=auto;html=1;entryX=0.419;entryY=0;entryDx=0;entryDy=0;entryPerimeter=0;" parent="1" source="KML9hCWX98LyzHQHI29R-33" target="KML9hCWX98LyzHQHI29R-42" edge="1">
          <mxGeometry relative="1" as="geometry" />
        </mxCell>
        <mxCell id="KML9hCWX98LyzHQHI29R-45" value="&lt;b style=&quot;font-size: 18px;&quot;&gt;&lt;font style=&quot;font-size: 18px;&quot;&gt;获取用户信息&lt;/font&gt;&lt;/b&gt;" style="text;html=1;align=center;verticalAlign=middle;whiteSpace=wrap;rounded=0;fontSize=18;" parent="1" vertex="1">
          <mxGeometry x="261" y="830" width="119" height="30" as="geometry" />
        </mxCell>
      </root>
    </mxGraphModel>
  </diagram>
  <diagram id="Vnr7tEeN0uzIUbkv4Cij" name="商品的上架下架">
    <mxGraphModel dx="1897" dy="959" grid="1" gridSize="10" guides="1" tooltips="1" connect="1" arrows="1" fold="1" page="0" pageScale="1" pageWidth="1654" pageHeight="2336" math="0" shadow="0">
      <root>
        <mxCell id="0" />
        <mxCell id="1" parent="0" />
        <mxCell id="JOucej9rkkGV1EKJ_vH5-9" value="" style="shape=cylinder3;whiteSpace=wrap;html=1;boundedLbl=1;backgroundOutline=1;size=15;direction=south;fillColor=#ffcc99;strokeColor=#36393d;fontStyle=1;fontSize=16;" vertex="1" parent="1">
          <mxGeometry x="270" y="243.75" width="205" height="92.5" as="geometry" />
        </mxCell>
        <mxCell id="AeG2e79prcjX0_B3QSxF-2" value="&lt;span style=&quot;font-size: 16px;&quot;&gt;&lt;font style=&quot;font-size: 16px;&quot;&gt;商品的上架信息包括了专辑的基本信息，专辑的标签信息以及专辑的统计信息。这些信息，涉及到了多张表&lt;/font&gt;&lt;/span&gt;" style="shape=note;whiteSpace=wrap;html=1;backgroundOutline=1;darkOpacity=0.05;fillColor=#ffe6cc;strokeColor=#d79b00;fontStyle=1;fontSize=16;" vertex="1" parent="1">
          <mxGeometry x="-260" y="-80" width="910" height="80" as="geometry" />
        </mxCell>
        <mxCell id="AeG2e79prcjX0_B3QSxF-5" style="edgeStyle=orthogonalEdgeStyle;rounded=0;orthogonalLoop=1;jettySize=auto;html=1;fontStyle=1;fontSize=16;" edge="1" parent="1" source="AeG2e79prcjX0_B3QSxF-3" target="AeG2e79prcjX0_B3QSxF-4">
          <mxGeometry relative="1" as="geometry" />
        </mxCell>
        <mxCell id="JOucej9rkkGV1EKJ_vH5-5" value="新增专辑" style="edgeLabel;html=1;align=center;verticalAlign=middle;resizable=0;points=[];fontStyle=1;fontSize=16;" vertex="1" connectable="0" parent="AeG2e79prcjX0_B3QSxF-5">
          <mxGeometry x="-0.1904" y="2" relative="1" as="geometry">
            <mxPoint as="offset" />
          </mxGeometry>
        </mxCell>
        <mxCell id="AeG2e79prcjX0_B3QSxF-3" value="小程序" style="image;sketch=0;aspect=fixed;html=1;points=[];align=center;fontSize=16;image=img/lib/mscae/App_Service_Mobile_App.svg;fontStyle=1" vertex="1" parent="1">
          <mxGeometry x="-200" y="230" width="81.6" height="120" as="geometry" />
        </mxCell>
        <mxCell id="JOucej9rkkGV1EKJ_vH5-15" style="edgeStyle=orthogonalEdgeStyle;rounded=0;orthogonalLoop=1;jettySize=auto;html=1;fontStyle=1;fontSize=16;" edge="1" parent="1" source="AeG2e79prcjX0_B3QSxF-4" target="JOucej9rkkGV1EKJ_vH5-9">
          <mxGeometry relative="1" as="geometry" />
        </mxCell>
        <mxCell id="AeG2e79prcjX0_B3QSxF-4" value="&lt;span style=&quot;font-size: 16px;&quot;&gt;&lt;span style=&quot;font-size: 16px;&quot;&gt;专辑微服务&lt;/span&gt;&lt;/span&gt;" style="rounded=0;whiteSpace=wrap;html=1;fillColor=#dae8fc;strokeColor=#6c8ebf;fontStyle=1;fontSize=16;" vertex="1" parent="1">
          <mxGeometry x="20" y="260" width="120" height="60" as="geometry" />
        </mxCell>
        <mxCell id="AeG2e79prcjX0_B3QSxF-7" value="专辑数据库，专辑表" style="verticalAlign=top;verticalLabelPosition=bottom;labelPosition=center;align=center;html=1;outlineConnect=0;fillColor=#dae8fc;strokeColor=#6c8ebf;gradientDirection=north;strokeWidth=2;shape=mxgraph.networks.storage;fontStyle=1;fontSize=16;" vertex="1" parent="1">
          <mxGeometry x="30" y="70" width="100" height="100" as="geometry" />
        </mxCell>
        <mxCell id="JOucej9rkkGV1EKJ_vH5-1" value="&lt;span style=&quot;font-size: 16px;&quot;&gt;&lt;font style=&quot;font-size: 16px;&quot;&gt;上架下架:专辑的新增，修改，删除&lt;/font&gt;&lt;/span&gt;" style="text;html=1;align=center;verticalAlign=middle;whiteSpace=wrap;rounded=0;fontSize=16;fontStyle=1" vertex="1" parent="1">
          <mxGeometry x="-230" y="20" width="310" height="30" as="geometry" />
        </mxCell>
        <mxCell id="JOucej9rkkGV1EKJ_vH5-2" value="&lt;span style=&quot;font-size: 16px;&quot;&gt;&lt;font style=&quot;font-size: 16px;&quot; color=&quot;#ff3333&quot;&gt;如果专辑设置为私密，或者删除专辑那就是下架。&lt;/font&gt;&lt;/span&gt;&lt;div style=&quot;font-size: 16px;&quot;&gt;&lt;span style=&quot;font-size: 16px;&quot;&gt;&lt;font style=&quot;font-size: 16px;&quot; color=&quot;#ff3333&quot;&gt;专辑取消私密，或者新增专辑，那就是上架&lt;/font&gt;&lt;/span&gt;&lt;/div&gt;" style="text;html=1;align=center;verticalAlign=middle;whiteSpace=wrap;rounded=0;fontSize=16;fontStyle=1" vertex="1" parent="1">
          <mxGeometry x="170" y="40" width="430" height="30" as="geometry" />
        </mxCell>
        <mxCell id="JOucej9rkkGV1EKJ_vH5-4" value="" style="shape=image;verticalLabelPosition=bottom;labelBackgroundColor=default;verticalAlign=top;aspect=fixed;imageAspect=0;image=data:image/png,iVBORw0KGgoAAAANSUhEUgAAAdkAAAMyCAIAAACuOSw9AAAACXBIWXMAABJ0AAASdAHeZh94AAAgAElEQVR42uydB1gT2fr/7/93994td11d21rBjoqiiIVq772sumtbd13d6rp2xV7X3sUCSFEB6aAgFsSCAkqvISEkIb1XSgrhfyYDMSShiqL4fp7z5AnJZEImmU++eeecM/8aNWpUGQAAAPDOQfodNmzY0KFDhwwZ8i97e3vYIgAAAO8epF/cxQhwMQAAQLO52M7OztbWFnOxg4MDbBEAAIB3D9Lv8OHDP1QXi8Xin3/+2cvLy+iW3bt317KMWeLi4v5lAPoT3YgehR6L1gAfFAD4GEhJSXF0dPxX04HWhtZZfxfjZQrsYR/ctjPSJYvFmqQDXdHfsmjRoszMzFpWgtxt+BC0cFBQUCNcjHsf97ghgYGBy5cvb9Omjf4dQtfRLfizALW/NUbfo+gWw8967d+ytT/c8DsbABDIgWfPnm3CFaK11dOraLERI0Z8wC5G4jPUKPpzog69fI0WqNPm9byrni6+f/8+dlTUABcXl9atW+v/HD16NFoG9gGzW9KsbU31Wv+H679l9V/bda4KeB++jw33KfyNM/z9qt9b8Rv1+yx6u21sbNAthgZAi9XyHYwWxq/MmjXrDRMxWoPROuvjYrxk/C8nJ6f6PCY/P3/27NmWOtauXcvhcAzvPXHiBLIPyn1omaSkJMO70J/oRnQXWmDnzp1Gq0W36B+InsLwLmQr5Cz0ktACaP2Gd+FvjP4tQVv54sWLhkUJw01vWIjAH2L0cLMujoqKMnqPjVaFP5f+jUegK+hP9Ir0/kXR2HBroI2GbkG34wuYbo2PHHzLo3fHbA2qToHW9PA3/K4F3jH6fUq/hxp+ANC9+tRlGLl26zAMRl468Ids2LChlndc780mKVAYrlMmk9X+YpF+X7vY2dm5PhvI8Lc2nuz0d/35559G/40+9CETGd2FnKt/ILpueBd6Cr2O0RrMvkLToKTf+nr/Gr5zhu+W/l1ELFq0qKbUjH/T4qsyilFubm5GqzLNxe7u7igCo0u9fx9UYfg1Y2FhoV8GMI23pi42+92J3iYjsdYpbnDxey5itGchbxi+40Y7rH7fN/y1hC+Tk5ODfx/j+z6+Fx87dqz2cuXbczG67NWrV0BAQE1PjfQ7cuRIvGSMxbf6bCPTp0QRD8/Lpnfp12k28+NR0dS2iGXLluEPNPqNb+pi/R6lf5/0V/TFYtN9GH/z0C217I1oAaNfN6YLG67Z9FnwHw1oyyxfvtzoVaBb8O8box8WQC0yNfx9alR/aKiL6xmxgffhM6Dfp4wqDPj+SyaTDY8J4Q+JiYkxysV6IzeXi3Ed1/TUSJVN4GL8J7ZZper/IaM0jXP8+HG8OmF6F/ptUtPTmf3+RJf690mvYL1qjfZh/aGb2qvJRvI1/NOwIqn/DWU2tRluFrSF0XeMvmSMtgkUixvkYtMfsLXItPaHGx2wBVqYi9Fd+hIHvow+JjejixE1/Q9IC6NGjcLLFNWqDQ1yMa5Usy5GP8D1z2R6L24i9Au9lkBteKTLrIv1m97wdwp+3dDOZuvChhWG+rvY0AK152IctDD6vjHMv+g6uqWeX37g4poWqP2rtKaH4x8GqE60eBcbffXG6ai9C00z5mKkX3t7+zdyMXKlvrarP3hlFJkRyNemmsb1hC5NhYvXPczWoGuqFRq+H+g9W6TD0JJm92q80t8gFxt+IOrjYr1/PTw80AZBl1CXaC4X15mmgQ/LxehPo36r6CEbNmwwDFjo+rFjxwwXM+qb8T7UixvjYkOrIofqpVmmO0BnqGOkUcMHGloVidiwXwG6jm4xNTiuMMNas752YbRPGvVcwXc5o+5uePcG/M+goCD8umlKqql/sf5PQwXgx/fqNL7RLwNIxE3i4toPvpk+HP9U1PRlCbz/LjY6wIP//DVaxuj4nl7Nhp0o9D0ranJxk/dpq7Mfhd7Fw4cPr6+Ly3QHo5CC79+/bzbfoduNunAZPvC+DrOrxR9o1KFNL2v8Gc0+EPep6XA7ox1V3wPR9EeK4RAAQ8/WVC/WL493oTP8rOj7tJm+BDz+o0uzGweoj0z1HYSNEm59jt3V3rcUeP9dXP8+bYZvOr58LUfy9TTjWA+kXwcHhwa7GGgcePwHEb+Jiw1/eBl1jKnTxUZj9kxXArznLi4z6EtjlHj0Scu0oGw6LKCmH1vNOAa6movHjBkD7z0AAMC7B+kXuRjv1gYuBgAAABcDAACAi8HFAAAA4GIAAABwMbgYAAAAXAwAAAAuBhcDAACAiwEAAMDF4GIAAABwMQAALQqxWMxms2k0GplMJpFIRCKR1LLAXxF6deg1olfaJJOvgosBAGgaZDIZk8lEhqJQKHw+v7i4GN2oUqk0Go22ZYFeEXpd6NWh14heKXq96FWj117nZGzgYgAA3iJISXQ6HUVFDoeDrms/PtCrRq8dbQG0HfAvIXAxAADvFB6PhxyEUiG6rv24QVsAbQe0NdA2ARcDAPDuQDEQ/Tz/OLNwLRkZbRO0ZcDFAAC8C2g0GjKOWq0G/xqBtgnaMmj7gIsBAHjrIuZwOKDdWkDbp/46BhcDANCY0gSDwQDb1gnaSvUsVoCLAQBoGDwej0qltryeam+p9xvaVvU5lAcuBgCgARQXF5NIpNLS0pZqz6ysrK1btw4ePLhDhw7/+te/vvjiC3R98eLFcXFxjT6Uh7ZYnR3dwMUAADSsOsFms1uqhadOnVrLiUSRlIODgxuxZiaTWWelAlwMAEB9kclkKOKpVKqWJ2IUe1EENjRvjx49BukwMvI///zTiH7HaLvVPioPXAwAQH1B+Y7L5bY8EV++fFmv2vbt2yPbGnURQQsYSnnRokUNfQq03fDhMOBiAADelBY5rMMwEU+ZMqWWJZGjG52O8QEg787F6Mtk9uzZO3fuhE8tALQwxGIxsknLC8X6wLt69eo6Fw4ODsYXRvpuaPdqtPVqmdGtKV2M/rMhQ4bg/+jx48fhswsALQk2m93yBnfo3Yo8WM+HbN68uf7uNhr6gbbhW3exoYhtbGzQn/DZBYCWBI1Gk0gkTVITwLuL6Vm8eHGzh+KsrCxTTV+9ehVdmn4DtW/fHo/GDXouFIprGYbXNC42FLGLiwuIGGhavLy8du/ejV/fraOeD8zMzETJAO38tS/WoHV+tKCf2AqFop4BcM2aNYN1TJ061dBlSHlG3RXMHg27fPky/nBHR8fGdSOrJ2ZDMfrA9OjRQ/+/oX8Y/T9mo3GDnksul9dSMm4CFyclJelFvGzZMvjIAnXCYrEm6UBXzN5laE+UJn7++Wf8FnQv2mmRYev5RPWRrOH68YeYmgIJvf5P2lIhkUhl9ZsVc8qUKUbdcvV3obevpt67emXr6wZ63raLjQ7EmfZjM6oOo2+URvxjpaWl+DZ8Ky5GIm7Tpg2IGKg/uPtwS6KPDS5BZDq0l7J0GLlYfxcekGvak3Hn1rKA6cKm68ddjFZi9PXQoC+AlgqRSKznuOfPP/+8Jpmaak6PPv+uXr36HbvYKHrX/u8ZLtPQydvQNnwrLgYRA41LxHrZIeeiDw/6sxYX6+WI7kISR5foXnSlzpOMoQfWvhj+7Iag5Tds2AC5+O252CgyG6Kv2L57FxuObzZN5WaP1DXiH0Nb7624GEQMNBT0iTeVGi7fixcvmnWxobu9dODrqdPFpk6vRdlm1Q+5uNE1CqNChGE11nBUhdEgN8NyreFdyOzvMhfr6w+1D7drhIv127ApXQwiBhoKnnyPHTtm9BHHq8Y15WK85mAYnGtxcT0LFIZlCny1QUFB9QnaHzkNGuiBzIU2LErBmzdvNrrLNPa2b9/eqBsDeovRYshN6NK0h0OTu9jo0BzeTaKm2I4fnGyEi2sf7tEYFxuKGPoRAw3CsEeEYa3WrIvxQDpx4kQ8EesFbVpbMDoMaFQJqfP/0cu9FptDmYJGo0ml0iYxYHJyMnL0vHnzli9ffubMmWbsX2x2uJ1peDfq5qEfgNeg50Jbr4n7tOn/PxcXF5AL8CYuRhKsJRfj5QLTokGdNQr9amv/Z/Q9KAxXaPQflpkc3PtoYbPZfD6/hY31wPuumQ6iMwzmRqnZ8AhkQ6ekaOKxHu7u7nodo+vgF+BNXIxL0NTF6Ea0JPqzES422y/N8AAd/li897FR4cJsNK6P2Vs8aKNRKJQW5mJ9waT+g+j0B/eQkZt/DDRScOvWrUHHwBu6WN//tz79KOrv4lryMl59Nr0dcnE9S8YtbBZ5FIf1vT7qM6gELa8fq9Kg2eXRdntbcwMlJSXpdQyTAQENcrG+4KsvwjbUxY0o5tYkYsMcjYx88eJFyMU10SLnzNRXh03H15mO3taPx2votJlvd85MQx0vX74cPqlAQ3OxaW23SXKxqXbxcoTRevTlCMOeyJCLa6GlziVv2AnPaNC24ahufSI27IFXH9AWe+tzyYOOgTd0sdEtpp15G12jwNMuWhJ9Sk1FbLpCfCwJ9KOonZZ6jiWjPtHItmuqcHR0NLxr0KBBDZ2vDm2xd3GOJdAxUH9MD5fhjjO83cizb1gvxjNy7SatfYWQiw1pwecevXz5stmexYajTho6T6Z+iMc7Ovco6Bh4ezTJsTu89FHTPEHg4gbB4/GoVGo9x0N/5KCthLYV2mJ1btUmm784Pz9fn2tAxwDQ4isVDAYDVFsnaCvVWZ1oYheX6WYx1usYxuMBQMuGRqO1yPOQNm2HuVoG2r1FF+t1DDNUAMBHomOU+6BYYbY0gbZM/UVcBueBBgDgDYsVVCq1rH7zt30koK2Btkk9SxPgYgAAmgYej1dQUMDlctVq9UduYZVKhbYD2hr1OVgHLgYAoIkpLi5GMZBEInE4HIVC8bFVLdDrRa8avXa0BdB2qLP7GrgYAIC3iEwmYzKZZDIZKYnBYAiFQqlUWlpa2vLUjH4BoNeFXh16jeiVoteLXjV67bWPrAMXAwDwThGLxWw2m0aj4V4mEomklgX+itCrQ68RvdImOQsBuBgAAKD5ARcDAACAiwEAAABwMQAAALgYAAAAABcDAACAiwEAAABwMQAAALgYAAAAABcDAAC8vy6uAAAAAN454GIAAABwMQAAAAAuBgAAABcDAAAA4GIAAABwMQAAAAAuBgAAABcDAAAA4GIAAABwMQAAAAAuBgAAABcDAAAA4GIAAABwMQAAAAAuBgAAABcDAAAA4GIAAABwMQAAAAAubh5KSkr4fD6LxWICANDiQLs22sHRbg4ufq+RSqU8Hg+9T1qtFrYGALQ80K6NdnC0m6OdHVz8/iZi9A6BhQHgYzAynrrAxe8jb/7LBQCADyh7oV0eXPw+wmKxIBQDwMcTjdEuDy5+H2EymbARAAB2eXAxuBgAAHAxvDHgYgCAXR5cDC4GAABcDICLAQB2eXAxuBgAgHqgLlGwi2hEMo1ApKJLYhFfWqIBF4OLAQB4N2jE9IKXScmP4821pOxsukwNLgYXAwDwFpFxMpNTzVvYoD19RaLLwMXgYgAA3kZRgluY+CK5ThFXthdZuVzN297lm8nFrCjXn9asdEutc7nIHWtcIxs5jqUi5dLKn9acT2msRiP3rPzpUvKH6OK003ZnM+q3qCB8rZ3d2nAB7J3AR5SI6cn1F3GljnMLZG93l29yFysE4ZfpHtf53NoWSnZbUz/NpZ7/ac9rFevcaraZ8zV6bH10X837urXhz4g9vPFfA2/JxUiydn+FcysyztYqUG74X3Z2p9PqYeKIv/AV1ot6r7apX/LpDINvjr8iTF93BrZdsNuxK+/6PwQ+MITZSQ0UcWX5mMRWv8VdvulzseDKLPL8zRyBSQquZ9sRxawWbA2UbfRnbdlZJ+LaWqXideG38kbDBK27fc8bq7hpXVxlIsyJdQi0DlkbuNU8Zh9bTYu6p6gZ3Jhml8HuwlbViCetycUGi6ErjYj5zfI1AzQHUlJWfeX73PiWxHzJh+BiTQZztyevUCSNXEeef5kvLeL576M/VzQuFOuWMWqXkuubi3UJt6ZErPtiMOtuAxfXovKGCbopXVylG0xwlSWIjNN2DUXvNX2WNGMls74z8rvBv1HDd4bRY80tXPNKGuji13fVskwdX0jg4o8AXnpidcMmU6UVGnZehpF2X+Ty1RUaYmr1hRPzme+/i8vTL5Pnz6psixdUXtl3v7heKqypQFG92luvXFxraaLGZ6/2XDVViutdWnkbLq4zFOsqv1Ve0xUfTtcsOZ3EzeTHmm438f7ZDFyj6LKawrBSdfhrG5rJv/g/b+ZbpGo9DfqCMXiN+i1TPb/X59eDbnOBiz8CmPlPzReCq+n4RR4fq0aYKSunphZ9CDWKcpWihH2HqrNwoderYqlS09AChT4C682LLg2rFnWUfF8fEsR8amRkM4fy9DXimoK2gegb8C3yFlxsJhSbLyWbermGJGjGVrqSQg3VDxPBVf4nJoWLv86Gn36jXFy95ltLLq7pX2poNAYXfzTwTfIv1hKq6bhKxMzURDOFi/gc/odQL1Zk0FfPIq88x/L5nTx/RdFzUXnjQ7EuhCKZ6l1cl9NdI2OrZduUS64G1ec6Iq1u5frHJkfq7f/axY3rVtFELq5XKK4uqYbVcGukUpTY+o1UZUZ82L+H5Ki/pYaEezYDd18NIbfxLm5ENAYXf1QUpNVQGq7SMZ8nrkXEWEujfwAuVsTuI89fQHssqijNoK+cRd58S6yqMEmm9ay3VhUNDHMxZkzTh5uUMoxico0dLWqPzGYLIA3/SdQkLq4rFFevSJjxpumNpquq7Rad4/5aW62eYHQv3rujzoqt3sI159Y3cDG+fqzs0LBoDC7+2F2sqwXTSnULlbLSE2teLJWm/gByMfpa4XIUuj7RpVyO6XjuBtRb9aXhN3Exfqyvfr2YK/N11cJVKbjSxY3ua9wULq7SaE2hGK85VBV5q2RUXVU1/pxv0C3VBGd4b1XWxp+iJg/qKie48vDkbr6K8kYufv3whkRjcPFH7+LUxHx+lWQ17Pysp/Efci5ugPJqrxRX72r2uq9bzWUKk+5odT6RgdOrVns+RX/cT98ToyoXN6pY3CQu1ru1KnWaF1ylf6t6BSCtCLgCw8c23LwNcHH1XhlmXFwZh6sdFcQrGDXLtJEubkw0Bhd/JNAyzA96fn2wLqmqdlyDjp9msFqAi2t9ATqBmpFd/XNxVY8318jUOgoL1deDpfUde6rqxWhteOc5fIHXNYpGdKJoolxc5SZzuRjvCZBRaZ9KIb6Oxq+dZe6BTehiPOdWPqnJYkZ96Qz/t8ovD8N/r7H9KCAXA3VRbK5z8WsRJ1Q/lGdOx4mk0hbt4lqKCY2pUbAa4OLKo3bVVqKzM/6k70c/iqrxCyZyrPRapXxfD3Mw7Edhvk9FfY/g1dSReW14ePVuzqcj9MMlKl2MP4VxMuUKMoy+KgzTPbZCqBcDb0/GtJdm679GB+uqdGzcvzg+K1dc0RJcbL7qWmtV12DQx6Xk+tUoGuTiyt4a1YRuOPq52qoMHP1uXVxXPwqBGbtVZmSdEGvovlbXnBX1zMX6K/X2IFqglnGDb+LixoRicPHHhKbQqEzxIjubXJhserAuAd1e8LJ6/+KnafTit7bLv/NcXOnTarHURMSvK8vn3d5qLmYlu13Szz6Br6T6F0b1VTV8sqEm71+MWcPEoeZcrO/ZZt569XFxjV8JBmuo3oUD/wLIMHJxDT3YjEZ/NIGLGxeKwcUfF8LCxPhGzUeBQrHwLe7yzVWjMBhkXHvSfNs1CuOVGD229j/foYurd9o1soapiytLEGdPn7ZrfC420V/V9bTTlYlbN8SutnF3tYMXi5tsrEcjQzG4+KOzcX5WI1z8Ik/4Vnf55q0X40autcdxlYvNzVBRvb0O1/XpsFGTiytME3rz9y82jcbVzWt4S1UINZBRZUA2GyHrpcsqSVVVdfVzxdV7PooaXk6Nk641wsVVvxgaHIrBxR8fCnpWRoNEHJ/BlL7lXf49OHZX+zGxusdAN20urqRanfoNXtxbmafNJBoLDPpR1BgJjXss1Lu7QvWOa/r1v4mLcffVsEyj+lEYjriD6ZiBulExCTV3IjZKxNkc6dvf5eG8Hm+XtzR/cSN+hjcB3IzTa6vPmWng4upF4Vr/tzomqKz3HMQGG6Hqn4H5i4EGoOTRkmufyzgpm8BWvZtdHlz8QbkYAIAmRlPMZeVmZ79ISH1aNWHx04SMl5mkAm6p+h3u8uBicDEAAM2/y4OLwcUAAICL4Y0BAAB2eXAxuBgAAHAxvDEAAMAuDy4GFwMAAC6GNwYAANjlwcXgYgAAwMUfBywWS6vVwnYAgI8BtLOjXR5c/D7C5/NLSkpgOwDAxwDa2dEuDy5+T98bHo8H0RgAPoZQjHb2RmcvcPFbRyqV4u8QGBkAWqqF8dSFdvZGrwRc/O5+ubBYLCYAAC0OtGu/eTUSXAwAAND8gIsBAADAxQAAAAC4GAAAAFwMAAAAgIsBAADAxQAAAAC4GAAAAFwMAAAAgIsBAADAxQAAAAC4GAAAAFwMAAAAgIsBAADAxQAAAAC4GAAAAFwMAAAAgIsBAADAxQAAAAC4GAAAAFwMAAAAgIsBAADAxQAAAAC4GAAAAFwMAAAAgIsBAADAxQAAAAC4GAAAAFz8UaNQlXLlHLGCrlAL5eVSWblcopGJ1VKxWiZSSfllIl4xV1TKlSl5xSp+sVpQohGryovLtcpyrVqr1VRUaA1WpkU3lmtVWt1dVa1ci4EuNeXYn2gBtUpTnE149f2i+QMtBvXtOtCiQ78OX/Zo+1n3dl/0aP+/Hm2/sGzzabfW/+3W+j/dUfvqP12/+qTLqLcJfAwAAFzcnBSrlQViFl1MEymK5CqBXCOV6kQsUkmwS7VMqBQLSvjiMuRibrGSU6wRlJZL1dpSA+FqjdZpYOHXrbxcXV6hqmxapVjOunjh+HDrEX26DrDsaPXNVz3bfWGJdNyxVc/2X/Zs+7lFa+Ti/1S5+JNuX/27K7gYAMDFLRZmsZgoZtHERUIFQ6YSyjRSiQYlYkzEKB3rArJErBRIy3hyJa9ExS9RC5VauaaizCD5lpvouBw1YxFrNeoKlVqr1GiVam1ZYKjvvJmzBvUe2s9iMHJxlza9O7Xu1bFVD6Tjdv/r8fVnKBdjcbjVJ12QiFv9u0sryMUAAC5uwVDlfDLmYrpQwcRdLMUUjIlYWi6XlGMuFpUJJHoXa4QqraK8Qlm9CmHq4ioLVza1WqtWVShRK1UrOELqzp1bnIY7D+4zrF93G4sOVl3b9kUu7vBlT8zFX/T4+lOLNv/t3ua/3droyhRffdIVtSGDbcHFAAAubpnQFQIKVqOgi+RMmRq5WKfgKhejdCxQigQlPHEpV47ViwWl5WJ1RXGVi9XVK8J6I5fj92K14wrUNJoKtUqrUmrLUBMXC+8/Cf9pxUpHO+eh/Uf26TqoW7t+qHVq3bvjlygao9a77eeWX3/W/etPu+uMbNH6v92++k+XgVY24GIAABe3TIpk3EIRo0hYJJQzcBejJtHVKLB6sVLCLxXxipGLeXKVsEQjLtPK1RWlyMXlWlVVyVhdpeOqVqHWYnVhpa5hBWK1FkvESMRl5aVkOnG764aJoyeOGuJk3cfOosOAzl/36dbeqnuHAd3b9+/0VZ92n/f4+jOLNpiILTAR/6d7m0+Ri7v2thgALgYAcHHLhCjhEAQMGuZiLBfLURzW1YglWLFCLtEduxOWCqQqYbFGXFohK6tQqCpKNBVlGqwfBa5aXf6t7COBd5PAjs5pdA0toNG+dnFJefHzV88mj5k0YrC9da8hvbsOtLKwtek70rr38L7dhiIXf4Nc/EVPvF7c5lNL3MV469ahL7gYAMDFLdTFUm6+kKmrF7Pkr12MVY1l5QqZrkwhVopkalFxuaRUK0WtrFymqihWa8vU2FE4pbpCiR+Uw4/LaSpKVdpSdK/uOlagQLJWa1WVLtYoniQ8mjR60jDrkYP62I4Y5OA4fOIwa6ehAxyH9nfqZzHUosPADl/2xHLxfy2+1rm4Mhr/16LdF5a1+7SoqMjd3X327NlOTk729vb4jegK+hPdePXqVSqVCi4GAHDx+whJyiWKmEUShrAYuVikczHWv1imkcuRi3XRWKzCXFyiEVe2ckmZVq7EnKvED8ehVqYtK9OWllWUlFYoSrVylbZEF4o1eNPoDtyhBUo0stTshO8WfjfOaZKdtYPz8LFjnKbZDHAYMtBhhO04W2vnXl0Gd2zVq+3nmIjbftbj66pojKt5yOBhtbg4ICAgKyvr1KlTs2bNQh8aex2Ojo4zZ848efIkuiswMBBcDADg4vcRgoSTL2QUoVyMu7gcP3aH9WbDaxRYR2OlUKYSFquFJZpKI5eWy5VY+MWyMDIyFni1JcXaYoUWGVxaopWqKkrKK1SVh+905QuNVoVMjZ4iLef5sqVLF8xdPHP6IhfHabaDnPtZ2va1HDJogKPNQJfeXYd0btNX15uiZ7vPeyIdG7jYoo+ldS0uXrRo0Y0bNxISEo4dO4Z07KgDiRj9iW708/NbvHgxuBgAwMXvI7liNkFAp4mKhApmpYs18qqxHti4O6FSgtUoXrtYVIwusVxcptZitWDkYizwVpQotAokYrSSknLk4lLMxeX6w3pYKVmlLeWIaX633KeNn7543vcL5i0b4zxjiLVj3562vS2GDOg3qn+fEZadrDu17tOpde8OX/bEDuKhXPypRZv/6DpUfNr9mza9anGxs7Pz8uXLUfiNi4s7cODALB3oyuPHj4OCglasWIEWABcDALj4fSRPwka5mC5miIpZisoaBT4AGu9ojF2XKMUylQh3MbrEXIyVjMt0BWKsUoxcjIViJGKNUKHhl2mlusEg+q7HWNNifyjzClI3rP/N0dZpxqRZKBc7O0wf7TzD2XHGgL6jenYd3K2jVec2fTq26vXNV1hf43Zf9NA1S12lorvuaF73wdZDa/Ip+qCgT4pYkx0AACAASURBVMgvv/yCdBwTE3NGB7qCRIxuxD9J4GIAABe/ly4WIRczGRKGuIStUIvxXCxRy/TH7tAVqVqC0m6xrkCBX+oqwqWaqs4S6DpKyopyERJxSbkAGwyiVeEKNnyucq36yfO7S7//dtgAu0kuk6dNmjdy2IQpkxaOHT3Hzmas5TcDu7Tt0xFZuBU24qP9/7CGjNwRXf/cst3nFm2xHscWlp2taonG9vb248aN++uvvyIjI9N0oCvoT3Sj/mgeuBgAwMXvHdkCNoHPwMZ6FGMuVpRXHrJDl/gVqVrnYmThckkJ3o9CK1dqS/CeErqOxpiOyyoUJVpJmVas0srKtWXaCo3pc6FknJKWMHPWzFE29uMcJi6Yu2z+vB8H9B4+qL9Dvx7DurW36tKub6c2fTq0wkJx+y8sv2nVq1ub3pZte1u06dWtdc/OSNP/69H2c4vhw0fU4mJHR8d58+Z5eHhQqVQajebp6Tl//nx0I7gYAD5AF7OiXH9as9Ittc7lInescY1kNXT1zMg9K3dEMWu6O+XSyp8uJb+TF5orwvoXF4noIgVLoRErULzFyr5yvGH1CpVEijlagrIwEm6ZthgXsa4TsbqqqVTYmLoSNXbITqmtUOuGQRurWFOuvB0VOGvqTMdhLpPHzJg94/tFi1YPtxnds4u1RQerLl/36fx1306t+3T9uh/SrkW7PgO79BtrNWjBCNslTiMWOQyfNHjI4K5W33xl2av7gFpcPHbsWH0uTk9Ph1wMAO+nixWC8Mt0j+t8bm0LJbutqZ8NU8//tOe1ijGHrjHbjHxdfxfr/pOGtfMpDdgc+RIuUcCkixhilItR+NW5GB99V9WhTSJRiRUaSWmFvBRzsW6sh7bafBS6qX9UeKvAEnG5UXVCF4rLaUzCnn2b58+cO8F50swp386c8b398Ak2/Uf1s7Dp2Xlgt3Z9urbt3a1tX4t2/Xq27zO4a78ZNkN/meDgunDioRXTDq+csev7qT9PcrHu0q9Hu962Q4bVVC9es2YNXi8+e/YsXi9Gf0K9GADeu1wsuDKLPH8zR2CSguvZDB1qFGDN51kz2fkNczH28CYKzgQxB7mYIWaKSzh4LsbisFqKuRjPxepKF5eUS0u1MtSUFcUa47mBKmelwGdoM3CxVt/QApmEhF17N8yfPXfOjPnz5y1fuOinkbajrfvYWVkO6d3Fuuc3/Xt26NvrG6teHfoN6tJ/TH+blWMcdn835fRv86+uX+yx6bur6xed/m3e8jFOdpYDB1oOrKUfxePHjw8dOjRbB7qC/kQ3orugHwUAvAcu1mQwd3vyCkXSyHXk+Zf50iKe/z76c0XjQrG5uHopua5cXEPINXmuOlyMyb0e9ZN6kSVg5fPpTDFDUoq5GIlYVyOWoCu6YoUCO4inliiwsR66o3bl4qp52vSzZRoeo6vUbvWJ5Ctnq+CJGWcvHJk8fvKqVb/8tOqv1Ws2zJ62eFBvux7f9O/evq9lh36WHfr27GjVu2P/wd0HLnR03Pn9jLN/LLq6aYn39uXXdy6/uXOF747l59ctWuJiP6y71fBBtjX1Lz5x4gSyMN6/eNasWcePH0c33rx5Ey0ALgaAZnZxefpl8vxZlW3xgsor++4XG4sOy8j1KwGnnjcqCDQ6F9cYzM0ZGVt4T8Nr1ObJFbExF4uKxCVsOdaPQq7TsVTn4mLMxWrkYnGxzsVIxKYuNgCfGEhTrXzxupWr1KVP42OXL1mx7Pulv/22bv2GTcuXrnAeNXZAT1vLjlY9Ovaz7Nive7s+lu372lgMWDlh7OFV8y9tXOa5bfmNXT/47Vnhv2u5/66l13cuOffX/D+mj5lobTPKbrihT/38/LKyss6cOWM67u706dPoroCAAHAxADR/jaJcpShh36HqLFzo9apYqtQ0tEBhqEjcvOiylmpDLUWGetcoGlQyblCxuELXp43IpzPEdDGWiyWK1y6WVR27k0pV4qpcjOlYVWHoYn3DFawqxw7rVR7Z0+KD7rAx0Bp1hVqjVWXnZa9bv3HZd0v/Xr9l74H9x08cOnJk/7Qxk4ZbDRvcw6ZX5/59uvQf1nvwAienfT/MP79uqfuWFV6uK27u/sF/7wr/PcsCdi/137vMd9fSC+u/XT933HjrIYY+pVKpnp6ec+bMMZ2PAt3o7u4O81EAwPtRL1Zk0FfPIq88x/L5nTx/RdFzUXnjQ7FOkW6pFXoX1+V015sBrjVWMFKrZWdTF1dVJMwFan1GNsnp9cnFQna+gMGUMCSlXORinYixTmxS/cmWlBKJSiTX1yi0kioXqw36Uag1FSp1RZkK62UhQ5capGPdbJkafGIgrNNbmVJbSqYR9x/c/8uqX9f88uf2HbvOnj/hd+vq37/8OM3RZdII50GWgyaPcNi4dP6Jtcsurlt+5vdFF9Yu8t21EgvF+1YE7Ft+a9/ygP3o+nKk43Prvv3OcdQC55EwTxsAfGAuVsTuI89fQHssqijNoK+cRd58C2U8k0Baz5//VeIzzMXmqwf1UmS1w3Hv0MU5QjZRQGdJ6NIyjs7FMqnuHEvSyhN8YPNRSCpzsbhUNyuQCjt2V6Va3QmTVBVl2KxAWnmJVlxcLirTyrAT4unuVWEKxqYNKq4oQaGbJ2VExYRu3Oj604+/rl27cf2GzWvX/j5/5oxFkyev/X7RdHvHXasX3ziyzv/wn6d+W7B+xphTv84PPLwm8MCPgft/CDywIvDgD4EHVyId++1dcW3Hsu2LJ/8+1fH3hRPBxQDwQeXiigoNFxkHu1LK5ZRozEXdevZP0OuyUS42V6PAFquMxrW72DhWv2kuJvGL2GKazKBGIdXIZfigD12ZQqaR6ibMlJVWyJVahRrrX1yqS8GYZEu1JSVYZRktJpSpeQqNADshni4X6+bSVOkmzFQhF0vVYomSR2bkXr3m9vffG9ev37Z23Zal36+YMXna3PHjt69c6LbjV699v/kd+evMhhVzRti5fjflxt5V4af+Cj32a8jhVcGHfgw+/GPQoR8D9q/02/uD985lx3+ZuW/FpAsbF2z/eSa4GAA+JBfXiq5/Qn0qxWadiNxac5miHi7WORe/8R3m4iwBi8CjsURUWRmnpFyq61+MD/RQVLpYLZNjLpa97l+sLVZpS5TYuOcSZFgs8FYUSzUSiVogVfOKNQK0AH7iD42+gqFVl2nLsBq0Rigp5VCYuU8THvkH37wVcj3mQfj92Eg/38uex7eHndsS8M9vlzct2b1s6oZ5Yz13rAg98Wfkqb/DT/wZduQXTMf/rAo6/NOtAyv99q3w3b306tZFl7csdN/5vdfepXt/mwMuBoCW4eI6awjmSskNycU1HIWreoj+4e/Qxek8Zi6XykS5WMkrwaa7xF2MndSjcvJMtVSmlmL9i7XS12OgK4rLsDhcUlKBGjZJmy4Xi2Qa3QnxtCW60y/hZ/qoPLKnwc53p6tjlEuK1UJxCYctKmTy8yWlLLmSJ5RSSFn3ngUcfuR/OPD4WvctS3x3/Rh1cWOs1+77l7ffPv13+NHfQv9ZHfzPz5iLD/4YgHS8f8WN/cuu71/uvW/FtT3LvPcsPb1x4cxJo8HFANByXYx3HDbbpbfJahTmCiBv38UZXEYeysWSIrnOxcWYiJFVJToLY50odPVikbxqwkyk2jKtVImdaakURWP8dKLY2Z0xNcuRrLECBTZJmxopGFH1PFp8bJ4GLawtKdPKMCNrKud+KykXFWv4QhkhLd4n41UYOSUiMehYUtDx1KgLpOc3Uu5cuH/FNfLEH6GHVwcf/jno0KrAQ6sCDv0YcGglav4HV/ruX+65e6n3niW++5be2L909aJJ4GIA+LBdbH48Wy0irhZ1LyW/WY2ivi5u0npxNo9B5NM4EpSLucXlEgUSMeZibEZ5ablCopbjx+7kuvmLUUMuVmpl6gp8kjZdFaIcr0KodCdVKiuvKK3qX2w0DBrrgIxPKq+pwHSM91aunBNZzRXICAkv/fOJT9nkF7lx3unRl+kZEWJGvIASlxfnEeu+LfzoryGHVwcdXHXrEGo/BRz+MeDgSr8DP/juX+a9bxkS8XXU9i+5sfe7g7/NmDnRGVwMAB9yLq70qWHdwFTEryvL590+7FycxaMTeTS2pKjSxVq8f7EMrxdj88pj/YuFVS4WlZVL1Nricq1SP+i5asRHedU5oTERm5sbSOdjzMjqcuzcd4rScimysEItkKv5ciWTL8pOSQ8spCZwCxNfBZ+6e2rzY/c9RSmhEsYz6suAeN99t1E0PvJL0KGfA3Uu9j/4g/+BFTcPLLu+f6nv3iU+WPvOZ89in10LfHfM9XWdu2XFpNFODuBiAPigaxSY18xMQNGENYqa5rgwEe7bdTG3iMSjcaR0mZJXXI4Nt5NVuViG5WKZWCmRKAUKnYiROlEo1mjx5Ks1WVm5frid6dxABulYU16hUmKFYzFarVTFk5axpcVUniAtNS2ASkvkkhLjvQ5En1gftnv1gwvbOdm3mRmhr0KORZ9dF3r016DDqwMP/4y72G//shv7vvdFbe93XrsWXdux4JrrXM+tM69tnem9dZbv1tnXt89xXTl5zmQXcDEAfKAuNjRyrT2Oq1xc9+i4kx6uNUzbZmz/6s/4Vsfd5XCLCgU0nowuU/EU5ZKqGdqkMt2k8tg5lsrEmIuxXIyd6U6lVWi0ZTrbmku9VTquxcUV2NlIlToXo1DMlyq50lKWVFHI46UkpwRQyPH0zIdPPfc+8dgTeeBX/60rXgae4uTezn7g9uDqlrDjv+lEvCrg0E8BB3+4iRLxnsXeuxd5717osX2ux5ZZ7pumX90wxXPjNK9NM7w3z/TZOsfXdaHv3lVXju7bsnn73LnzwcUA8CG6+HWZosbBeHWPgW5MXDXEMBdXNPUT5XCoVAFVIKfJVVy5RizTSLBBd2pMymK1TKCU8MtEEqUQG+uh62KMDfTAXKyuwbZafArNqgpGjdFYgx36k6FoXKxBoZsnK2PwhJmvUv0KsiMy7rpd3/XDmTXzPdZ/57dzVaL/CVZeNCnRJyHwwJ2za5GL/favvLnvh5v7Vlzfu8Rn50Iv1wXXts/32Dr76qZpV/6edPXvSdc2Tru2cbrn+hmX/5oZdGbv3ZCg+zGx9+8/u3fvWVDgnZPHz2/4e9Oib79zdhoDLgaAD8fFLZosNqWQV8iTYsfujFwsxQbdSQVlYrFKqNCIdXNmypX4oLvKurDpPMW6SdoqVKjhZ4A2mDZIn5fxMoUSab1UK9EduxMqVByBOOdVqn9czPlo371+J//0P7vx7tUdDzx2pcdcLUgOzHp8NTH0n7uX1gf+s+rmvuXX9yy9vmeJz+7vvHd8e23bvGtb53lsnnll3SS3P8Zd+WsicrHHhpkeW78LvHLqYXRM7MMnDx/G37v39G503J2Ih4E3w88ccZsxbuHAHqP6drdzGDZ52sQl8EkAAHBxM7uYzKNwJEXSMq5cLTJwsVSiO6mHEOXiMoFcJSxR42OgZdhc8hVlGuwcS/gEQLpjdxW6Gdp0k7Qhz6J71djwaKVuAU1VRwvd8lgdA1tGrcVcXFpe6WK+OOdl8o0w/wPe5zZ6nV0f7L0r/al3XpxXZsyVWJ8Dkee3xl7bFeu1NfT4ar/9yMVLfHd/771rEQrFXtvmem2d47lputtvYy/87HL5jwkeG2Zc2/VTmPfl2Efxjx4novYg9gXKxdF3Hvn5BB/Zc2qy81yL9tZd2w7o081uxJAJYxxnwycBAMDFzUk2m1bApbLFReJSjlwtlKlFUhVWlJCoxJiIlSJ+CV9cwpWXcRVKvkIlQDG2TDedPDKyUluqO+udSnc26DJ1RWk51qcNWRjdhTxbUlpeotYFZI1WqdQN1dPozsCkxUbllSixfhRCXY2CLy1jsvjpLxK8gm/svXZmg+eZ9cE+u/MzIwpeBEWf3Xlt3U/ef//04JJr/M3dt8/8Hnh45c29WC7GXLxjvrfrfJ/tczz/nnz+R6ezK5wu/z7Zc9vy2/7ecU8SHz19Ffvk5cO4xHsPn0fHPAm+dXu/69ERA8e0+8yy7aeW7b/o1bmNVb/uwwf0hhoFAICLm5UMOoXAJNMFhUIFHTuMpuSJy7iCYq6gRCAoFXKL+RwZW6hgykpZxUpOsZJXrBboZmvD6hUlWJEBM6yyorQE6y8sVSJNY6fFk+nGUhcXV5SW6UaCoAWKtbISrGNyia4Pchl27A7rViwoVqNQLBCXMmjs5GdPrgT57EIiRi3Ed09uehiXkUTLe0p5dvuF9+G759ffdVsXdeHP22d/Dzryk+/eJV47F/jsnHd95zzfbbPcfnI+uWjkmeVjvHasuhcRHPf0Rdyz5EdPkpCI78e+iEIiDo4+vPe0vc0EpOA2/7Vo+2mPtp/1aPd5z3Zf9BhpOwU+CQAALm5Onme+fJWTlEN8SaGnM7gEOi+fxskrZOUVsklkdkEBi0hm5hdxCFw+USgqEInJIhlFrKBLSjhSJV+iEummNhYrNGKxkicp48hVSNZ8uVqA5Wu1VKqWKcoVJeUKRblcrBJKVXysJ0Y58rUU61asRFkbPQR9AXB4ciqJlvDowcVArx2ep9ejdsvD9UWcOyn/XhHlGSExJCHk1PNbh5IjjqTcPvLEb1fwqV88dn3n6Trfd8fc69tnefwx/sSiEed+nn798KYHUZFIxI/jk5GLYx+/vP8o8e597JDdsUPnR4+c1qfb0G7tB1h2HITaN1/1+fozi65t+4OLAQBc3MzcuXvrbkxAbGxg/LPwxMToxJd3E17effEyJiH5YULyo4Tk2MTkhylpjzIz43JznuTlPiXkxxMLEkmU5IKidBIjq5CVS+MSaNy8AkYGmZlOY2cyeTlMfh5TSKKLCmnCQqaExpEx2NIiCrI8P48rJgllZL60gC0ksAW5XEEuR0hgCPLIzNS0zKi7ESf83bdfO/2356l1Ny5uDL2x997t03H3LsXdvfgw7ETqY3d2XnjO48sxPq43jv7isXuZ945vb+6cd2PzjEurx1/dtOyuv+fD+w/iXiQ/fp4cF5/y6Gnyg7iku/efh4Xfu3TBa/6M5UOsnPpbDh/QcyRqPTrZdPiyd+c2VgN7O4wYOhE+CQAALm5O/LzPBPicCbx+NtjvQuitS+FBVyJC3CNCPSPDve5E+ERF+kbf9omJ8r1/98aDmJsPY27G3vd7FBsQFxcY9yQ47mnI0/jwZwmRzxIinsSHPnse+jwhNCEpPOnV7ZepdxNTYxJSYl6mP0jJfPQq/cGzl5HPX4W/SotMy7ydkhb+MiU8OSU8NTU8OTUyKTki/kXA/Ri3YN/dNy5t9jqz3uPkXz5n1/mc+9v3/PrrFzdgzW1D5M19BWkBT0OP3Tq3wefIH76Hfg49vibi+Br/fSsDT2zMzc1KTMt5nJgRl5Ae9zw19lnKg8fJMQ8Tbt955Ol+c83Kv22snAb1cUDNpq+jdS/7b77qa9HB2nbg6HHOc8c7zYdPAgCAi5vVxR6n/TxP+3udCfA9G3TjQoifW2jA5dBblyOC3CODPW6HeN4JvRYd5nU33Ds63Cc6wutupFcMare972ENXceveN4NvxodfiU6/PKd0EvRYai53Qm9eDv4fGTw2YigU2G3jofcOBJy/WCIz4EQ3/2hPvvRZbDPvmDvvYHee25d233LY6f/1W03L226cXGTz7kN106v8z779+t27m+fc+uvX9gYcHVrwJWt189uuH52Y5jPfjLxFZNOZDDJFCbzZToh/lXWk8SMJwkZT56nxT1LiY1Lirn3NCwkesPaXfZDJ9n0c0S5eGh/lyFWLl3bDezR2cbebsr40QvGOswZ5zAXPgkAAC5uTm75eQT6XQ0OcA8NunYn8nrU7ZtRd25GR/nF3L2F2t3oANTu3UXN/34Man4P7/s/eRz4/HnI8xchT58FPYvH2pMnAY9irz+853UvyuNu5NWY2+4xUVfv3rkcHeEWFXY+MuRMWNCJED/MxUGYfHff8tp5y3NHgIerv/s2v6u6dnkLErGubb5xcTPSse/51+36hQ2+uoZ0jP5EXva5sNnb/fjxkxdPnbmalJZBoNFfpuUkJGcmvMp6kZydkJKTlJaXmJr3JD7tzBmvKeMXDrMeM7T/6GED0aVLn262ndr0Q1eG20xwHjVzzKjZE50XwCcBAMDFzUnU/dsxD27HPoqKf/HwZdqzV+nPsMuMZ6lZyGwvklLjE5Ofvkx+nJzyKDU1Li0tNifnMaXoJYuXweRn0TmZDF42k5dNY6cX0BIIpMdZ2ffS0u5kZN3LJsTlkp7k5j/OJsRm5NxPyYhOSg5//tz/0UOP+9EX7kaejg4/FR128k7oCayFnIjwP3zrmusNt41+lzYHXN0W4rMnOvDovZAT90NPPgg9eT/0eEzwsajAIxF+h1GavuW1289jn/vVc9td/9mz92RA8O2sfGJyWnZyWk5aNjGLRMsmM3LIzFeZBSERcd/O/dnBbsqwgaOHWY+1sx7bz8KuU5u+A3uNGmrlPKSfM7pxDMrFjpCLAQBc3KxEP7of+/RhYnJ8DjGjgE4gM/ILGIRCVj6VXUBmFhDppHxqPomaS6Hm0IqyGcxsgYioUDJKtQJlhQTvwabUKrDRzBqBQsmUFhcKpQSRvEBaSperuArslEs8uZorVbKFJTSOKI/CSMojPMjKvJ2REZGREZmRcTs9/XZGWuTL534xkadvXt2MAnKo796n9y7lpUdQ8u4XER4W5T+kEmLIOdF5aREpiUFPH11/eNczOtLdP9D34BG3vQfPefiEJKdnvUrNSMsmZOUXkll8Gk+cQaRFPXixbu0el1HTkYLtBo0dYTPeurdDl3b9e3UZMsJmwqDe9oP6ONgOHOMwfCrSMXwSAABc3Jxcuuxx4+bNB7ExWfmpVBapiEeubFwqlUsr5FALmWQaq4DBJnG4JL6ALJVRi1XcMq1ErS3BTmqHjaxTlpcrdeM7dNNgYnMci8p0k8ortcXqihLUVOgurUyh5kuKaXxRLoebxuGkcjjoMoPDSeew06iUZ6+S/MJu7L3lvh0l4pzUUCEnVS4lKOQkhYyokOXLJHlCfhaTkULMf56Z+SglJebp83vXbkQcPeN9/KzPtesh8S8SU9Kzs4iFLImcxhMmpObsP3DOafjUEUMnOAyb5DJy2tABLh1b9enSdoDtgNFIwUPRZeUVl+E20I8CAMDFzcrpE+du3PR7Ev84ryCbwsYtXEDjFlDZKGBSSIxCMqOAauBisYQqL2OXlIsqTzCKnUtJXV6OnbBDU1GqrihWaWVl2HmYZKUVsjKsK3EJdmqlCkVxuUSu5otLigSSfIEwR6hrAmEuj5/DF+Qyma8yM8PvBB+65eEaFXSUkBEp5mfJ5WRFMUVRjC7JcnmBRJzP5WSRKSl5+c+zsh+npD2+5hd82Tv4sleIu3dockpWWmZONolcwOBQuHz/oKh5s1eOsp3oOGzS6FHTkIt7dh7S9vMefbrbDh88dpTNuGEDXWz7O9n0dRjYa5SV5Uj4JAAAuLg5OXPiXEDArRevXhCp+RR2IZVDQUYms0hkFjmfQSbQC0hFRAqDSGfls9hELq+ALyyUljBLNEJlRaWLdXMAqTQVSuRiDUrBWjlKzSVaiUIrKS4Xl2jlpVpFsVYqVQnEZWxRMU0gIQpEeSLUxHlCYR4fuZifg1ycnRUZFfZPgPv2O4FH8tIjxLwsmbQA6VgmI8lkRKkkX4gpO4NIfpVDeJGZ/TQt8+ntB7EBEQ+8/O54+kZG3IlNeJWWRSzIoxS9yiLs2nViyoSFYxxmDrceO3LIeLtBY9t+0bNLu362A53th453tJ1oN9BlSD+HQb1G9uk2rFcXW/gkAAC4uDk5f+piYGBwYkoiiYZ+3hcWsilkViGJUUBiYiLOo5EItHwyjUClE+hMApOdz+GTJAp6sUagc3GpboYgrKmxUIzlYhSKSzViZGF5uVhWLsSGPlfIFeUSYSlHWMoUFtOEMrJATBRJ8kVigkCAuZjLy2EgF2djLva/ui3q1pG81HAxN1MmyZdKiBIxQSzMFfFzOOxMCi05j5iQmfMsPesJcvHjpMSYJ4nXbkZeuBJ0+NiV2CcJKVk5qbn5V64GfL/wlynjv53gMtfGysm6j333DtZff25hO8DJ0XaCs90k52GTRliPGdzHvm83W8tvBvfuOgw+CQAALm5OLpy9FBIS8iotqQDlX3YhmU0pYKGGXSEyCgk0Uh6FQKISCml51KLcIgaBxSEKJBRZGaekXKKsUCgrinXnhJYjNaNWViEtKcfOxqTQIBFLpBqhHDufqRT9KSrDXCwqKRLLKcjFAnG+QETgC3I5/FwOD605OSsrQufirdG3juanRUq4WTIxQSomSER5Yn62kJPFZqQVFr7My3+RlfMsI/NJeubTxPT0u0+SL7iH7D/qcfCY9+2Yp/HPXwWHxcydsXyiy9wxTrOmjv921uTvBvay//rzHj27DLYb5OIyfBJqznaTbfs79+tm163twO4dBqJoDJ8EAAAXNyduF66EhoUhFxORcJlkFIoLmGQUipGOiXRyHpWYW5hHLMwjU/MotDwaPY/ORNGYLJTT5SpeCVaCQPKVyNVC1BTYLD88uZKtUPGRfJGFZbrLEt2sQFK1ADudkpIlUVCFmIuJuIu5/Dw2L49KT87ICL8T8o/fla13A4/mp98WG7hYJMgR8LI5rAwaLYVU8DKP8CInNz4zKz4hLSUo+snBE16//HnQdc/52Kcv7957/MvPm8Y5zxrnMnus86wp4761Hzqpa9sBndr0s7FydBw2YczIKWNGTh05eJyVxfBu7QZ2atO/dzfbft3BxQAALm5Wrrh5hIeHv0xJzCPnEmlE1PLRZRGRSCehUJxTSMgpyMkn55IouYXUXAotl8YgMLkFXDFVVMySKXkylUCqFIhKuMJibDo35GiRrAilZuRihRY7V5OigAw3+wAAIABJREFUXIK7WFEuVqCYjHRcUiSSkCpdzM/BXUwpepWaGno7+PDNy1uQi4kZlS6WiwkyEVaj0Lk4s4iWWkB+lU9MzM17kZEV//h5XEDkgyu+EctWbj5z8cbL9JzwsJhJoxe4OEyfOHYu0rHziOndOw76pk3fQX0dhg8e6zx80lj7aS4jpvTtbte9nXXnNv0tvxk8sPeo3l2HwicBAMDFzYnHFa+IiMik5MQcUjaBkpdXmJdTmJdLIRCo+UjEmaTcLGJ2XkEOkZxTgHRMy6XSCUUsEpNP4UmKBAoWUjBfzuZKmWxxEVNAYfLJXGGhuJipUIuKdS4uLq9smJ3LRQqNQFrKEkpIfFE+Hy8W8wnIxYW0l8nJQRGBh25c2hR96ygR5WJOplxEUIjz0aVEmCtELmZmUGmpKBcTSIk5hBfJaY/PXHB7GJ8U+/zVqQvej+JfJbxMX/fHDuTfCWPmzZiyeLTDDOs+jl9/0ROp1naAy8gh40ePmuo8YnJ/yxEoKXf5ekC39gOtegwf0t/ZsuMg+CQAALi4Obnm4RsZeScxOSmDkJlTkJ1NysokZmWSc7MLCRmknHRidlZ+Vh4pm1iQU1CI6ZhCI1AYRBqbzBBQWCIaS0xniOhUPo3CLaSwiEWsPBY3X4RVMIS6OCyXl8ukaolYKRKW8STYWZ/5whIk7kKOgMDhZXM52RxeLpubU0hNTH4VGHHr4HW3TVEBR/JTI8XsdJkwD4kYNakgV8jNYjHSCimviAVJecSkrJwXjx7HLFq00u9WRFDY/TsP4oVSmZubt4vDDHu7KTOnfj914sJhg8d2bNW3U5u+g/s5Du3vYm87cazT9EF9HDr8r7dFh0Gd2lj16DQY/Yly8Tet+sAnAQDAxc2Jr7ff7ajohJSk9LyMzPzMDEJGGiEDWTiLnJdRkJuOruC5uCC7oDCbTM1B0biQTqAwSRQOmcqlFPGpNB6lkFNIYhDJdAKVkcPk5AllNJlSUFxe6WKJSiIoFfCKefxijqCYzZMxGAJyESuHyczgsjN5vBwuN5tKSXiVFBDmt9/3wsYo/yOk1EgJK00myEU6RiKW8HMEnEzcxQRSUi4x8VXq48tXr3678Md9+07u3Hn83uOkPBIFhWKnEdPGOc2aO3PFWOc5vbvbff15jyEDnIdYOaFc7DJqqr3d5K7tB7b5zLJXl6HdOwzsZ2lnZTmiZ+eh7T7vCZ8EAAAXNyeRkbcfPYlLzUrLIeXkFuTmFORkF+TkUAiEIlIulZhNJqAb8wvzCgpzyVjJOI9SlEehEwoZxEImqZBNonLIFC6ZzCYT6cSCojwqI5fFzeOLKeISjgybY14q00hFSrHu/CBctpTJkdBZIiqVTaDSMxmMdORiPjebx8mkFj5PenEz5MZe7/Pro/z/IaVFillpUn4OLmIxL7vKxcnIxdn5SQ/iolf+8Odvv2/54Ye/1/29J/Lu0ytXbs6ettR51LTpkxbPmbF8qPXYjq37oeQ7dKALysV21qPHOc3sazm87Re9vv6iZz8LO0zEPUb06mLbpe2ANv+1hE8CAICLm5Ps3Iy8fBR4SVQmhcaiostCJrmQTcEGQLOoZAaFTCdTGWQaowC1IibW6GxyEWooF3MK6NiA6ULk4nwGkYRyMSuPzcvnCcl8GV1YyhOXCcVKIQrFbDmHKWYxhDSGsLCIRyQzsqiMdCYzncfOFHCy+awMasHTxPjrQT67rp1dd8f/H2JqpJCVKuFnIxFLeNlVLk7HXZyek3DNx9txxNQ//tj17cI1rruOXnH3nztr5Wj7GRNc5syZuXz86Pko7XZo1RuJeGDvUYP7OtgPHe80YkqnNlZffWrR+Wsr6972A3uNQst0x4oV/cHFAAAubmYoTAryL51FY3KKmDwG3lh8JlvAZAmYTL7uTx6drWssbhFqTA6VwaYUMcnIy0xOIYNHofEoZE5BATOfxiKweUSukMwR09gSJlfGEig4PDmbIWZQeTSUoCkc5OscCiO9iJHGZmXwOVkibg6fmUEhPUl46hPgtcPj9Nrbfofz0yIFrBQxLwtZGHMxN0vAzmDRU8iFL3OJiQnJces3uo5xnDN+7KJVazacPH0lLOzejElLXexnTho3f+a0JbbWYzu16WfVY/iwQeOsLEbYDnAZ6zDduo99m896tP7Mom9326FWLj062SARW35j0/lrlIst4JMAAODi5qSIw6Bz6Gw+gydk88QcrpiLGk/C40n56BK7LubyxRy+mM0XocZicVFOJuYX5OQXZBPJuv4VVALSMVtcROejvJzP4hI4fBJTQGUI6UjHPBmDI6HThVQSk0hk5JIY2YWMDAo9jc7K4KBQzM0WcTAXFxIfP3/s5Xd16+Vjv4VfP4hczGeliDAXZ4k5GUJ2Oo+ZwqAmkUjPs3KfBob5rVjx+6rftsya/cPufafCIu7/+ev28S5zxznPnjph4TiXOV3aDujZ2WbEkPHWfR1RLnawm+g8YmqXr/u3+qRbhy97oVDczwIrE/fqatuz85COX/Zt/Z/u8EkAAHBxc0LnMhlcBkfARKrlYSLmcERsjojDEXM5ItQ4XBFXIOEKpByhlCMQs2lMCoGYk5OXkZefmUfMzM3PJBbmMvkUgQJpl84WFnKFJLaAxBAU0oU0tpjOldLZYloRvzC3KDeHmkWgZZCKMshF6UWsTDY7k8fJ4rGzWMw0Uv6jJ7Eevm4bLv6zOtR3PyEtksdMFnIykYWFzFQ+I5lNS6KQ4nOyYlNSHxw5euT7pb/ef/x8w6YDN2/dDgqOmjR24WiHWRPHzp8y4dshVs7ffIX1nbCzGdevx8ihA5xH20+3sXJu86klcnH3DtYDeo7q290OtT7dh1l+M7jtZz2/+qQbfBIAAFzcrLmYTadzinRVCAaLzyhiUwuo+XnItoSsXEI20i6pkMDg0Fh8tBgV3Uuk5GfnpmflpObkpecQsJZPzmbwyHxZEV+OIjCFJyGzBMQiHonGx/q9MUWFTCGZyiVmUzIyyanZhSkEShqBmkouSqMWpdJoydSiZDIlMTPz7v3oi+5n1p7ZvzLo2u7sVyEsagKn6BWHmsQufMEkx1MJT/Iy7icn3n7yNHTjxu0Hj50j5BceOXnp4ZPEA/tPu9jPHOM4e8qERWOc5nRvb927q63d4PE2/V36WY5wHD7ZccSUHt/YfPl/Xb/6r0XvrkOtLEf0sxhuZTm8T7dhXdoObPNfy1b/BhcDALi4WWEKdMlXyhfKBDwJj8ai5OalJ798/uLpQ9QSX8RlZCQVsQop9AIC1qEiP5eYnZH1KiMzKTsnJScvLZeAcnEOjU2kcQhFXAKVmcNgY1UIIi2dWJRRQM8iM7MKmJn5RWkZxMQMwvNMQnxm3rO03CcZOY8zs+PSMx+mZjx4mRId9/jGrZsHT+5f9c/2JV7nNsbf98hNi8hLv5OXdjsvOSLnVXj6i5CEuIAH0b4hgVfWbdoWEf3g3oOnsfGv/IOiflm9xXnUjLHOsyaPXzhs8Ph2X/YaMXSi7aBx/Xva2/Rznjh2zjDrMe2+6PXF/+vc8au+KAv36mZr1WvEgF4je3UZ2rFV368+6Q4uBgBwcTPDFnH5Eh5qTC4D2TYzKyUpMT4u9v6TR/eTEp5k5yRjh+nYRQW0gnxyLgrFufnZ6ZlJGVlJBGJWPjmPWEggFOSkZyclYydnevwy5VFS8oMXSTHxCXefJUQ/exH1LOH20xcRcc/CYuOCHsYG3H9w826Mb+Tta6GhV4ICL/r7nfbxOeZx9eD5k5sP7Vi57Zc5W1ZN3//3Qrd/fve+sNXXzdUHtYuuPhe2e53f5n5my8WTm44c2Oxz42ZaVt7uvWfXbdq/cdOBaZO/H+M4a8qEb0fbz+zV1bZ3dxSKxw2ycrLu5+A0fPKksfNQOv7qP92/+L/OSL59USLGxto59u85snuHQW0/7/nVv7u1+ndX+CQAALi4OeGK+Wwhh0wjJ6ckP3sS+zg25mHM3dh7d1/Ex6HkS2dTmDwmjU0nUUnI1IV0MpJvVm5abn4GiZJfQCOhpJyamfzoccz9BxExMaF37wZG3fGPjLgREeYTFuIVGuQZHHglyP/SrRvn/XxO37h23Mf9iOfFA5dP7zp/dMvpg38f3/3b4a0/7l+/dOev8zevmLJ+8bj1i8Zs/G7c1hWTtv84FTXXH6ft/GnarlXTdv08bdfq6a4/T//75yVh4RGJL9P//GvvngPnf1mzdazznHEuc6eMX2hj5dKtg/VQ69FDB4we0t952OAxE0fPcRk1vVv7QV/+u2ur/3TtZzG8f4+Rg/o52Fg5ooDc+ev+ugJFV3AxAICLmxkGj5VDzH/yNP5OWERUaFhMRPiD6DvxT2Kzs1OwMrGAVcRlIBfnU0hECpHOKSosKiBSCAVUIoVBLqQXZBMynzyLvR0RFBHqFxZ8PSzQO8TfM/Dm1QDfS37eF25eO+frftL70tFr5w95nN535fhOtyPbLhzYdGb3Xye2rzm6aeWhv77b/+vcPatm7Fg+cevisZu/dd60wGnjfMcNcx3Wz7FfP2fUhrmjtsy337bQYfsiR9fFTtu+G/378iXR9+7dCIj88eeNvjfDlyz6bZzz3IljFziOmN6zq61Vz1FDB44ZNmis3aAxTiOnTB6/AAm6w5d9/vfvru3+1xO5eHBfx6H9nQf1se/Ryab9l31QXkYi/vL/usAnAQDAxc1JcnpGVPS9IL+giFvB0aFhD6Nuv3gam5efzhVxuGIeS8Bh8tnIxUUcrNMxg0unMAqL2BQ2dnpPehGb/DLleUx0WCQScdD1sFveof6eIf4egTcuB/i4+XtduOl+2ufyMa+L/3ieOeB+Ys+V4zsuH9128dDGc/vWntn1y4mtPxzZsPjQn3MP/Dpjz6rJO5aP3f69y9bvnLYsctz8LWr2mxfab1ts7/qd/Y7vHXcscUSXrktH//zDqqfPkzy8Qk6c8/T09F84f9V4l3mTxi6w7utg2XnIwD6OQ/q7jBw60d5u0linmRNGz+3ZaWjr/1qgXNypTb+Bveyxc9wNGDOg5yisW/GnPVrpChTgYgAAFzczd8IjIoJCIoJC74SEPoy+nfTiCYmcyxFzeBI+R8RjC7nIxcjIHBGXyWNQmYVMbpFYzpErBajlkTLjHkXdDkMi9g0NuBbi5xF042rQdRSK3fxRKPY4e/3KyWsX//E4e+DKyT2Xju5wP7nD64yr1+ktHsfXux9de/ngGre9P1zcteS867dnts49tWnWyfXTjv895di6ycfWTkTt6F8Tjv41/tjaCcfWjj/25/gjf4w/9Me0ZT+sfvL8pad3iMf1sKVLfkeJeJzLXJdRM7q2H2jZZeggK+fhNuMdR0xzGjUdayOndW7d/0sk3E+6WXS0HmLljFyMonGvLrYoLLf+jwXm4v8DFwMAuLi5CQ+4FRkUFBUW9igmKiUpvpCazxVzBXIRTyLgijEdc8Q8zMtCNp1NK2JRBFKWQilUqERsAS0h8XF0ZGBYoE+I/7Xgm+6B16/c8r0c4H3Jz+vCDc9zvldOeV086nH20OWTey8c3Xnh8DbPU643LrjevLjN9+xG39PrvE/8du3oT9f++cH94JKr+xdf2bvg0u45brtnu+2adXHHTNQu7Jhxfsf089unnd829dy2qWe3Tj2ycd78RSsioh4dP30NuXjG9GWjnWaPcZ5taz223Ze9enW3GzJwzKhhk8c4znYeNcN51LShA8e0+7zX//6vy5efdOvRaTCysI2VU/8eI3Sh2FIvYnAxAICLm5nbQcHRYaFPHsakpSbQWRS+lCcuEQvkQp5UiFyMjIxdl3AZPKwbMkfIlJbyFWqxUMHNIqQ9ir0TEXw9+KYHysK4hf29Lvp5Xrjhcdb36mkvt+OeZw9fPbX/4tHdZw+5njmwxf3E1uvnt924uNn7zDqf0396HV/jeWSl1xHk4u+vHlh4Zd98JOJLe2YhF7vtnInaBdfpF1ynXUAu1un4zNZpB9bPnz5zsbtP8IbN/2zbfXLyRKxDsf3wKT272rb7srdVr1F2NhNcHLC+xvbDJjuNnNrXYnjr/1p8/v86f/lJV4tvBvWzHD6g18h+FnZtv+jV6pPuX2IixlwMx+4AAFzczNwNC3sWez8r8xVHyBIWi8QlEnGxRCAXIxfzpUKRQiyUC1gCBpPP4Ik5IgVPrhJJlSIKk5yY/Px+TFio/7VbPpf9vdz8rl246Xn+hse5G+5nfVAivnTc89w/7qcOuB3bc+7QjlP7tpzcs+HykY3eZzb7nN3gceKPayd+dT/845UDyzwOLb20d+GlPQsu7ppzfseMiygLb59+fts0LAhvmXJu65QzWybr2qQTG6fs+G3epCnfnnHz/fWP3b+v3Tdh7AKUfwdbOXdo1afjV32t+zo6DJ86aez8ETbjRwwZN3Lo+G7trVt90u3z/9fpf//u0rntgF5dbQf0HmXxzWC8goy7+H//rwvMDQQA4OJm5nncw+ysVK6Q/f/ZOw/wKKr1jd97/dsFCyq9ozRBMFbsHfTiVewNEBWUK0hVBBQQEREkRpRyRVFAKSKE0DsJgRTSSUhCEgIJCQnZNEiCIJD/t3N2Z6ecabubZJO87zNPns3ulHNm5vzmne+0wrKiktMlReXFtrLi/FK7HSaDXFRWmFeUS5g+UZpfeKqgpKLw1N+lxwqy4xKjw/eHbtqwasXiBb8tnLPkfwGLF3xLCP5l/je/zJ318/dfLwyYTo547tefzflyvP+Uj2Z+OnLmxGFzvxyxaPaoRbOH/zjjvZ9mDF7wxYB5U17739RX5xKIP3tuzoS+AUThT54K+Jgo3IdA/O3YJ74d+7j/mMf8x9Dfx78e8eToQc8+2rvftJnz3x8+5Z3B44jFd/R4rE2zWxtc3KLljbf43froQ/c/2+uOPrd0vLdntwe7dbqvyTWdrryo+WX/aHzFv5o2uqpdp/Z3dWjld0ODmwjQ9L19IRxf1KLRle1xJ0AQWFyTSkqKPV5wrLCssPh0CZniwvLiglNFtlPE5VJicUFp/vGi3ILSE0XlhQTik2fo1xNJhw5ERu0Lj9yzMWgF2eFf5n2zaO7MRd9//fOcr3767suFAdOIwvNnTZo7Y+KcaeP8p4yZOfHDr8Z9MGPc+z988cHPM4f/PPO//5v+7o/T3573+RtzJ70yb/LL33/a7/uJz373Sd9vP34qYNxT337U+9uxtDzBEDx79GP2ZdRj04c/MWzAc489/fzUr+e9P/zz5559++H7n+vW6f7G13Zscl1Hcsf33f3vB+59xu/WR265+d7unR/o2OZOwi4B91Ji8f81bXztTV3a39XyhluuuawNA/EV/2pGC+G40RXtcCdAEFhck8o8lpZXkld0uriwothWXiKCuPSvUtvJgvzivBMnCcRFJRXFBOKTZ0rSs9L2x4SHhYdERIRsXLdiycKAhXOmE39//Hbq/2ZPsbeXmPnp3K8m/PDluDlTP/KfNGrmhOHTPxr6xejB08e88/3n7y2cMXThV0PmTxu0YNrAuZNf+/6zl3747MXvJpIp/k/AuH/7f9yHltlje/uPeXL2aAeFvxn1KC2zRj76xbAnh7z50rMv9/9y9o/vDZvy5OOv3n933w6tb+/Q9nbib7fO99/fq+89d/a+6/bHu3e6v13znm2a9iDDawfuRU2vuaJVxzZ+7Zv3vLHhzQ0ubnnlRc0YiGkhj9y44c24EyAILK5JZWQdyivJt5UTiEtPOEF88szJojJ7lV1BaUFRRTEZ5NLTxSf/Kj5enBeTEL03LGQfsTgydNuWwKULv/uf/9T/fTN5/tefzZsx4Yfpn3w/7eM5U8d8O3nk7E8/nPnJf6ePHTJ15NtThg+YNnLAnMnv/Dh98P++fGfu5wPmTX3z+0mvzPn0xe8/fSFg/H8CPunr/1EfwQ73nj3aDuJvRtr5yyhMf2eOeGTKf3u/9dobH4ybMHve4nffn/jEoy/f2fOJ5jd07dHtoX/3eePu25/s0fXBO3o8dmvXB+zTPN94S7NGXa69vO0V/2p6Q8MOHdvd2bndnc0bdbn60tYCgpte/k/7coVgiptc0wl3AgSBxTWp9KNpxwvzbWXFJ04WFZwsLCZHfOZkcUVRfvHxEyUnCsuKiMUlFUVkigvLbEmHDoZHhu7dtzssMiQyem9kVMifyxeSFyYj/P2X4+d88dF3U8cETB7lP2nENxOHfT3u/eljBxOIJ38wYNL7r08d/nrAZ28tmPbO/KmDvp/8xg+TX5vz6UvfTXzhuwnP+X/879kfPfXNmD7fjHrym1FPzBr52KyRj8wc8fDMDx+e9eGjM4fbP8/48OGJ7/V5+aUBY6dO/+7Hpf0Hjn7kwRc6trur8XUdb7/10Sceealnt4e63nzv7d0f6d7xvpta+bW6sVvz67pce2kbssA3Xt2hQ6vbyCk3vbaTwOKmVwggpp+uvrRVk2s6NrkGvhiCwOIaVdrR9NyifNZqoriitOSvk8XlRfklx8ksk00udJpiovPhY5mRMeH7wnbvCw+OjN4XERUaGx+2c/vqn77/cs4XHwd8PvbbSaP8P/3wmwnDZo3/79fj3ps+5t2pIwdNHjZg4nuvT3z35SkfvOw/of/cz9/6fnL/7z4lEL8cMIEccT//cc98M+apb0b1njniyZkjH5854tGvP3yElq+GPfzVBw/NcPx9aPoHD3/0zlNP9X6l18PPTv/2pwFvjb7v7r5NruvUruVt9979dJ/HXyEWd+/yQM9bHup6Uy/yxcRicrt28l7UtMGlLa9v2L51k+43Xn3zNZe3uebS1uSFWdOLxtd0vLHhzai7gyCwuKZ9cdbhHFt+fomtsLyEHHFJRfGJkrycgmP5pbaCsiJbeVGxPVhcdOxETlxSLFGYWLw/am90XCRZ4/3Re6JiQgL/WPjDl+P8Pxs5a8KwmZ8MnfHxe1+NHfzl6Hemjnhr8gdvTnz/tU/efmncoOc/fe/5b8a9NmfSmwETX/Of8PK341+YPe652R//Z9aYp78eae9r99UHj00f/shXwx+Z/oGdvNOGPvglLf99cNr7D0y3/31oRP9/P3Tff1q38Bvw9sevvfGh362PN7y8VacOdz/5+Mt9n37z3rueusvviTt6PHZLx/vaNuvR5NpOja/p1PCSVlf+X7PrGrRr2qhTm6a3Nr++a7PrOruWRl2aXdv5+is7XHsZ5oGGILC4RnU46+ixgryCU8XkiEtPl+YXH885kX2s4FhO0fHc4jx7I4ri3OOFOYmHksKjw8LCQ/ZHhcUdiI5JiA4N27U3bEdsQnhUdMjvi779dsooe1BizLvTRg36YsTAz4f3n/zBG5++/8on77w0pv9zo994Zvzbz8wc89K3E16Z/cmLs8c9P/vj52aO6Ttz1NMzRvSePuyx6R88Ou194i8tD017387fqUPsyxdD7v9iyH1fDnng83cf+O+r/77nzqebXt/1ySfe7Pvvtzq1v6fhFa27db7/kQf7PfHoS73u6HNnzye6d36gTbMeja5sd92V7ZoIEYmrL2t1c5vbO7e/u12zni2uv6XptZ0bX92RlhbCZHfNrutCHvnqizHfHQSBxTWquMSEjOzD+aUFJX+VnCjOy8rJTDucnJZ5MD0rJT0r+Uj2wWN5yRGRIdHxUdHx+xMOxiWmJiQkx8UciAoN2xm6b1tYxK6EpOjUjKSgNb/OmTaWQDx52BuT//v6pKGvfvrey+PffWHsgOdGvPrv4S/1Hjfw6a9GEoJfmDn2uZlj/zNzdN8ZH/aZ8WHv6R88Pm3oIwTiqUMe+nLIQ1+896CAYILv/Z+/e599eefeqe/c+9mg+9954d+393yiSaMuve7s++hDL7Rs3L3xtR1v6/7Iww8+1+fJ1x6+/7keXR6yT/98VYcG/9eCcNz8hq7XXNamwcUt2jbv0andnfRT80Zdml7biRjd4vquhOY2TW5t3PDmhkIHPNwJEAQW16SIs8lpB/LsNXV5mVlpKWmJqekHUg8npGQmph9JyMiMDQ/fFhGxJzElMSUjNTk9+UDqgYTk+JiE/SGh2/aEbt4Xvn1/dMjBQ3GJyTF7gtevXblg8YIvFwZMmP/N2O+/GjH78/9+/el7X37y9hcfDfhq3Jv+E9/0/+Tlr0c9M2PE018N6z1t6OPT3n906pCHp7770NR3Hpwy6P7P376PlimD7p0yqNdnA3p9NvAe+zKAlrvHvd7r9b69e3R7hEh6R88n7r69z7VXtu3c/p47b3uCWPx07zfuuu3Jtk17Nrqy/VX/1+LKfzVrfPXNBGti8RUXNW3Z+JaObe8kF0wsJgq3urFb++Y9O7S4jf695tLWV2GcNggCi2tckfuDkw/FZx8/kpmdnpAUe/BQfHJaXGrmgZSMuEMZ0QcS9+7auT72QExKxqHkjNSkQwcPpNhZHB0fuTt4Y3DIhn1hW8Mjt0fs3xl7ICwpNSYlLeZgStjBlNCklOCEpJ0xsVujYjbtj94QsX9tcPCyDYHzli74dPaE1ycPfmLCwIc+fuP+j167d+yrvca+0mvsy/eMfvEu+/LCnSOfv2NEv9uHP0uLHy3D/mNfhjx957OPPdm9y0PE4p63PNK1430NLml5a5eH7rmjzyMPPf/gvc+2a2EfZeKKfzW7/J9NyQvbQxBNb214SatL/9W4SaOON7W5o+WN3Vrc0LV1k+4E4ptb3d6++W03NriJwH2V0PsOdwIEgcU1qT0hW6Nj9h5Iio6JCT+QHJ94KCb5cFxK5oHU9KiEA6E7d6wL3bsjMTXpYHoKgZg+CCyOi4mP2Llr/e7dQfvCNodHbovYvz08Yht9iIzaGRtPII5MORybeiSBlrSjielZiWlHD6RmxKWkx8clhK78zX/YK48O7H3Xa4/4vfbwba8+1OP1h3vS8uoDPV56oMeL93d/4b5uz9/b7bl7uva7p+tzd3f5z11dn+vVs8+dtz9056O3dHygyXVVO/n2AAAgAElEQVSdb+l4f6sm3Rte3rpbpwfuv+eZB+979qY2dxGICalCk+Fm113Zrm3z28gXE2ov+Wfj6xq0a9eiJ6G5dbMebe2OmFjs17Zpj0ZXtLebYrAYgsDiGlfQH4s3By0P3rkxJi4iIXl/UlpMUnpcUlrcwdSIXTuDdu7YQOQlECenMRYfOJCSkHAwNjo2bPuOoB3b/wzduz48Ykv4fnLHW+0fIrbaoRy+JSxs876wTfZl36a9ezeGhKzbvWvtjh1rdgdv2Lh+2dD+//nP/Xf0uaN7b79uvf1u6ePXrc9tt/TuecsTPbs+0bPL4z06P96j02O3dnqclu6dHrm1a69b7+nYpkePLg90bt+r2Q23dL6p1w1X33zdVe16dH3o3rv7duv84PUNb7ry/xiImza4pEWbZj3at/Rr1qjLlRc1u+Qfja+5qg2x2D7TXes7OrT0I0dMS8vruwoBimZX/rMpLbgTIAgsrkkt+2nO2uWLdm1bm5yyP+1wdOKhqMS0mMSUiL17N2/bErQvfA+B2L6kEYgTD6TExx+Mi0uMjowK3bzxj00blu7evXrvvvX7wjfuC9tAy959G/aGrg8NXbcnJCgkeC0twcGBu3at2bF91dYtKzZvXr5l08o1qxaNG9b/5Ufveu6eW5+9p/tz93TvJyzP9+rW7x623ELLc/fc0veOro/1uKV7606tbujc4oaundvf06n9PS2bdG/Xyq/Bpa2uvardbd3p90ea39CV/O/lQle6Bhe3aH59l5vb3Nmmac8bGt5MX178zxuvv7pDh9a305cd29xxU8vbWa2dvfXxJa2utI/T1vRKxIshCCyuWa1Y9MP6PxdHhm/NOZ5wKCMq8VB0/MGI6Jhd69et3B28PZHc8JGMlMy05IxUO44PJdmtcXJ8dMy+nZv+DN4ZGBa+ZX/Ujv3RO/dHbY+M2haxfxu547BwMsUb9+4lLm/Ys2ddSMjaXbtWb9u2YuOGpRvWLf1j2YLJY98Z8uyDg3rfNajPXW8/ddc7T9317tN3v/vvu9/ta/87uO89bz9910sP+j3co0enFh1vvKrttZe1vu6Ktje1vuPmtne3benXuFHnyy5q2vCK1n63Pt66Wc+Gl7a67B9NhEGKW9x49c03t72rQ+s7WtzQ7dor2l36zyYX/+PG6xq0a9m4G0G8Q6vbyS8TiFtcf8sNDW+ytz7+VzPyzohRQBBYXMNas2xhyK61GZlR2blxyRnRCSmR0bG7N29YtWnzuv2xUcmZ6alHD6ceyUjNTE85TESm5VBKempCfPS+HRvj4iITkmISDsYcSBb+0kL/CktScmxyahwtB1NjD6bQ9/tj4/du2vD72tU/rfx97pcT3xsz6OmRbz4xcsATowY+Oeat3mMG9Rn7dp+x7/QZ83afUW/1HvLSo34339ryho7XXdFGGMfHPhh866Y92re6vctN9zVq2OGyi5pdf81N9O91V7W7/J9NiMVX/KtZo6s60Ded2/dq07znjdd0bHBJq0v+0ZhYfOUlLa67qn2TazvTr+1a3Na6cfem13ZudGV7YZAgNnImfDEEgcU1qq0bVyYn7z1+IjE1PfJAamRsQmjw7vVrA1du27l9176wkMj9Ifv3B0dE0OddoXt3hOzZHrx7x64dgSuXz5gwfvqUyV9OmfTFpE8//2z81M8mTJs8YfrUiTO+/NT/m2mrVi3eF7Y5cv82u2uOIte8Kypmz7q1i1ctn7/8tx9mTx85ddzAKR+9+fm4/tM+6T99/MCvJrz11URa3v74g9ff7PdMr1t7tby+Y6Mr2za4uDmhlhbC8fUNOjRr1LVnt0evvapdg8tbdWhz+w32MHEzZoqvvqx1uxZ+XW+6r33L25td1/nay9oQnRmLL7MPmNmJHHGHNne0ad6jtRCgoBWuYqMY/6s5gR53AgSBxTWpQ4dijp9IyclLTM6ISz58IGJ/8Ib1f27esmnzrt1b94Ru27N3y+6QjTt3B23dvmbD5lVr169YHbh08W8zxk9+5sE+j/V6/JG7H33k7kce6/XwUw893q9P79f7Pf3Wq/8Z8MqLM776Mnz/noNkjQ/FH0yNT0qJI7O8Yf3SP5bPXbZkzoI5n343a3TAzJHfzRw5Z9aob78aNWPKsHEj332+b997evTq0PyWZtfc1OjyNg0vbkEIvuwfjWkhHDe8uGWjK9p1aH0neeHG13Vq28KvwSUtGaYbXtqKvHCnDr1uan1H80Zdr7uiHXH2sn82IRZf+q8m11/doWXjbs2v79rE3vW5C61g75J3SeurLmpBICZkP3LfM7gTIAgsrkn9daa8qDQr58ThzOOZGTmZYZGhm7du2Lxjx6bdIZt2B6/fvnPNxs1rt2xfvWHzyjXrfl+5evHvK+d9M+e9F968o9Pdt3a4vXsHv543+93R5fYH77ynz8MPPNvn4Rf6PtK3d+8vpk6NSYhKP5qWkZWekZWWnnUoNTMpLGL7xo3Lflv83aKFXy6cP/l7/0+mTf5wzIfvDBnU/9k+z9zR/b6WN3YlBF99ccsGFzVvIIQOhPhDY7bYh1W7pPWN13S8rkH7ti1vI6vLwhdXX9qKPttB3PauFjd2u/6qDkIguPllQrD48v9r2uz6Lo2v6Xjt5W0bXtqa/pK/bnSlHdbiEMYb123FnQBBYHEN6+zfp22lBdm2Y2lZmZGx+7fv3rVhx+4NO4PX7dj5R9D6ZavWrNm45c+gjcv/XPvb8j+XLFn+9SdTnn/w6Tu69Op58513dLnzvp73PN7rgRf79n7r9WeGvP3c4HeeH/jmG78u+Tn9SEp2ftaxguzcwuy84qzjRYeTDsUGhxCMv1/869e//Dx96pSxD/Z6tE3Trk2u6Xj9le2vubR1w/9r2fD/WjS4yDE38xX/bCqCWLDGTRuQNb6yfeNGnVo06XaNMDYxq69r0bh7x7Z3t2luB7TQ79keCHaw+OKmja/t2PTazjc0uIkwTY646XX0uQOtc8VFzR6+75mN67fhHoAgsBiCIAgshiAIgsBiCIIgsBiCIAgCiyEIgsBiCIIgCCyGIAgCiyEIgiCwGIIgCCyGIAiCwGIIgiCwGIIgCAKLIQiCwGIIgiAILIYgCAKLIQiCILAYgiAILIYgCILAYgiCILAYgiAIAoshCILAYgiCIAgshiAIAoshCIIgsBiCIAgshiAIgsBiCIIgsBiCIAgCi2uDysvLCwoKcnNzcyAIqkOiQk1Fmwo4WOzrunDhQmFhoc1mq6ioOH/+PE4IBNUlUaGmok0FnIo5FXaw2HdFV6i0tBTnAYLqtqiYU2EHi303NEEPTJwHCKoPosLudrACLK5aFRQU0PsLzgME1QdRYaciDxb7onJzcxEjhqB6IirsVOTBYl9UTk4OTgIEociDxWAxBEFgMS4MWAxBKPJgMVgMQZCh/q4oO5519FDG0ZRDR+jvoayC0opzYDFYDEFQ9ehccXZ6ZETU7lDeEpGYmH3yb7AYLIYgqAp1Mi8hKoZPYckSsj8t+yRYDBZDEFQVQYn8w+H7ogxB7Fj2HTiYf66qizxYDBZDUH1zxNlR5kHswPHB9JNVW+RriMW5G8YPGjxwbozhekETBo8PcrPtdE7QJHHbqLlmDicqZs6gwXOia5rF+YHD/fz8Y93YMt7f2oa2wGF+w9faPNiDe/L0KLa19jMUr7d/+a+x/vJsCisFVENOZYfzC4h340SpUy49D/Jf6YKqTgvdTsMC0R+/srIwMcIiiB3h47Tjf1dhkfc6i8tsgfOzFy4pyNdbyU7GQfOiTDFxkgvF0fMGEsF5C4fXAu5d39u3naRJdfp1woYcPRbLU1ItLLYXWjcLj8cszrfZhJ1oJSAhIWHevHnCUBvCaqakhqYknbF6u9HKiwGL822BAbLj2ojFir2x42rAsaKiYsmSJcHBwcKBLIhOptVNdJJhzGIhX5IV7BdUfu2Eb/yGB+bXdxKXph0wC9+9ym/CU0tqky+2Leib0W9snk3lgk0uUibaASpBtuJfPe9s/1JuhIVvZMCVPBui582RMV3GYuHJQXvbkFOlLI71t1pyh69NEwqYtY14pVHti/WeB4xQ69at+/vvv7nc51g/e+5EJoqb8J8Z5h9CRr6YQyX5JgaMo0fO5MmTs7Ky7FuZfS5qnsyq88Xi/SM5mbJNTJyoeqITceFywkYdKa08dzw5XoHdfQcL/q48dyhGvnJ4ak4tYPG5+JzPfjpxuKg06MOMfvMLSrNOLJuSvbfMPVPswJ9smRdl2hfnBE3iHELhlHkxDedWEhbrG+qqujACQQLcLjsGvtikZdMq/MQmRiitY1lisUMu0hmwzCKL2bu5f3y+7NyyBOtDn5406wTRByWL9cJH8vSbe8Qa5dcEi+3ZGT58bbzsnLM0ux/sqnPKSQ3hB4JlON6XXPA3P6wcE5Pl8yw+Hzc/o19fx/Ly844PU7aWWwSiXtDWnC8WkKpBT4HmJgLBNRwv9tjFeB4v1gQiIxT5Yuf4c27EKHR9sQE4ZJtIT5Sx39THompb9sgha+xR+Ej2EOKmk3+q5fSXsNh+fvRDDTbdt6V6HaYoUPlf+xImw7ETxDkx4ZzARWhSQS2IUZw/W1ZxfP0RgcKHF+0vLz1zzmqAQrTAInmVkVwjGdJWWEFktwBu62mrUhYLMDKgWqxbwQ1NVPFZzAWizWabN2+ehFBei1FouXVpwhRPKcm/NnKFBqBRYVE/bhAcHCw+ctyIF3vmixVGWMFi/aeO9ouFMcfruNJjNULDThwXnCjWAbF9ic2uDfHisvjsd/tmDPwu99ehGf36Z+0tOu++KXa2fBBZbMR02i0Dq7GfdeyKT1U67vigDTXni5nN1CkwVdHCwUI7CiKUs9auClisNJuKhClDN+rgr2sPLgg6V7DCYvbIocy6Fy7w1Bfbt5LeA+rgr3jeXC7YuQJYbJ3FQiz46GlhpdO5ceHaq8Uc/dv3WVy2Y0pGv+eP7i6qPB2fPbBvxtgVxWfVntRk7NUZJZD6YjtD1ZtL1rQS2BVC0rL1WZBaQLB9n+MnTFLWJVY5ixlNhg/3VRbLa+0q3YlRaLp+/0CRxS5+qWOvsjPDs8nqlwZ3WCzW2ulHJ6zU6el5cKPaAo5NVjeTAIs9YHFMeGqB854+dzz1QEhorfbFlIn8vDKhf8rp/Dz12Bqmm7JJQsPmWSzzvLqLoqGxcxOJYRdYHJSrrEK00ELZjQsjFDAqgVZjFAbxQWWg0M4CS5KUeXmtnZVngzYHORFSDRZz3KsysK6ClFssltbaqQ6nehhos9hCZENZMaggptKMq546YLEpHY3nd3p2VdZFOGPHGjgOic+tHSzWDw3YW5WZi8ZywrhEZG3O8uIJZtq6OZJkKhzhOLq1NhXmL4wLBwYFRs0+E67WYJ+m2rSpau3cxy43VQYs5tXpqSs5lZBSsthUMF2j1s7kM88ggsF/okhYzKsYVAdGFE8dJYtRd8dVOa9xsQvEYfKqPB6Ow9NO1wEW62ZAgC8nlGzVF8uxq/reYXjNRkhqIF7seyx2gkNVa2dkbw1DIlZYzG26wGtwoo4aK3yxfJ9C7hR8lNbauZ1Zd/p60K74zUg4QWp11Fjpi8W8i+e53vviyvKjkdz4r6KyzoljZfvi0AMHiyvrNItZw2FuBMBtFmuvrGoAZ6kdRVX5Yg9Z7G4vDwssVtXaWQoWS7ynGg1C99x4HRarIsXaLJZDimPSOSyW/axZa+feg8eSL9ZqV86tMJQ+dbQqAOUshirPHVaEKfYlJmYcjlJX1oXR9+mR8vbFIbHZ5ZV1gsX8Lhg6IJZ1+pgXZSVGYT8Wp9rNlC92HtRa8zWvsthSvNhExNZNX+xCg9gb2EzUm5cY165c6HGkytE1TmSxgk2O/sS8+i5+Q2xht45eDy4Wx/s79uBKIZfFku7d1c9iShv3MvEbbwjvCqwbi+sK2tb6sz2ozjNALKjwcHioW+NRkCkurJoiXzO+WBF15Q8S5Iosz5nrli8Wdqthlo2CD84WyhaHE6o5X2xf38PurRoslrwv82rtKvXjyxqHkKSfQdPZR9nJDmmvZYM+eMadYhiLJbZas3uIcBpj+LV28Zb7pwuHcLPurtIsi1WnN15iqzW7h1CuLbTJq5M0Tj3gBov3JRdWVZGv0RhFzBzuABTeiVEIO+dhVN2Ojf+ocGyrHtTCF1ns1vgG2ixWVHAJezZXa8dCJVpkdCZb/uSID/DjVr6ZrGVSb85jsYt0bOf8hhkCtbdo97WrFl+s96pkyGLJCxN7eDjPjOyOstDFvO6qLPtAvCUQh8bnlFZdkfeBeDEjsi4cnSzmjVDBa3CmjHhIoD/IoMmEI3asHlGomsej0Gexom7HfKMFN3yxPISqTSiHbTQysJx2WgoGSUO9nMbCSljrDeGmBJ8z8qNsGSbF9LDAdaZr7bzIYv2zaso4S+4ZZ5tFZVM/KaYxNkVl5dmcFO1GxApHnJhXWqVF3gdY7LKimjFc4z7Qoi92m5tiSERvFIuBbrWs8BaLZY2C5cMUeKNcGbCYV2sncZ3cJ4cq6q308txGWopdGftBCxnUiCy7NHjpIfO1dhZZLAVrVYZuhSvCjyzrDV5aT3XmxNEo/bGMIxJTjp+t8iLvKyyuSTkpbKpzXcwcrbGSq+DC1Flxh1PQIAh8HFT1Oleen3swMXFfWEyIc8DikLD4yIS09PzTf1vfHVjsowKLIQhFHiwGiyEIAoshsBiCUOTBYrAYgiCwGAKLIQhFHiz2DeXm5p4/fx7nAYLqg6iwU5EHi31RBQUF5jsOQBBUq0WFnYo8WOyLKi8vNznKDARBtV1U2KnIg8U+qsLCwtLSUpwHCKrbomJOhd3tzcHiKteFCxfoCtEDk95fEDuGoDomKtRUtKmAUzGnwg4W+7rozaWgoCA3NzcHgqA6JCrUVLTdDk2AxRAEQT4ksBiCIAgshiAIgsBiCIIgsBiCIAgCiyEIgsBiCIIgCCyGIAgCiyEIgiCwGIIgCCyGIAiCwGIIgiCwGIIgCAKLIQiCwGIIgiAILIYgCAKLIQiCILAYgiAILIYgCILAYgiCILAYgiAIAoshCILAYgiCIAgshiAIAoshCIIgsBiCIAgshiAIgsBiCIIgsBiCIAgCi31A5eXlNpstNzc3B4KgOiQq1FS0qYCDxb6uCxcuFBYW0tU6ffo0fcYJgaA6VsCpaFMBp2LuSQEHi6tcdIVKS0txHiCobouKORV2sNinQxM4DxBUH+RJsAIsrvJrQ+8vOA8QVB/EghVgsS8qNzcXMWIIqieiwk5FHiz2ReXk5OAkQBCKPFgMFkMQBBbjwoDFEIQiDxaDxRAEgcUQWAxBKPJgMVgMQRBYDIHFEIQiDxaDxRAEgcUQWAxBKPK+zuLcDeMHDR44N8ZwvaAJg8cHWevHEjXXzJ4VipnDTY+QTqsJAIshCCyucRaX2QLnZy9cUpBvhMtB86JMIXKSi4TR8wYSMXmLFJcyFjPo8xfXnnOCJnHTo/U9WAxBkK/7YtuCvhn9xubZVC7Y5DJhgysrdvhKUKj4V8M7W/fFgilWLXOi7XvmfQ8WQxDksyw+F5/z2U8nDheVBn2Y0W9+QWnWiWVTsveWuWeKhXUUy7wofV/M+XWSmeiCcCzOmnZTLH0wVL8vLk1YPik4y8LKyxP44ySfSlgp/Skr2LGm+EG9/qTgbGHV3ZP4WplwyrX28km7s8QNeXLlwr6yZFtxq+WK7yAILHZP5+PmZ/Tr61heft7xYcpW5VieFiKwdrsqM6GmfLFgZk37YiEKwY4ij4cI+2FH9wTKHrOYIz629FhcWZkd7CKg67MxixmO5UdUolPCYjdyFJyg/m53Foo0BBa7r/NnyyqOrz8iUPjwov3lpWfOWQ1QiBZYJC/9tcRBs7WCjrWj5k5ycVxkPduJ87g5ubl2HFuuD6xaX3yKD2otqIl41bKuDveqMMLiJk74Cps7d6t0zQYMJfTb90NbiaAX80jZgTWGwGIvxYvL4rPf7Zsx8LvcX4dm9OuftbfovPum2Bn2FVlsxHS2W+ZzndzkB4KV0FdIiHXQ3upQjMJph4mV9Ne1T1O+WBF8UBPTTmQTTlbir2lvQhrsiXHtkHAsPygEgcXuoXjHlIx+zx/dXVR5Oj57YN+MsSuKz6oxN8kcip0BCqkvtuNYvbk0lOGsbZswabyas/zNleEOVfuKSR40abN6YXRMq9SousVivlE1wWJlYEGxid3tMhbrWXUVrAVP7XTiCEpAYLF321Gcy88rswcmKk/n51Wc41ldk03ExHCBJRbbV5g3Z649vBA0d7DS1eqy2GGo1UaYVQm6FaBwj8Xa3tBElRoPgs6ViaFGrJdUwUkDGnyPrOSvjNE6QWS2iWyf2cGTLD9IIAgsdlP8JmLcoIGDjIq2btphCsZiYv34oFxnmzZHXVyUCGUnixXBB0ebDZ3900+ORhqW2xpXEYut+2K5BXZFP7jW2ElbWYMH7tHt0YYEAbsO+DpjIIp/pRSetDuB80hYGRy8chKIDIHFNdwHmsGXE0o274sFUxylbF9s/9WxW3FzgbkCvtnjwSxhNRNZIzEKOeZULLaHDiToVLFYoymF6LjZttphB/tWp6QUFjcX/bL9gysZ9p9WGlbPuSIeEAQWV7t04gDmWRw9j1FSymJZxznJ5lFzB+vVy6nj2vRN9bej0JcHLJaEaF3fK5oJ8yyw8sus3RILrLE3RYPirN2SREpb2qEpBQQWVxuL+V2KdQOykk4f86KMYhSuTdjeFM02pCh3WWMuajltlsfPjcmp8gtDLBMbGDg4K2l+IPewbrKYWW9OUwp5OwdTLHZFHlTYdQFakTDWnIOTSGfeIQgsrg5f7OCpjIkqELsiy3PmWmpHIWOxsqpQvrncGvN2Iv5qtY2zuxdGYlcl4JOYR1mFmCUWO39VBwok1YDi5s6jC23ONKVMleyIisDFcqn9Xclx6KoeJRAEFleHJC1/9TEX7TaLVd32FJvLAxHK1sSuX1X7qaILI29NrOErJdZYH5TKmO/yhGzzjd7c8cWKWITysSH/Sbkf+QoQBBY/WL3JZkTWbcDrZDFvhAr54jTXmmMD8btQSxPDSYlbI3C6c2GUxtBle2V9jk0HVaWVZjLDq9+mzVlZx29coR+jEI/LbwpdaqanoG4baggCi6s6aqHZOME4PqAZo5AgmDO0pjxm4tYwclV5YSAIAouhmr8wEASBxRBYDEEQWIwLA0EQWAyBxRAEgcW4MBAEgcUQWAxBEFiMCwNBEFgMFoPFEASBxbgwEASBxWAxWAxBEFhcB5Wbm3vhwgWcBwiqD6LCTkUeLPZF2Wy206dP4zxAUH0QFXYq8mCxL6q8vNztawNBUK3zXlTkwWIfVWFhYWkpJtSEoDouKuZU2N3eHCyucl24cIGuEAtWIHYMQXWvgLPQBBVzTwo4WFxNYsGK3NzcHAiC6pCoUHsSmgCLIQiCfEhgMQRBEFgMQRAEgcUQBEFgMQRBEAQWQxAEgcUQBEEQWAxBEAQWQxAEQWAxBEEQWAxBEASBxRAEQWAxBEEQBBZDEASBxRAEQRBYDEEQBBZDEARBYDEEQRBYDEEQBIHFEARBYDEEQRAEFkMQBIHFEARBEFgMQRAEFkMQBEFgMQRBEFgMQRAEgcU1q4qKioKCgtzc3BwIguqcqGhTAadiDhb7tEpLS0+cOEHX6cKFCzgbEFT3REWbCjgVcyrsYLHvOmK6QqAwBNUHIjPXBRb7ojx/c4EgqBZ5LyryYLEvKjc3F6YYguqPNaYiDxb7onJycnASIAhFHiwGiyEIAotxYcBiCEKRB4vBYgiCwGIILIYgFHmwGCyGIAgshsBiCEKRB4vBYgiCwGKoBlkc6+8XEG9uVVvgMD+/YYE2XCoIAotxYSxA1m94YH5lfIAuQPMDh/v5+ceaIPHa4WyHpmR6t97Osn+85MkxfK063/H282L/3v6hOlJoPxWG540So7WOPZ1mHoH2C232sap5yXhnjHsn+MfzbjZTO1GeEPGKmJI9m0z2zAr+QMi1Rvb5BkLYiX+8ru0wTBLtxHyy6wSLczeMHzR44NwYw/WCJgweH2StT2FO0KSBgyapNrLvauCEDebOk7AyZyc1y2LnzWQCBAawlhRUvrjbyrAoKT88sRuau479J/uu3DiodnESV6MPVmy+wCAj8Wioc4ad+9S8RqYfgfb8uh4tOtdLi9dmWcxDp8hiM+9PqnvSKI/CDvnpF1lss+ULDy3FfmQJs0J//oayc+shiH2KxWW2wPnZC5cU6N5nUXOJdPOijPcWM0cKxOh5A4ngvEXCawGjasoL9J8TbZ7mit36AIuduJGYhXh/P6sSuaZx72qXXgV9tC0bh5haKxv7PpMsdv1kyv7IkKHLblkKNWlIKXTBRXV0S5dJ4uwUgNN4BuudQ3Ms5p8E7Ue+7AHGNuSsbNYaq9Lv8sXKG493/tkh+M9U+1Zy6EtPdKxkK++F6XzIF9sW9M3oNzbPpnLBJhepdbXDV4Jsxb9c78zjNSFYoL/useSppR1q+OuaYrGhKZbdwZxXTlPvyDrvznKgBMSzIkR/ZTEBe6g60EVDjv9liefgybkfj8kl9+9e9sV0FNn5odSyY5l9BpgxxbxUDQ+MrRpfLAk9ya4mO59r/dWXT2S3C+KmgjZm4zCaTxflUcRzzolNSawDrSZLm5hNwydx7WTxuficz346cbioNOjDjH7zC0qzTiybkr23zD1TzEPnvChjX0w+mplfArQEo3a8Cv/SHgwCI/Y9iOvYk2E2rFHFLOaY4kqDN0rd8smllRBS0ChRKsA5UqIKXAwPCPT3yBfLy5WOL9ZKkhVrbM0Xq86t8GugLd88i4UnjakQsGqHVeOLXZvbV/b3D+A+O/knTfjg7y81nop/9R8VXmIx9yJKX+Nk1kS4bQLzbXWWxefj5mf06+tYXn7e8WHK1nIN12lilyJYzTJKs1IAACAASURBVPpiOzpF1EpWpu+dR9QPQMtArPFNjbDYlCmWQ8paDNfIEsoDl1rgEwpzvNytcPep4UZZaXGfxW5YY3fixY5sKl4+9OoVLUqsMWNe2N/9yjtDFktOlKraSrMi1HNfbOq0q09LEpfFgdx0ykNqzhtYXv9cR30x4fhsWcXx9UcECh9etL+89Mw5qwEK0QKLMKW/Jp2p/UC0IdHWhWAB5cRTCcFpNf4OtbDrEY69w2IjU6yGgurWVH5pxozIHdPw4cNk8QTFr6x1h2HEViyE2oDwgMWu0mUtamz+iahdVxlv4ojmTbEzI/kii42Yrmkk9dbnRH49ZrEccMYtW9Q3niYiNWMU9puB+yqmB/1hgfF1lcWVZfHZ7/bNGPhd7q9DM/r1z9pbdN59U+w0uSKLjZguDxmzAIWAUTOBaYOEuY9jb7BY+kjnWQ9W3qSvY+yzFFWar/OWvpEBTvqr02vrR04dLLPnhTl3PpU8YrFrc31rHOvv555d1Y9d6DcOsdAoUPomJKtu5T5lNZ8BFtpRqG8tjRwxwOn4YumZN9nmR81i6bUT28trs9hGLPYzcBvqW0KD1G4Gvn2IxWU7pmT0e/7o7qLK0/HZA/tmjF1RfFa+houSpgMUUl8shn31QxmVxnFhe72cc7csNm3YxEJYzXJVnucsFm93jZaPzgIjr2i21xHn26TbWievBRbLK805dHDc9MpaLz89mLrJYivWWLEHKy/auieHbwYttOYWU1ItLKaEieuo8GQYL5a3cHB4eR6X9c+ktFWZtPKDZYE8bKVeOwo1wc2y2HlPetqU27d8cWXlufy8MntgovJ0fl7FOXdq7ZTRXmsslnzmV/Q5NneyWN7o2BHl4NlziX022TDOe77YWQJ5pGBBMeerlgOIylc8XrNKL7OY2UxXtbV8NUVbOpVV9FN1E3CnHYUlX6zpjjWaK7heNfTatOmz2ESkXoow9SE0z4xHLFa2DDGOFWjU3YkX0ZV9g4CsNJvcFwh2e8jaFGrEKPjVqvE6t5OjTVtdZbF+QFfoQGEiUixp4SsLKWiHKTRYLAerBOVSX6xfNyhjcQ3Gi/n21sE1xy3l6uYgvSn5bSrM1uBpNWQeFhgob+bsv1Z8AXeUEHYIJQjybbwgndPdOwtPNcWLtXyxvMMIt5RyroW8WZ617n9aQZsq98WKK6vuVcFpkG5Ud+dKkmY3Nkl+tdrSDB82nNOgUI/FMtthxhcr42z1hsWVBkEDbsTWI19cV1hs1I6C5z4cJUerY6iZO8+kLxY/mOagsr2n92IUVkxxpUHzZy5YxRdhZfNq2aWxyGJ5xL9aWazdwFHmT2XvPcbtKKSe1PA8aD7q/FTX2pDFlbwKZFku/ONdo7XoxNzqLYtZPIGLvKqNUdQWFrvgYr/7VXcM/03QARo+9dy68zj3rjxIxx4AyhYFRg2YOP213GOx5UYUOvFi6buIeG4laJNEOWXdH/RYzO2DqwNi2amjDasmRmF0xeU9cUyxWNIIxDg+zn3DUB7UNItVP0l6bzsuN9/Z1C8WC+ZXFS/WAbGs08e8qCqOUXC/9BUW63YxUrPYEYII8Pf3c98Xq25352eh/RDr5qBsP6fod2fGD3qtr4dFU2xUd+cM4/CLq+xtQJllHT/oAI2skyF/mBvh2AH+1dWOgoN1/hkYFphmqg+02da7krMqDVWpOmtInnwWWMxtTSS8bQTKk1f/fLGDp057yx8kyBVZnjO32mIU/G4gPsNiuTWW3+LSb5xOSt4kSEVks63cZc2wRJfkHCvO9HgUWvEBrc4RbrDY+cZgpWWxtOG21jgGGmdJmn1Vj3PDd3NpczHdx0YVxyg4d0ultLmCa5wN0Qfw+7lpVSyboJusHYXaIEuvqQUW886VsrGdURu4+hGjkLT81e/KUW0xCo32dj7EYm1rbJO0o9CP/Skqu61U31UqWqF5wmKGAJ1SZLkdhUa1mzkaqmK+krgBSypvsDSd6LDJeLGkwbURi407qg37/kv3B4oyiGtJjq5zd9FWWt1htDrcG7bnFXfob9imTTscxBm2yULH6/oRL2ZE1m2062Qxf3Af6WInpq4v1g5HsJpDbmM1X2Kx5A6zMvyN15Qf7z9Ms/2mHBaGXk8HQKYrvuT9d81XFukmzDEajnwnrDB71AXAID6gN6CE/oWuih6GVk+al4c6M7hA+ZoBNFMx9CpWba670+/zZtwHWsMXawasFSFmjSi2b7IYgiDfFub1qGsXBoIgsBgCiyEIAotxYSAIAoshsBiCILAYFwaCILAYAoshCAKLcWEgCAKLwWKw2IpcQ14ZSjJECwShyIPFtYvFyg64WvJgRnRNyIqDTugA1PSkQRamtKi0NBeRd7NsOJFo1R1R51Todmo3fhZay4t4xb3VJ9j6DW+1Q6mFWQT5pcarxQcsrpMsNn2Tqcc+NzU6pVHpNTlZmaHb1ZkBk7utHFL6w97rTG7tHKbLjYNa55fhjB1a82NpXF/VfCjcFcxgSz6XnfZEf6pJSbiT4Hkmo+dHlbBYcfupZwkBi8Firgs2OxGmYmxDyb3IdzTmbzjOtNNuTCzPmQ9CXUK4vFPw3dIgRForG7s8D1mst3P18HJajyXe0L2GzzP9h43CffPNuCyFnOGJvQdiM4NGWZjo2iSLFWNvarKYO4c6WFzffbEZU8xDpDDZhAe+2NAUy9yckZHhj8+r/b0qUyw70hk0RKZIRw3WnaFDPdGZ9QeMnlmz7IsVcXYXLMyObWTGFPNSJcxqYZxCvcGy3Q4/6LwEmPfFlvyKa/g9GYv9lRNISicE8HjILbC4rrHYQoBVdxYvy76YY4r5oWTjAqY9f4+ACY3EaGVHFbgYHhDo75Ev9nTCaTd9sfJdQfg1IN4Ciy3M1qHaoQlfLF3Na9aYO6dJtcUo5L7Y8eKlYHGsd2opwOJaz2JLD3zpW5toG71R12TKFBu+buvEcI3eQDkviU7SKWYwk069rOFwHVNAaZlcr7LYaryYO4eTFostBSikeRRneLPMUy9bY43HlclXE32IW48Xs8rhtTIW+wcM90ptLVhcp3yxlVYHjqIistji5HLWTLHctnCDa8ovzQza7fpGKBXD5aO8K35lrTuU80tqP9u0C5jXWGzZxGm+U5sAn5Up7FyvFK6ZkEw/MPhT+bmfa16+TObXYxY7Y/HSGWqE+atQdwcWGxYhk3e/hJ7quhf9d3+uFZLF0bj+QjUZMH9KMfdYzEOhcpY5l7HVYrFkvgytue69wWJ3XmVk++HHLgyqrcy97MsyKPXF/IvLZ6J3RujXS7MlFmtNGmLy6aI6FtpRgMWexr94FPOcxeJWGuEO+fxvTodFN7ct3ybd1jp5LbCYE2mVJ9XBR1n2taae8o4vVp5tCyaaz2LlhE+ceIjFmVXdZbHXrLHmOakOX+xsO8FlsWTqJi+1GAGL6xCLzQQHFfPmyo2Atl/TL8PxyvpllVWPl0ysx5mDkmd/vMxi5nMdB1WtpmhLJ02bcrq/Sm+1o+CdbY3mCuK80bpt2nRZbMYbOpLKOZCjwkq31UFV+WKfYLErTCetWHbNreWFSBRYXKdiFPpOyk/DLnkco5BXKClm5JU2OHX5LGk7Cn6bCrM1eFoNmYcFBsqbOQtVLqwAO1jMDqH08vm2eM55kM76XrW+WNaUlR9OUX0p5Y71F2fNGV3d88VejBfrstha3R2nTyaHxdIon9oXu25jKYvRpg0sthZH1vAR3mGxUTsK3p4dHlnr3dlMV1qTvlj84EyGYY8MWkEHZ95jMdeZaoPVSQp2lHhXIpWTxlthsU5k3C0We80Uey1e7CUWq5vrSQ7heXsksLgusVjPYGrcuBJ/odmQy1yckW/rKo0or9lCw61hDTgslnsW9gCIV7DYYhuSKo8XO8+h/ILGivNMO4/Cbb6i8zhUJ0avilL6auIfbzJG4c1GFF4dYMQbvlhZylB3BxYbvm/K7ie9frH+/t7xxZX6DUvVe3aUc6Evk9u+WIU/F6QcjlvoYqfX785MCL5q+nro1t2J4V3unl2fBTsWKEuPDiAUsW9+7lyRZf8Ay77Ym6ZY215IDLuySlb+TJKcfG+xWGrVPQsNgcX1I0YhqQLSh06811is1+dK+o3ThCrGOlAS2ayxkpUxkSPOseJMj0ehdQ55q3mXxapaNWl9kYn0Kxsymqyz0hntyO0YhRN/3hyPgnMOBf46OhzK/b66b6cs/e6wWPLORHtW417KYo9CxmBxnY4XyxoP6LPYuDLEhM3RtMY2STsKP/2xHF1lyXRzBXnDNXH/nrBYszrLUsI0MyvdgyrmK4kbKPt8ux6x2tFhswaNpcGoC49YJWt8CaRX34vjtCkulmo8axlk5eNJSX8y3wXR1fidM9qGn9JrO3Lq+eMHLK7TLHZhRbNsGNc5WOo8JhoTb3Y5Mx8TjPcfJh8zU8JieVBYN20GYUrTL+CWT51/IOdi6T7AvBFF1bwBjPtAS06F4YAkHlkKnVCAzKtyLrqVxOj0lrLptK4xa1bA4vrNYgiq7TI7N0K9LPJgMVgMQRBYjAsDQRCKPFgMFkMQBBbjwkAQhCIPFoPFEASBxbgwEAShyIPFYDEEQWAxLgwE+aj0x7eDwOL6cWE0e2F63FPeG5J3TnVje7PTUqgP5OqXZWFuC5NJMjNXvMY6ZvsveHUwMA8gK5l8M1b3nHhrJAoUebC4ll4Yrd7MWox2A0wWJmqTA0g6gIv2TvSIYzK1vJEhtUae9Fh6YNIf3KfSwoRY8o7I2kNDWJ15xMqlN9+/2YujXKLIg8W188JoDsiiU36qxsWoxzk0NMWqAV/cZLH+VJjes8Nas1Wqx+5x4zEmP1eKxPPzovTORiNmWBsthDNRgBvTp3pl4noUebDYdy+MRqnQmDnNTz3QlNddjJLFhsQ3w1mz64gTLii8pDBmsY5zt4pjxSh0DtCYZZwZU8zztgHxNeCLDU2xbKRKT4NRKPJgce2+MJrDrRkFiy1aYzMlTR0TkAwLqTqWyeCD8WqKCW8C/If7eQ2+evQRjusfa4HF+iPn6RvYavfFBrNn6V1uCCyufxeGBSh4w/IaDntorfBYZbF0fdkQ4K41/bzCYkneVY8fbw5trnz4yU+IBuPceKOXztRnfS4177HYlClWT0fiQWwaRR4srsUXxgFcDotNhEotTYdjkcWKAbylKZFM8OOcbyneiMU67+ayt3LDGZ48c8Tab/0mGGfBFDsvjchi0/PyeStGYWiKVY8i7rwwaFkBFteTC+MsqwpvaLKRg83s5G9mCzkHrPJICHdGCYNpJiy0o+BOj2ax2YYpqQmlQWrljHAm2STxpBbnwfKSL5bO68F7UsqntRUPyp+aDwKL6/qFcRFBdd+balmsMb2jd2IUypKvnDTIdMDEdDsK2ZTPVRUv1mOxpOkeh7mmm7JJCOjNOQndCHRo3UXOBw9jsePFRXg/s+VLt0X4GCyuJxeG78XMTwHpdRarN/FCaTTZjkKnta+XmotohUTFNm26LDYz65rjWnAORIfQDlNI5srzUlMzMQscX+xogeM4sc5m3drT10NgcX26MEpfbK7Op0pZrASKvBGuQWTDEouVkNKOw/D6g3jHFyunu7YWJ2XnivPc8oIvdtM425PEtbeUDIG5DL7O1SpVzWZgisHi+sxiZxxAw8Hx5k+0FC82tzJbM0Q/CmweWIYsZu/IWmlzRmkd58Qzj+w8CYxQsa62zFL/aJXF8tirxyxW0NPtIIZBOwrOC4fjUac/qykEFtfVCyNtZqAJGn73X6+3o7CwphdZbDaS43GdvislTt45OSU7kxpZ47+F6IBYFvgOiDeIUSifPfqBLDPXXXxUc2NN3JvHaQIQnQCL69WFkRRjhcOVFXvNplTeb1/M4b7rUSHHk9dZLEGVsnuhjA6KDofmB6mQ+k3XZ4FTa2XeUydrjkRKoxnqo7siy/7+Vn2xY1tv+GLJtrxDq1jsPLR/wHDOawp7JEjanjtTpRmfQZEHi2txjEL81xYrrSniF0WrQ1KYXN+BTidQtDDnPRY7zCOnebUyTu3EioKbbqBKFgdQPqWMsybxqvqPN4sxCscz2Jl3sU7P7bcKqTVWXErpN+pL4DDI8r4wYDFYXO9YrO0K5T9ZDJ6abGLML1fGPdCGBaZ5YdwZrddkV+KV4+9Yj+1K969GpNnHDMOT0XgdIgoN+m/EKkZZ0mz1Ya2pn6Y1lraj0A3WI2QBFoPFUuxybCP6RPnAcDb6nfGM28OYH9PSA2ss7Bl9N8BiXBivEygAAwWoQw0QBBZD1ctiCILAYggshiAILAaLIQgCiyGwGIIgsBgshiAILIbAYgiCwGKwGIIgsBgCiyEIAovBYgiCwGIILIYgCCwGiyEIAoshsBiCILAYLIYgCCyGwGIIgsBisBiCILAYAoshCAKLwWIIgsBiCCyGIAgsBoshCAKLIbAYgiCwGCyGIAgshsBiCILAYrAYgiCwGAKLIQgCi8FiCILAYggshiAILAaLIQgCiyGwGIIgsBgshiAILIY8UG5u7oULF3AeIKg+iAo7FXmw2BdVUFBQUVGB8wBB9UFU2KnIg8U+em1OnDgBawxB9cEUU2F323uBxVWu0tJSdoVAZAiqqxRmrosKu9s7AYur780lNzc3B4KgOicq2p5HI8FiCIKgmhdYDEEQBBZDEARBYDEEQRBYDEEQBIHFEARBYDEEQRAEFkMQBIHFEARBEFgMQRAEFkMQBEFgcY3qQl0ULisEgcWAL9AMQWAxZETh84LOyfV3XZEiXyyzIDIEgcW+RWGG3bNnz56R6K+6JWnWKKcM0CAyBIHFPgRiRuHTp0+Xl5efEnSyLopljfJIOWVEBo4hCCyueRYThsgeMgoTpEpKSoqKigoKCvLz8/PqoihflDvKI+WU8suITGeA4Ri3BASBxTUDYnKFBKOKigryjIWFhUSr7OzszMzMjIyMtLS0Q3VLlCPKF+WO8kg5pfxSrinvdAZEd4wbA4LA4hqITtBLOnlDQlLlP/5Rf5akpKT09HQiMnlkyjudAToPiFRAEFhck6aYXtXJIdYrFu/bty82NjY1NZVwTHmnMwBrDEFgcQ2b4pKSEnphr1cs3rRpU0hISExMDLljyjudAVhjCAKLa4bFzBSXl5cXFRWRPRQ59ccffyxduvQXQUuWLPntt9+WL1++cuXKP2qnKOWUfsoF5UWaR8IxueOkpCTKO50BOg/MGoPFEAQW1wCL6fW8oKAgMzNT5BSB+Kefflq4cOHPP/+8ePHiZcuWEbn+/PPP1atXrxEUWBvEkkppppRT+ikXlBdpHmmdXbt2xcXFUd7pDIhhCrAYgsDiamUxa8pGDMrPz8/IyBA5RXb4xx9/JBz/+uuv5CiJaOvXrycXuWXLlm21TZRmSjmln3JBeZHmkQBNK0RFRVHe6QwwFtM5AYshCCyuGRbn5eWlpaVJOUWOmEBMb/fr1q3bvn17cHAwvc6Hh4dH1jZRminllH7KBeVFwWIiNa1DeaczABZDEFhcYyz+66+/Tp48SSQ6dOiQyKklS5bQ6zy5yKCgoJ07dxLO6EU+KSkpJSUlVVCtaErMkkppppRT+ikXlBdpHonFmzdvjoiIoJXpDNB5oLMBFkMQWOwrLP7tt9+WLVtGL/X0Ck8IS0xMpLf4rKysY8eOHRdUK/rXsaRSminllH7KBeVFmsdVq1aRLwaLIQgs9lEWkyMmz7h+/Xp6tSdHSSDLzc1l/YZLBdWKcSdYUll/bko/5YLyIs3j6tWrt27dChZDEFjsoyxeuXLln3/+KTb5Il9ps9lotbKystOCasWQbCyplGZKOaWfckF5keaRjD+xODIyss6z+AKEobfB4trIYjLFxCl6f6eX+pSUlJycnOLi4vLyclr5rKBaMVoxSyqlmVJO6adcUF4Uedy2bVvdY7FO6T0P1X7VOJ3B4upmMXt/T01NPX78OL3si93SxLtBOuSxOOqxCGvpQJQ1IpZU1rGQ0k+5oLxI8xgYGFjHWKzIe52cEABST4ygZjRYXHdYrOCUlMXs8jPGnThx4ujRowcPHjx8+HCmIPqQJog+0E+sxo88aa6RiJW0Gq2fn59PhxOZ6C0WG+axVrNYgWDxzaBOTggASSdGEN9TRS5X9Q0MFtcki0VOMQqXlZURZ48cOVJUVESkU++frVMsiD6wdrviA1xfLElEeToufa7+PNYuFiveUcShqCsqKtRzApRCtV+KWRGofNG1FidGqIapasDiGmYxu9i0PvlcAjHdAWYORJuUlJQQkel2EWfQMCk6VmFhIUGZPoPF+iBmFKb003mm8kklls65zWZjcwIclygXqs2SXkq6aal0SCdGoKvPKnXEuRGq4k4Gi2s4RkEmi673wYMH6cJbPRzdIopxKc2LtqXbjuu+6zmLpXZYnJaFEEyFk84YmxAgPT2dcpeSkpIs6CBU+8UuJV1TNjcCXeWsrCzCNHGZyiabG0F8i62KMWDB4hpjMRVsKuF0pekOICK7d2npnmCTaLiBY1qfjm7SidcTFktBTMmmk0NPSqJwQkLC0qVLJ04cP3z4fwcMePNFqC6qf/83hg4d8tFHo/z9/Tdv3hwfH09lMyMjgx7AVFKotLLJw6RzOYLFtZ7FqampOTk5hOMDBw5QgfeQU27jmEQ3GT3wwWIFiJkdJkN07Nix+fPnDR367vz5n0VF/ZiZ+XtZWVBl5RYsdW+hK5uVtTw29qclS6Z+8MG79Ojdvn17VFQU6yJLBZZ1CKgiHIPFNcNiehU6cuQIfaDS7jmnaFtCKrFDbB5nyR1TOulvPWexON6pCGIqeBEREaNGDf/99+nnzm0Cqurbsm3bt++///aCBQtCQkKio6OpzComD/PuSLBgcQ2wmEp4UlJSTExMZmamtzhVXl6en59Pf1n1giXRVvb5R+o9i1llHaWWgXjZst/HjPkvGWFQqd4uNtvqyZNHTJo0gY0hc/DgwaNHj4o4ZrFjsLgWs5guamxs7L59+7zLKcJHcXEx7dCNSAXZc5ORijrJYhHEZ86cKSsro7NBz0sCMewwFlqmTh09a9asTZs2hYWFEY7JHVNZowc2u7G9FakAi6ubxVu2bNm7d++uXbtSU1O9yyl6acrJySGUuGGN2bb1mcUsOkEPpJKSkmPHjo0aNRyOGAtbTp5cO2TIWz///DPhWDqAgdii1Cv3NlhcAywODg7esGFDVXCK9kmezr1KPHrU04b1kMWK6AS9gc6fP+/336eDQVjEJTR07vDhQ3///fetW7dGR0enp6fn5+eLkQqvWGOfZnHU3MFzoiX/R88bOGhSUG7VHzh3w/hB8kN7icVr1qyhR+vmzZtDQkKqglNs5ml6XLthjVn7rfrMYjpvZHYSEhKGDn0X0QksimXEiMFfffXVqlWryEsdOHBAnFpXtMa+xuIyW+D87IVLCvJl3+YETRo4N0bB2YGDlIscf7k5QfNkX5pnsQBTYZ+y9YWDzosy9xgwuaYlTq1evZocMf2NioqqCk7RPXH06FEyd26wmDYxE6aokyyWThe7dOnS+fM/A3qwKJY1a2YOG/bBokWLqAjv37+frDFrvCRGjX3OF9sW9M3oNzbPJkNjVNA8OxwnbMiRwG68DKsxc7hWNFqCYwMW2/cwkIdgMRlBE2RpkFPb5KIHaDMsXr9+Pb3pJCUlVRGniMVkb91o3EbKzc2tbywWTbE47NzEieOjon4EerAolqys5YMG9Z8zZw7d5PRee/DgQfIuVNa8FabwHovPxed89tOJw0WlQR9m9JtfUJp1YtmU7L1lGrS1Y9EUiwVP7VjTpC+245W3moDd8YofeCu7jsh5MHjK4qCgoF9++aXqOJWVlVVYWEguzw0W03PeMBl1lcUsQEEvnsOHox0bFn5PkFdffXnGjBmLFy/eunVrXFwc+R7WAMkrjdu8xuLzcfMz+vV1LC8/7/gwZWs5d20OVTVZLAt0mIkbaLGYi3Iui3M3zJFS276OcFwvsZiuZZWymF603WvZRhtSYuobi9kgeeXl5TabLTMzc8CAN9GzDgt3efHFF6dMmfLjjz/S2+3+/fsPHz5MRaasrMwrrSm8GaM4f7as4vj6IwKFDy/aX1565pwmUgcrwsfyCPK8KKuhA+neNFhs378iQKGkvOR54OQvS9Wc6NyouZMMa/MMOfXnn3+uXbu2SllMz2qyt/TeBBabjLdIg8Xp6elU3gAdLFosnjBhwg8//LBmzZrw8PC0tDQWMmYtl3yIxZVl8dnv9s0Y+F3ur0Mz+vXP2lt0Xh6QtbOMGygw3ayCZ0uFMPHcGAfiVYvzWDFzNI8r/iT35izlTnznRM8bbxQhMcniRYsWVR2nyNm5zeL6FqNQsDg/P5/SDBZj0WHxxx9/HBAQsGrVqtDQ0NTUVLrDGYs9Dxl7k8VlO6Zk9Hv+6O6iytPx2QP7ZoxdUXzWQgjCMPRgr3lTuWk1ZAUoa8UiODuRrC8mUlhNlWDDIInJGMWvv/6amJhYRZyiI7odo6hvdXfS7naUzuPHj6ekpIDFWHRYPHbsWH9//xUrVuzZsyc5OZnuGfEO9yEW2yvw8vPKhMDE6fy8inMa4WChaYTGom08nW1+VRVrChYzjHKq4xwOVxk1ltJZ0hJDwmvXtsLKOk8Ukyxevnx5REREFbVpo/vDvbq7etimTdrLg7GYzh5YjEWHxaNHj/7mm2+oCIeEhDAWl5aW+iKLtSXzxRK6mW3SK3pSIVYgYaUi6CEFvesQ0mYbGsEKcUNuwjh+3P02bWwG0qrgFIt4utemrR729ZCymDVoA4ux6LN41KhRxOJly5YFBwfT3UKvkrWbxRwgGnR1cwSFZZFc9q9sQ4G5c1lgV9iEgVVem6esxGMUdq1pxa1bZ/GGDRu2bNmycuXKquBUWlqa23096mEfaAWLqVwdPHjQIxbvsFXOqqg8mun65n9llf+oVC7SFaQL1o92fQAAIABJREFUd2XuMvGMqfSEnbCvTEkqSbKWkfw0+yFo22UnHd/QHizthFam41KOqhOXdDj1ESkZfc/bc+QNFo8cOXLWrFm///777t276W6pAyxWRHXlqDVTaydrZyaNfrA2GLL4r9KGu/DN6/3hcV2QYR/oHTt2ELASEhK8yynaVVxcnHt9oOvn2EDeZzEtjJWp2S4Q0L/EaO6vamqIK9Nf7mfiONuJ1sNAPJa4IZHIJH+DimXEpw3FvRGUze9Kukl14pjlV/GgYnmJy7XnTuspWB9ZTBx0MlcgrNzAajZG1m56IcZ/RcIq27Spg7xa1YCyFdxo7GF+bCC6kBs3bvQup9LT08kXuzc2UP0cM7NKWMy8rWgnuSzWIoLnLCbKs1+ZDWQb0m4Nk00b0soELPKz3P2ztIn50vLR5hdvGFWOGac9v/e3zMiL2aHvGZTBYm4Yd6CuI5aFIzTjyAJ5CcquqIWExaKD1m4RoYoIq1lsis7mx8wkVNGHAwcOeItTBNOYmBj3xsyst2PJVwmLiZVS28sQJpZ/Myw2uWglgHlbxl/2YKBv3LD2+n5fbYGJdNJ80ZrclUXr6i0W0350YjvMm7Ps0FXQP3X1gsXOmjFl6136Zu48zZisvIWvJuI5Q0zIo8MazTbExFQni9lY8vHx8bGxsWvXrqVr6TmnyAXT3jIyMtwYS74+z7FUJSzmIkyMtIospm/YX/1wM9f6MQOrsw79yjiocOXSB4bOUURgidaSeGfejItpkFpyFsmlFQwT754d1ollS1POzLu7kYq6wGJ74wcnMUU4StEmfikflY3jiFV9OlRNL2QsFv24kvXSGjwdXvO6jXjKKTbHUmpqalxc3KZNmwigHnKK/DXdFu7NsVSf5x6tchYzDyi1pYoXecNYKve1mouesBP2YK6lKIF4dIKpToSBrCWrA9RJLUFWTBLlmvYmmlACn+hbPQvXWl50zonVd4U6FKOQemHt7hIO+zwvKnreQLf7hmiNR8E5lvlRMb3pi8W5RzMzMwnHW7Zssdls7l1FOlZCQgKxmO4Jq3OPkhcmEJeVlXk9Jl4fWazAGflBBiOTDR4MgWgYb1UDWoz8qsGtDjiI63AtMIOpoZ8latPCgiS0CX2gf1mm6KHCWlbQv1YbdZiJC3FPEbFYzKxn0Yk6x+K6LvOcIlOck5NDTjY7OzsxMTEoKCg9Pd3q4YiktCsCMe2KDmepyo688PHjx0+fPl11eax3vpghhoUFyI4Rfeivli/jck3qLkVoSpsu0Armw6zsYcAqsrgs5rpUMcAqTQnLhZn2c8RfsaZRxLpoQkVoasWdPYwFKSLv7ChgMViszylCYbEg+kAg3rVr1549e0zWodHOieD79u1jrc0tgZjSVlhYSBx3b/RrsNhgEdsbMJYRDghSIkBFr6r1tq5l8aSLSZCJrdAoAWrEc8EkJk9sxUzfUOIJ6PrhFBG7dCyxIZ00tfRgYI8fliozTTs8ZzE7yWAxWGzIKbqK5eXlp06dKioqysrKSkhI2Lx58/bt21k/ZvX+ac0jR45ER0eHhISwyjrpMFGGCKYk0fp0XPpcbXmspyyWVpexN3d1Iwd9Fptv4aCPJ9ohS5IIU51DSBskiJ/F+K80lKEOsNBRWExAdNbSmCyLTjBq02e3wrUGTdm0+tRIHwxgMVisxanTp08TSUVQHj16NCkpKTQ0dOPGjX/++Sf93bp165YtWzZt2rR27dqgoCCCNd0EERERBG7aCa1/7NgxuiGOa4iOQr9mZ2fTzukQ5ttLgMXeZLHIQZ0AhXlf7EavB2ntmRaLWXMIsV2dmFraibgfFgLWSjmradRZvN6CQtq6mRLGskZZoOyzVxPxG7AYLNb3xcTis2fPsqHC6DNtZbPZ6AKT/01PT09JSTkoiD6kpaVlZmYSeYmqJSUl4qSH7A6oNon99NikRGCxHotZeJcYR5ASA6ncAK7XfbE6EsJAydyrulKRsEUrsC/Fo1Dima2Wtrggj6nAMTPFtI4i8EIHolybrKkT2124Z5nZM4adPVZPqIhig8VgsaIPNPlccrWpqalshCfGYtaqgU0wQduywAUBt7i4uFBQUVER/Uv7pJ/YJtVPYS6LKReUF7BYyWIq/GyRctBMuy6v+GLmghURXjHsy+2MJx3JQXoUQiR9L41Qs7yoY9aEPwKfup+LCG7Wx1rLGnsY1ZX27GBGno1BwU6F2AIaLAaLRRZv2bIlPDycfG5OTg6hlthKK58V9Lcg+sCiFqcFVQhin+lL+klcs0bEksoeGJR+ygXlRZFHsNgRoxSr7EQWGDYo9twX6zSf0CI10VnqRhWdIxQOmqFcnQwxaCvmWlqBJs0atymIuFvzrQAV29JfMSIhngTxVIhpVnSMBIvrIYtXrlz5559/btq0ad++fUlJSVlZWTabjVYrKysTUev7YkmlNLNwCuWC8iLNI/P+YLHMAFabLxY314kMsAa/6s54ahaLLSJYh0DxGSNtvWuyMYOYNv16S8ZTqxV3rC2z4hD0mbljacs29qxikWWwuN6yePny5WQb169fHxwcHBcXl5GRQReyoKCgqKioVNDJ2iCWVEozpZzST7mgvEjzuHr1ahaHqacsZqRTN1qg8i9aP4ZCLi5N+mLii/pln/wmoUftK1nMWtGbWcsbSscGko6PQY8TsW0ce7SoPb4ZFmvZXto5re+GY6UNxaeCgsWUTjFCIj6iWOxY51EEFtd5Fv/222/Lli1jr/Dh4eGJiYkEMvKVx44dE9s8+L5YUinNlHJKP+WC8iLN46pVq7Zs2VJ/WSw2/BKpKh0Hh+FS3RNXMVilyUUaiGBv5dwYCBvCwuTwx9KHAW1Iu1VbSEot7UHxvRlH742grcGYGOJJYD0AFUMmoQ80WEzLkiVLFi9eTM4xKCho586dhDBylPSCn5KSkiroUG0QSyqlmVJO6adcUF6keSTvv3nz5nrNYuIX63Sn1YqAsEU/ST2gpQ51bptKhWfXaZqm1XDNTGMGfcq7EQ42/whkzzkW61CHUDCWfD1kMZtXmEiUlpYmcqo+LL/88guxmHxxZGQk5V06S249HacNS92aYwksrpUszs/Pp7f4esjibdu2RUVFUd7pDIDFWMBisLhmWHzu3DnG4oKCgszMzHrF4qVLlwYGBu7atSsuLo7yTmdA7KINFmMBi8HiGmBxeXl5UVFRdnZ2UlLSvn37Nm3aRIaRUPWLoCVLlvz222/Lly9fuXLlH7VTlHJKP+WC8sIyRbmj78VGe5R3OgN0HsBiLGAxWFwDLBa7pZWUlOTl5aWnp8fExISEhBCkyDOKLFu1atXq1avXCAqsbWLJpvRTLsQc0feUR8op5ZdyTXmnMyB2LASLsYDFYHF1F28xTFFYWEj2MDU1NTY2ltwivbxv27Zti1Nbt27dVpvFxi1ion8pd5RHyinll3JNeZeOIedrIAaLsYDF9cganzx5sqCggMBEPpE1AouKioqMjIyIiIisK2J5oXyxJnqUU8ov5ZqNQuezprgKWaxozKuessjzqYPEQSy5swp5ZURKN3bFhoOoosHYzLSoY8MbVcUM02BxbbfGFRUVhCRyiPTCToTKzMzMyMhIS0s7VLdEOaJ8Ue4oj5RTyi/lmvLuy6a4ylms7uyr9b3b3T3U0GGH8Bz3YnoMB9CQLmLzXvVoyB73s3C13SbactsO63dZBIvrM47FkTDZoGus33B+fn5eXRTli/XnppxSftm4zJ7foHWQxVq9bxUT1kk7EOtvqHUIcRRK7mLY54I7hzSlR8t1iuNV6uyBOyKHOJqapUW6E63HGH3P7Q2IsYHqYaSCDYPJiMxGwiSdrItiWWNDerLB5KSjetZHFmstJkdC0GKx/vzz4pqs+7L4SJDuQT07tdWZpBUJ0EIh25shi7UyZXXqaKkvFue7UwxI5JlxBotrPY7FkTBF/VW3JM0aG9LT90Hsc77YEOI6QNeJb2ixWJ0MBRANx3tTdOBmAwZJXbN0aCEtS2tpOHwzLGZ+X3ySgcWQgsjiaPGi/q4rUuSLZdbHKezTLGYraPlixeBnOnuQYsgMiz2JvYpD80hHi1fHKBivaedmEG+VxdJYOVgM6RC5Xql2hfV9JUbhOyyWxjfMjAHEWlCwCY1YUwo2DpHOYliDZ5XF7IjSuZ/F+e7cM+ZgMdAM+NYFFqsbM4ijqdGLPNFKqxWE1ZorLovZhEYmHwnmI8VaE4kqpislCIoJkB5I/0GiM+uS4aBrjLmUC1pTOvMI1xe72+gNLIYgn2exe40BFFAgiNBbPGMcay2rblImznCsb8lpW61QiXpiC3XVGfOYJlsKM1OsXrROiCUW06NL3D/lRSvjbC4oNseH1HcrhmDWr/kEiyGoLvhisZwTPsRWU/ptig0Bp9XyjPgibZglTlch7U5iOKeRTkbMV9wp2rpJA7LqYIgbvpitLG2fxz1X0rcQFkKhE8JsMtoXQ1A9jVEwU8kwapLFHkYJxPn0pNVlbrNYP7ih35GkilgsrR5UzyfC3aE4IbelAe/BYgiqOyyWIkPNYvKPhg1s2Yu2lCP6TBc316q7sxpvUYezxYny9HviicFoWk2r+s7tNm3SFw4Po0NuddQGiyGo9rBYfJvWr46T9k8znItIDBoYUswki7UqDw3NvhbCFFPqscmlvOuLzUSHuDPvuTXNKFgMQbWcxWIHB/Yu70a8WFoVRhuKjDMzjINJFrMZ4bQwR4wOOyH7lZKkM+aOGCERjbB+jMLkGEnutT8Tn1ssVXREt6fvA4shqLayWHRkrKVt3/MOsLoRKGCv5NLXfLGJhecsZo0TdIZloG1Z/JoSwGrGdEw0rUwJY85UAWXxccIWMcpBnw0HhXCDxWyabVrogxg6Z8els+dBCwqwGIJqFYsZgxhlpLPEu8diMdzBhoKUQlmLjGoWE5i0aud04iSKBJgPsOp3bKuiGIX4gKHMiuFsaTWm+BigFdwdGAgshqBawmLu6L3mO1womCJaSKmbk/Jd+j2hWQprcbdi9MCTsSvFwIIZHOuzWOwD7V0W0zqUSFqkKyt6YCuCyG4RGSyGIJ9ncdgJOzd1IrAEPgUZpU1fCQ20OVuB/tLKOjEB1kpBvQILjBgOhumtx4xWiEbnJYBl0GSsgIV6DVemXHNDKPSl2gXTv6xTInwxBNXxujssmGMJLIYgsBgLWAxBYDEWsBgshiCwGAtYDEG1ncXHjx9PTk4Gi7HosHjUqFHffPPNsmXLgoODwWII8j6LT548yVj86qsvnz69HtzBwmXx6NGjicXLly8nFtPdQvcMWAxBXmPxmTNnGItTUlLef3/wsWMrwB0sioWe0K+88tLYsWNnz569YsWKPXv2MBbTnQMWQ5AXWHzu3Dli8alTp/Ly8lJTU8eMGZGQsAjowaJY6Ak9YMAbH3/8cUBAwB9//BEaGkp3C90zxGK6f8BiCPKIxSSRxSdOnEhLS/P391+yZCrQg0WxbN8eMGBA//Hjx//www+rV68OCwujuyU/P5/uHLp/xInPweLaqi22LUOSBnfd26V9SLu2IW3a7Wnbcc/Nz8c+91vu0vOV52t77sgyHDt27JBcR48eLSoq8h0cUyk6e/ZsWVlZQUFBZmbm5s2bP/jgXaAHi2IZP37o22+/PXny5AULFqxbty4yMjIjI4PuGbpz6P6hu8jDiR/B4hrTyuMruoR2vnlPh8u3Xape2gS37hDSflbmzFqau+LiYsIugZhcg+KniooKerOjX8mH+k7ImFJFT4isrKz4+PiJE8dv2/Yt6INFXA4dWvLWW2+MGDHiq6+++uWXX7Zs2RIbG3vkyJHCwsLy8nKRxZ7cimBxzei1hFdu3nMTl8LSpXVwy9v29UguS65duSOiZWdnE+D0V6P3O3rLO336tC+wmJJRUlKSm5ubnJy8ffv2999/22ZbDQZhoeXs2Y2DB/cnU/zJJ58EBASsWLFi9+7diYmJZDXIc9Cd43mwGCyuAf11/q9e4XffuOsGQxA7lu2XkkGOKt1fWyKw9OJGZsHk+uQpUlNTyZPWYJql1Xdk1Sn9UVFR9B46efIIYAgLLT/8MP7NN98YOXLktGnTFi5cuH79+oiICBYs9lYjCrC4BtQ76onrdl5jFsTOhUz08b+O+37u6K2NnIKlTchWHDp0yNBEV0PImIUpyNGT5QkJCZk0acLUqaNPnlwLGNVnR0wgfuut/sOGDfvss8++//57MsW7du1KSEg4evSoFwMUYHF1a1bmzLYhbayCmC1PRffx8dyRqczLy3Njw9LS0szMzBoPU7AeH2R2yBpHR0dv27Zt1qxZQ4a8FRo6F1SqnzHiwYP7kyMmEH/66adCA5slmzdv3r9/P5li1svDWwEKsLhalX8mv11IW/dAzKxxUP5an80d3ZFkb93enNxoSUlJTbFYao3J1+fk5KSkpISHh2/atOnnn38ePnzo6NHvrVkzMytreVlZECBVtzt0HDu2Yvv2gPHjh7711htvv/32yJEjJ02aRCD+9ddf169fv2/fvoMHD9LtSq9QUlMMFtcmfZEx9YZd17vN4su3Xnp/5L0+mztyxObDxJww+l9/HT582Bes8alTp2w2GxU2KnJhYWGE499//51K49Ch7w8a1P/VV19+Eaq7euWVlwYMeGPAAHtN3YgRIz755JNp06Z9//335IgJxKGhoQcOHDhy5EhBQQHdJ96KFIPF1a1OoR2twLfjiNzk8JwHpF/eFNLhaMVR38xdamqqh3vIyMg4c+ZMjeOY3jqpmFFhO3r0KOGY3PHWrVt/+OGHRYsWzZkzZ8aMGVOmTJk4ceK4cePGjh07evToURKN1NaQIUOobI+EfE/i5aOrSdf0448/njBhAl3l6dOnBwQELFy4cMWKFZs3byZHTCDOzMzMz89n0QlvRYrB4moVMdRMIzbHsnfA/JPFp8sWPats4tbit9ylPpg7YqjnAd8TJ07UYB8QaaSCitnJkycJx1lZWSkpKREREX/88ceGDRvo7+LFi3/88UdCM5XS2bNnfyNolglNnTr1iy++mAX5sOhS0jWlK0vXd8GCBb/88gtRmOzwrl279u/fTw9mcsR0l5aUlFRUVDAQe8sUg8XVpy22LR1C2pkCccSkXWcqT5ctG7hX+dNl2y795NA4H8wdG1jHF3biuTWW4thms+Xk5MTHxwcHB1NpDAkJIY9MhXPNmjWrVq2igrp8+fJlEv2uLbLV8+fP/x3yPYmXj64mXVN64tL1Xbdu3ZYtW3bv3k1P4oSEhLS0tOzsbHo8kyNmIPZidKIGWJwTNGnghA053N9yN4wfNCkoV2vT3KAJg8c7f9bbj6WDWlPMnEGD50S7ufFvub+12N3MEMSdk9dknueDmLU1fiPhdR9kMflZuk093Anhj3xozWZEgeNTp06xDoSE4/T0dHJGsbGxBOWwsLDQ0NA9e/YQo3eb07Zt2wjfuyEfFl1NetzSlaXrGxkZSdc6MTGRKHz06NG8vDy6yel+YKEJr4O4KlhcZgucn71wSUG+AU+rjMX2NaXEVK9s/2ZujJSwA/mLPT2Szb3N4iPheaXzJMztODA7toSQVL5mxF7Nfh9gcbXhmFXlkQmiVLGG/eSRqVgePnyY/k1NTU0WdNCcqGDTq+5ByIfFLmhKSgpd34yMjCNHjhw7doxVSpMdLi8vZ5V1YmjCx1lcaVvQN6Pf2Dyb6ofoeQN1aKtksQ4i+dB07icmaO4k4ct5UWoW248irB+dm6PpeWXM9RaLOTGKuEXJ5ysr/05entzx8m13TbblndYHMWIUNYFjMkH0mCH+kicqKSlhTx3Wkvq4U7kmxMx1LuSrEq8mXVl67tJVJgTTWxHdlkRhMgpsYEzvxoirhsXn4nM+++nE4aLSoA8z+s0vKM06sWxK9t4y8feouYMlbtR7vpi/oZ2bbH3JyvadaKShylnMrbtjEQkicMlZ+5gMp//aNG6v/vAULchfo+6u2qryGJGpKBJJyRNRgSSbXFZWdkrQSUGl5kQ+izx1KeTDYheUXVy6ygzBdN1ZUKKK7LD3WXw+bn5Gv76O5eXnHR+mbC2XGFI7HO3u2MjnMlyaWVPti92MF1c5iys12rR1PrQpTxga0xDEaNNWIzhmRKZX178FnRVE6fzLomgPbOwCyPdF15ddaHbRpRSuIhB7OUZx/mxZxfH1RwQKH160v7z0zDmJqx04SDtYzLO36qguj49Kng60slB67G5dZ50JG6K8x2Ktvh6E4+QyYxCjr0cNEpleXeml9bygc079bVpkstLS0v6GaoPE63veqaqmcBXEi8vis9/tmzHwu9xfh2b065+1t+i8K1JsmcUGlFQujuiwap/zgsz4YtnRq8oXow+0jmqwD7TJ3JHxv8DTeRNiw+efh3xbFzRUPfeYN1lctmNKRr/nj+4uqjwdnz2wb8bYFcVnxdBtjCTgSzZZFVXQiRcL8Q29phHEegVtWR2d8KWw8iShyk6TpHbuu/agxVxPWVyJsYE0VLNjA7mduwvmRM8YsvwXoNqjGrnBvNyO4lx+XpkQmDidn1dxzglKe6ghV87iwTx68lgsBpo1KvQUjtvppl022c5i+tfRgoITYhZWUDbh4DBX9UhwTxgzU6EaHzMTuYN8QdXW10PRuNjVzkGbxebiv2JMmUVCzHXrcCCbtjUmrCQZ3ugzgrHkpfKFseSRO6g+s9hpV7UjtsKvBmEBg3Zy3ICGW6n1ujDHUqVvzLGE3EH1ncXKDnLazYQlLFbuRM5iy+0oHNsqwxcWawjdFeYe9YW5R5E7CCxW/G6WxVKbbOyLnZy1aHKr3BeL2mLbMiRpcNe9XdqHtGsb0qbdnrYd99z8fOxzv+UuPV95vrbfXidPniRgHZKLNSqoA4WnbucOqs8sVrtOOYvFHsy5JlnsrCQ06NRXkyyGIAjyJRbba970IwBCCGJujBBoltfaaUiooHMiWH80DLAYgqB6zGJZhFejjs61jnwFsUEbl+BsKzl8WUMLOcEt9ihxI9wBQRDkQyy2Ki0Ec4MbEj6Ko1jwXbOT4N4Z0RiCIKiOs9i6nBQ20x3DGejwZrsICIIgsBiCIAgshiAIgsDiWqiSuKDFy5NMjUyWtde55qmE5UEJJTWXYP+9ytGTS5LW+i/cnSUkUvzV/nmha+FkkzKycG3cKbPH3cmi+zm71Qmodh3dyUs5ZXlnjs9eOwgshrTxKqWVsMhKOG8F5bKzeusfRexyAa1ksQhNO3YVOCacqbIj45SwW4Psm0S5t0XPAx5SpSz2wWsHgcUQH8SyoijQSqdwutZ3eSuJW6w2qdMp+UaTxQziLn4RiGVA5yFegXsndl2+mG9Oq+flYGcO71miAVlfuXYQWAyp3nB1HZOMWb7mrZRxFSlGTbGYYKqbI9fOBcr7nC+2p59/XPnz1QevHQQWQwqLlyQNekpMX6U8pEifJWhTeasayoDM4coiyDosdvwrJD5Oyix5dmjnLhbn7HZ+5vriGnyOmmCxT147CCyGVN7KBRT5C7u0uBpZSFWMtdrCFCKMZIECTRbLvaSMWXK2SlksOG6j7Fcvl4VauARnlpVBEmW+fPDaQWAxpHrPtVBEs7SMZM34LEmYQl6Lpd2OwkKdpKrFhfy9Qcru6vbIJXF7KbMSBNsfS67nKLcdhY9dOwgshjR8MacST1pEjWKmJpvEVVGYwtVayyhGoYEnTiWeLEdG7rImQq4yO2w/FTqX0veuHQQWQxpQJqip2kjZS/j61YJHXruc38BASbGaCFNwXtLNsFj+yl+iADrz3etD1jqyzzWPNWkqNdtvuFjMHiG+ee0gsBjiuEtWJnksduJJWm61PteA7AANWqtIthUWy1olq1gsCQJwX+p9nMUG1wsshsBiX5FQHS+to1N1c1C+fSve1ms81CikR/GWbZbF8m2VLJYHYSXPrRqrsjPHYu0mw7527SCwGHJASlmYVW1RndFYTfo4Y5G1LeYofwhxUeXIlKzfnTKbzk1qPF78/+3dP08bZwCA8Y9BYQpV+xnMFyBbomawQiVv7QRbsrGxeeiQTDBElPwpS9WrFImqjkiG2oqq1EMrNyG9IDVXpVEdpRUGJT4KxfUdBpsYEkNTEeHfo2eIjHWW7j09Or333ptG5zC98hjzpI0dtBgAtBgAoMUAoMUAAC0GAC0GAGgxAGgxAECLAUCLAQBaDABaDADQYgDQYgCAFgOAFgMAtBgAtFiLAUCLAUCLtRgAtBgAtFiLAUCLAUCLtRgAtBgAtFiLAUCLAUCLtRgAtBgAtFiLAeDEtfhGeP3szTPDc6cGrgyQ5Mn2/bnhZvGuLV19h1oc/xOPfXN+8Iv3hr4aJMm+cuzb8/XN+jvR4maIh740JCT71I9vjR1/i2+E190Rk+xzrz24eswtPnvzjGEg2eeeu/XRMbd4eO6UYSDZ53749QfH3OKBKwOGgSS1mCS1WItJUotJUou1mCS1mCS1WItJUotJUou1mCS1mCS1WItJUovJ3r0zetpJoBaTPThV+rvR+Ls41f4kk/1+fOKH1/npd5k3Hjn/RzVuNKIo5yRTi8kjtDj95LXUnk298cgjS+Vmixub4XzRSaYWk0dr8UZ4OwqCbv8I495aPPRVdn41uVaj3z5xnqnF5JFavOeTDn8q1totnrz9Io43Dnaz0dh67RdeLE4aAmox+9nJp9F2EFv/lW07jq05igPz2m7xm2cz3sBBxSe1mFqcFHarFtXCsNu1WqPXOYq9FjIjTju1mPwf5ii6zc2vxtXn07lXQzxVqjfil4v5O044tZj8f5/dJSFOrs718szdV1o8ubCW/mkzDO5lnHZqMXlgi0+XZ4NH40dc07Zb2+4Q75R65nk1+cJWtfyLRcfUYrK7xRtRZTWZCG6sTLdWR7wsXt73RY+HxepGHD2d3Pt+Xb5Ub7RCfG98Yr8W5+5fmvpudPJJlAY7jp5Mmj6mFpMtT5fnw40QBL4lAAADaElEQVTWRRW/KM//OHroI/y4EKWLK+KXi1M/zIfNf6/MdnU2X05+pVb6aTC3XEmr39hnWpnUYvabufsLlXprEUVjIwzSCm+/ndEjyUzFw/L2IWorsxOF5mEv3K63mtv5W9nHYfKltSC7/dO/lJMcb0bBPQNBLWZ/O5/encb1qLrRfnaX/717HVtU29p/iVv51/HkeV2t1jnhMPKoktS5vnixPZV8afemuH03fT8IKh7iUYtpfXFUDCrZkf32Brr8tJnahXwvS9z2e0YXrLXumtNAZ6aeJdWPV6ZNEFOLySOvLz5siweH7qazxo04fJzLPQ7THYIqMwWnmlpM9t7iQhClc7sjnV845FZtrQTvfLdkOoJaTB6qxSPLlXRx2+yeFnfNF6eTxQcftjDeeu+jWeI/L9lRnlpMHqrF2e3Z3o4lwIedoxi9uFzcXuWWbNK2tb0HUJjOTTvb1GKyhxaPVJLtJhr14u30rrb6fPbinZ5bfOfC5d8r1fZq5XT3ibvTpRc70xXrYenXfM6WFNRismsyYbqyu6atMFVaTypaXsq032ne2lmA/HPnC3j5z6MgeHghTXAuv7xYeVnbvTjjeiXY885IZmJpIVxvX73xelR5tvD5z+O6TC1mvzuz0nE9rQXZnfh2LD7LTDxaDNfjgy7C6MlnwWrHX7fi6l8Ll8sHvbmXyVbmS6u1Vx4AmrigFrOvnXiyvX9xrVpbTHbzKYzPPK8m7zHvs/hsNLdzR5xf3t2zbXqykM5pbMW11WLzHjnb46q1Qvbiw6DU/NnmbxkIajFJarEWk6QWk6QWazFJajFJarEWk6QWk6QWazFJajFJarEWk6QWk6QWv70WD8+dMgYk+9wPv/7gmFt89uYZw0Cyzz1366NjbvGN8PrgF+8ZCZL97LUHV4+5xU3Gvjk/9KXBINmnfnxr7Mj9fJstjv+Jmzl2d0yyDx379nx9s/5OtHh3suLszTPDc6cGrgyQ5Mn2/bnhZvGuLV39j+V8+y0GAGgxAGgxAECLAUCLAQBaDABaDADQYgDQYgCAFgOAFgMAtBgAtBgAoMUAoMUAAC0GAC0GAGgxAGgxAECLAUCLAQBaDABaDADQYgDQYgCAFgOAFgMAtBgAtBgAoMUAoMUAAC0GAC0GAGgxAGgxAECLAeCkt/hfUYXwAlPOJCMAAAAASUVORK5CYII=;fontStyle=1;fontSize=16;" vertex="1" parent="1">
          <mxGeometry x="-460" y="110" width="212.79" height="368" as="geometry" />
        </mxCell>
        <mxCell id="JOucej9rkkGV1EKJ_vH5-6" style="edgeStyle=orthogonalEdgeStyle;rounded=0;orthogonalLoop=1;jettySize=auto;html=1;entryX=0.5;entryY=1;entryDx=0;entryDy=0;entryPerimeter=0;fontStyle=1;fontSize=16;" edge="1" parent="1" source="AeG2e79prcjX0_B3QSxF-4" target="AeG2e79prcjX0_B3QSxF-7">
          <mxGeometry relative="1" as="geometry" />
        </mxCell>
        <mxCell id="JOucej9rkkGV1EKJ_vH5-7" value="①保存专辑信息到专辑表中" style="edgeLabel;html=1;align=center;verticalAlign=middle;resizable=0;points=[];fontStyle=1;fontSize=16;" vertex="1" connectable="0" parent="JOucej9rkkGV1EKJ_vH5-6">
          <mxGeometry x="-0.0632" relative="1" as="geometry">
            <mxPoint as="offset" />
          </mxGeometry>
        </mxCell>
        <mxCell id="JOucej9rkkGV1EKJ_vH5-8" value="上架话题" style="sketch=0;aspect=fixed;pointerEvents=1;shadow=0;dashed=0;html=1;strokeColor=none;labelPosition=center;verticalLabelPosition=bottom;verticalAlign=top;align=center;fillColor=#00188D;shape=mxgraph.azure.queue_generic;fontStyle=1;fontSize=16;" vertex="1" parent="1">
          <mxGeometry x="323.33000000000004" y="250" width="70" height="21" as="geometry" />
        </mxCell>
        <mxCell id="JOucej9rkkGV1EKJ_vH5-13" value="下架话题" style="sketch=0;aspect=fixed;pointerEvents=1;shadow=0;dashed=0;html=1;strokeColor=none;labelPosition=center;verticalLabelPosition=bottom;verticalAlign=top;align=center;fillColor=#00188D;shape=mxgraph.azure.queue_generic;fontStyle=1;fontSize=16;" vertex="1" parent="1">
          <mxGeometry x="323.33000000000004" y="295" width="83.34" height="25" as="geometry" />
        </mxCell>
        <mxCell id="JOucej9rkkGV1EKJ_vH5-14" value="&lt;span style=&quot;font-size: 16px;&quot;&gt;&lt;font style=&quot;font-size: 16px;&quot;&gt;MQ&lt;/font&gt;&lt;/span&gt;" style="text;html=1;align=center;verticalAlign=middle;whiteSpace=wrap;rounded=0;fontSize=16;fontStyle=1" vertex="1" parent="1">
          <mxGeometry x="321.5" y="360" width="102" height="30" as="geometry" />
        </mxCell>
        <mxCell id="JOucej9rkkGV1EKJ_vH5-16" value="&lt;span style=&quot;font-size: 16px;&quot;&gt;&lt;font style=&quot;font-size: 16px;&quot;&gt;②发送消息album_id&lt;/font&gt;&lt;/span&gt;" style="text;html=1;align=center;verticalAlign=middle;whiteSpace=wrap;rounded=0;fontSize=16;fontStyle=1" vertex="1" parent="1">
          <mxGeometry x="140" y="245.5" width="102" height="30" as="geometry" />
        </mxCell>
        <mxCell id="JOucej9rkkGV1EKJ_vH5-20" style="edgeStyle=orthogonalEdgeStyle;rounded=0;orthogonalLoop=1;jettySize=auto;html=1;" edge="1" parent="1" source="JOucej9rkkGV1EKJ_vH5-19">
          <mxGeometry relative="1" as="geometry">
            <mxPoint x="490" y="290" as="targetPoint" />
          </mxGeometry>
        </mxCell>
        <mxCell id="JOucej9rkkGV1EKJ_vH5-24" style="edgeStyle=orthogonalEdgeStyle;rounded=0;orthogonalLoop=1;jettySize=auto;html=1;" edge="1" parent="1" source="JOucej9rkkGV1EKJ_vH5-19" target="JOucej9rkkGV1EKJ_vH5-23">
          <mxGeometry relative="1" as="geometry" />
        </mxCell>
        <mxCell id="JOucej9rkkGV1EKJ_vH5-30" style="edgeStyle=orthogonalEdgeStyle;rounded=0;orthogonalLoop=1;jettySize=auto;html=1;entryX=0;entryY=0.5;entryDx=0;entryDy=0;" edge="1" parent="1" source="JOucej9rkkGV1EKJ_vH5-19" target="JOucej9rkkGV1EKJ_vH5-27">
          <mxGeometry relative="1" as="geometry" />
        </mxCell>
        <mxCell id="JOucej9rkkGV1EKJ_vH5-19" value="&lt;span style=&quot;font-size: 16px;&quot;&gt;&lt;b&gt;搜索微服务&lt;/b&gt;&lt;/span&gt;" style="rounded=0;whiteSpace=wrap;html=1;fillColor=#d5e8d4;strokeColor=#82b366;" vertex="1" parent="1">
          <mxGeometry x="610" y="260" width="120" height="60" as="geometry" />
        </mxCell>
        <mxCell id="JOucej9rkkGV1EKJ_vH5-23" value="" style="shape=image;verticalLabelPosition=bottom;labelBackgroundColor=default;verticalAlign=top;aspect=fixed;imageAspect=0;image=data:image/png,iVBORw0KGgoAAAANSUhEUgAAASwAAAEsCAYAAAB5fY51AAAAAXNSR0IArs4c6QAAIABJREFUeF7tnXuYXGW1p39rV1Xf77d0J53uSneHJM1tNEEIF006oBw4EAgaOXSI4MiggyOIijxz9EwfUOAcgYSMzBGTQCDxFgdRfBB1kITbIAoyqIFwiYgknVvn3re67TVWEJUASVXtXbv2t+tXPPzl9621vnctXqurdu0t4IsESIAEDCEghtTJMkmABEgAFBaHgARIwBgCFJYxrWKhJEACFBZngARIwBgCFJYxrWKhJEACFBZngARIwBgCFJYxrWKhJEACFBZngARIwBgCFJYxrWKhJEACFBZngARIwBgCFJYxrWKhJEACFBZngARIwBgCFJYxrWKhJEACFBZngARIwBgCFJYxrWKhJEACFBZngARIwBgCFJYxrWKhJEACFBZngARIwBgCFJYxrWKhJEACFBZngARIwBgCFJYxrWKhJEACFBZngARIwBgCFJYxrWKhJEACFBZngARIwBgCFJYxrWKhJEACFBZngARIwBgCFJYxrWKhJEACFBZngARIwBgCFJYxrWKhJEACFBZngARIwBgCFJYxrWKhJEACFBZngARIwBgCFJYxrWKhJEACFBZngARIwBgCFJYxrWKhJEACFBZngARIwBgCFJYxrWKhJEACFBZngARIwBgCFJYxrWKhJEACFBZngARIwBgCFJYxrWKhJEACFBZngARIwBgCFJYxrWKhJEACFBZngARIwBgCFJYxrWKhJEACFBZngARIwBgCFJYxrWKhJEACFBZngARIwBgCFJYxrWKhJEACFBZngARIwBgCFJYxrWKhJEACFBZngARIwBgCFJYxrWKhJEACFBZngARIwBgCFJYxrWKhJEACFBZngARIwBgCFJYxrWKhJEACFBZngARIwBgCFJYxrWKhJEACFBZngARIwBgCFJYxrWKhJEACFBZngARIwBgCFJYxrWKhJEACFBZngARIwBgCFJYxrWKhJEACFBZngARIwBgCFJYxrWKhJEACFBZnIC8EdENvyYHhfdXJ/VoZDqMimbJKMk2kSCatEEbDIYzsDYeH20/ePC6AZrqf64JLgMIKbm89OZkOwNp3RssUJCLvBTQKG2/MlIVGUUxTIAqgE0BdpgWpYkQEf4LqqyrWywLdCoVaFtRW3aOWPLNp4+DvZ12ORKYxuS4YBCisYPTR01PseXjS8SGxP2VDeiAQKBqhmAxBQ74LUcWoCF5X6FaBpFR1ECm9s+70bY9IuhK+Ak2Awgp0e50dThWC9QihGrJ/pH2hbdv/IUC1s6h53b3ThvxLEvE1zdg5jjlIUWJ55e15cArLc+T+Tvjmn3h2zJoWCUl7KmV9EaJd/q76Havbp5Cb1dbnIhF7U/X7tz1v4BlY8iEEKCyOxEEC+pOe0j2lY5daoseJheNV8T4A4YDgeVaBJyD4TV0VviezBkcDcq6iOwaFVXQtf/uB96yfuExsOVuhrSKoCCoSBYYF2Cmij9XotP8sc9cng3rWoJ6LwgpqZw9zrh3rmqtCGuoMiXU9BOch/VlVsb3SH9Ar7gyF7FsTsdiWhjP27Cs2BCaet/gG1cQuuVTzgUdbm5NJ6xwAp4jgUqAIRfUOLG3FWoXca0nk5/Vz/7jXJdwMkwcCFFYeoPotZPrbvr3rJ31MRC+F4kQApX6rsdD1qGKfWHgmZeNbjX2Ddxa6HuZ/ZwIUVsAnY/9jk46yk/p7CEJQWAE/rvPjKWwRvKDQS+rmbn3aeUBGcJMAheUmTR/F2v3wxPSffZcJsJh/+uXYGNEbUmr9uGHOlqd4PVeODF3eRmG5DLTQ4V5edUx3U8fexSL2FQAaC12P8fkVQxDckoKsaZy7ZbPx5zH8ABSW4Q18s/yn75gZqSwf+xKAReFIsqK5bbgS6uur0s0hr4iLhdc0FfqHunmvbzKn8OBVSmEZ3tO0qOrKE/VJJDYpUPXmccTSPU0twy+GI/YJAEKGH9M35f/5x9yr7LHxKxvO2n2Ad5Dwvi0UlvfMXcu4Ye3RDaGYfZmqXg1Iy6GBBbqlqjZmVdXGJvADd9ewA6I/sW29vaFv209cjMpQGRCgsDKA5MclT9/RVVtZVroWFuZAcbh7TY1XVCQitY2jewA0+fEsJtYk0G2qcl9t3+AVfKflXQcpLO9Yu5bpxTW9/2DbejeA5kyDlpalttY1jsQsS9P3p+LLDQKavvuX/qC2wvqknLhllxshGePwBCgsgyZkw9reEmvMvlpFvizI/jd/kYj9Um3DaH2kJJWx6AzCU8hSn7VErqiZs+XJQhZRDLkpLEO6/Pra2eXD4/uuB/RzTkq2LN1SUz9eVV4Rr3USh3sPISDYD9XP1c3duoJs8keAwsofW9ciP796RhsU6ZvnzXcjqFg6VlM7bldUxSvdiMcYfyWQvhvEtTVzBr8hghS5uE+AwnKfqasRN66eNs1Wa4UAp7oaGIjVN41aZeWJiMtxGQ7yqdrqLStlFu857/YwUFhuE3Ux3oure0+zbV0CwUwXw/59qER946hVVpHgdVruA74laVtLmuZt3uJ+6OKNSGH5tPcb7pl+UQhykwKT81uipqrrY3ZVVYzvtNwFnZL0bWs0+eW6eTt4dbxLbCksl0C6Geb51TPSN9X7hgAT3Iz7rrEEydr6MbuiMp7xswM9qcvwJAKk72j6YHJsfFHjWbv3G34cX5RPYfmiDX8rYuOaaaeoWvf++UN2b2T1l9SW6Hh982iopDTJd1ouz4RAHhiBXjJx7uCQy6GLLhyF5aOWb7j7qFMtCa3GGw8f9fxlhex4Y/NIMhyxA3tfd8+h/iWhQtaUhGLXVL5/aGuhaghCXgrLJ118YdX0mWJhpUKOL2RJkZJUvKF5VCzL5jstdxsRg+K2uCSub5m7c9jd0MUTjcLyQa9fvrOnORGOLHfrOiunRyqviNt1DWPpO77zDqVOYR6yXxT9tX2D33Y5bNGEo7AK3Or0g0tf7JpxiwJXFbiUt6SvrImhumYcwglxvS22jXMb5g3+2PXARRCQ41jgJm9cPeN2VfzXApfxtvTpWwLX1o9qeWWC77Lcbo7CVsUn6ucN3uV26KDHo7AK2OEX7um92elvA/NZvmWpNrUe0FBIKS33Qb+esvGJxnmDP3c/dHAjUlgF6K0CsnHV9DPEkhX5vzDU2QEjkRQaWkZgWeosEHe/lUD6XZYlA3VVW27iT3gyHw4KK3NWrq185Z7jWhKaWA3BB10LmsdAldUxra6JiVBarlE++CixlC6qm7f1N64FLYJAFFYBmvzCPb33A5p+ArMRLyuk2tg0ouGSFP80dKdjKdHUKbV9259yJ1zxRKGwPO71xjW9H1dbV3qc1pV0bZP3uRKn2IMkgRlNcwc3FjuHXM5PYeVCLcc9G1b1Hm1Z+oipzwtMX59V2zhmcWhyGwABtqlan67r23xvbhG4i7Pn0Qz84dvHTIglk6sAOdOjlK6nSV+TVdcwqmUVCc5N9nSHxMKVNSMV98pZr8Sy384daQIcPI/mYMPdvfNDln5HFeUepcxLmpLS5MGr4ENhm59nZUM4pDNfeWHr72Zdzpv6ZYPt0LUUlhN6Ge79zZ09zeXhyB+Rw4MjMkzh6bKaujFUVsc9zWliMsHB2yQPWSWp46pP2b7DxDP4rWYKy4OOvHD39P8JkU97kMqTFCHLtptah2HxgtLD8U6IYoUVtr9e/f5tz3vSmCJIQmHluckb7+n9iELX5jmN5+HLyxN2XdMo/yx8B/IqeBSitw2NVD4wlZ9XuTqbFJarON8e7Pl7ZjyWhwdI5LnqzMI3tx5IhSM27wf/N1x7LQufq45Y35GTN49lRpGrsiFAYWVDK4u16Z/fvHDPjC8I8BUAgby3VDiSQtOEERXRYp6jvVD8AcBDdX2DX8xiRLg0BwLFPGg54Mp8y8trjmtP2ok1AD6Q+S6zVqZ/HF1dN6YVxXdHh3EA6XfOTwC6KR5J/Kj51KEDZnXPzGoprDz1beNd087UkPWToF86UlqWjNc1jIaskAb5T8NxBZ62RH6QVDwZgp1MJMKDzR98fTBP48Ow70KAwuJokAAJGEOAwjKmVSyUBEiAwuIMkAAJGEOAwjKmVSyUBEiAwuIMkAAJGEOAwjKmVSyUBEiAwuIMkAAJGEOAwjKmVSyUBEiAwuIMkAAJGEOAwjKmVSyUBEiAwuIMkAAJGEOAwjKmVSyUBEiAwuIMkAAJGEOAwnLYqs7OzikRy5opqoG851WueHZd+KXk2HHzwrnud3ufrdhtA9sTcWzEpVPSt4fhy0ACFJbDpvV0RG9UwReCfhuZbDHFO3oP7Lj869XZ7svbeoEi/W/6nzde2yF6Yyw8vgILj+YTNfIG3t3AFJYzntLd2fnvgHzeWZjg7U42TNRtn19jAzDgPlny/xT29VYq9Oz44uirwetGcE5EYTno5VETJzalIiV3AFjgIEwgt6aq6lNDl35tNNHW5Z93WUcm/bioPj5egpuwsHvfkZdzhdcEKCwHxHs6O2cr5AEA9Q7CBHOriB447aP2vjP/iwHvsN7SgvSfjr9V2APxi3p+GMzmmHsqCstB77o6OuaJWA85CBHorcMnzde9516ZPqORc6aiH44nh3+KxcePBLpRBh3OyEHyC9+eydH5aoH/L/wuDRmbccr4no980bLLqkr80rNs6xDIXQr7xlh/98vZ7uV69wlQWA6YdkejS6E4+BaCr7cTsCtq4kOLrrfi0WN9c3lD9n3SJER+hpR9Vezinley388dbhKgsBzQ7O6MbgfQ4iBE4LcOLf4qxqfPNv2ctkC/Ox55ZjEWLkyZfhiT66ewHHSvuzP65jU9DqIEe+vQousS472nBuSiWrkq1j/ltmB3zN+no7Ac9IfCOjK8/fMu2bu/7+I6SDBGTYDF4/1dq498cq7IB4FgTFE+yBwh5tSOqV22JDYVILVRKeMTe3buuOIbTRArGLMm8hzU/gg/hC/MGAZjiArArisavUoUSwqQ2riUW67/OTRk8OfuhxBXwZfiL025EQOSvpKfLw8JUFg5wu7pjK5X4AM5bi+qbUETFoA/wbbn8VtD78eYwsqReU9ndFiByhy3F9W2AAorfSnsNbGLur5WVI30wWEprByb0N0ZTf/CPyDffuUIIcNtg/9872t2ZX1nhstNWTYW6++qMKXYoNRJYeXYSQorc3B7Fnxu28iss1sz32HIylC4J3ZhB7948bBdFFaOsCmszMGNveeDW3d95Nq2zHcYs/KhWH/XGcZUG4BCKawcm0hhZQ4uVdeyfes1352Q+Q5jVg7G+rsmGVNtAAqlsHJo4tHt7Q3jofA2foaVObzNNzyc+WJTVgq2VVfGjxqaP/2AKSWbXieFlUMHp0yZMs2y8XtAg3NxUQ4cstkSSGEB+6H2hbFFPQ9mw4JrcydAYeXAbmo0+p9slV9TWJnDC6iw4iq4Ln5R11czJ8GVTghQWDnQmxqNnphSPCFG3K88hwPmYUtAhZW+0v0/Yv1dn84DMoZ8BwIUVg5j0d3ZebJCHqWwMocXUGGlH8VzV7x/ysczJ8GVTghQWDnQ6+nsfK/Ceop/EmYOL6jCAnRlrL/7E5mT4EonBCisHOj1dHT0qoSeo7AyhxdIYQmSonrLeH/3tZmT4EonBCisHOh1TezqkHBqE0T4LWGG/AIpLMWoLfYVif6eVRli4DKHBCisHABGo9GykGI/r8PKHF4ghQUMIaSnxC7sfilzElzphACFlSM9XumeHbhgCksGYxdF2yHCW2VnNw45r6awckRHYWUHLpDCUtkSWzSlPTsSXO2EAIWVIz0KKztwgRSW6BWxi7r/V3YkuNoJAQorR3oUVubgNBxJbLnuZ4G7d1isv4v//WQ+Bq6sJPAcMXZ3RvcAqMtxe1FtS7R2bdv+mRWBuh+WAt+L93ddWFSN9MFhKawcm9DdGb0XwIIctxfVtuH3nbNj73mfDdQDZ23bmpm4OPqbomqkDw5LYeXYhJ4pUxaprXw+XQb8hj52w47xaScFRliqWBuX0CfR35l+l82XhwQorBxhT580qTERjgzluL2otm0ZeGC/lpTXBOTQmyH4eOyirv8TkPMYdQwKy0G7+OTnzOAF6ak5Anx/fHh3Py6flcjs9FzlJgEKywHN7s5oCoDlIERRbA2QsPbH+rtqi6JpPj0kheWgMV2d0V8KcKKDEIHfqqUVsS1f/lEprJDpZ302VlN2Ks6ZOGr6QUyun8Jy0L2eaPRTquCFg4dhOHb0qft3/dNADSyj34g+awOfTPR3/crBuHCrCwQoLAcQuzo6Thex+OHrYRju/ug/j4we31eZflSyoa+tNpJnJV6e+lsMSPoOo3wVkICxU1RAZn9N3RONzlHFzwCU+KEeP9YwtPirGJ8+24+lHaGmtJz0pYqInrRnYfc+Aw8QyJIpLAdtndrR0WWL9S0AJzkIE9yt4Uhi5+KvWrGeWYZ9gKU7ofhBbLzkv+MTk3cHt0HmnYzCctCzmTNnRvYODd0CyH9zECawWxOTjort+uiXrGRTuzG/I1TgSQWuSqQObMDi40cC2xxDD0ZhOWxcdzT6b1Bc4zBMILcPnzRf9557ZfpsPp8zTSrwW4jVH79oysZANiMgh/L5IPmfcldn59kCuQtAs/+r9bRCHT7lAt179hW++3pQgD028IoA21Vkdzgl145eHN3qKR0my4kAhZUTtr9tam9vLy+zrAtUhHdu+DuWAkv3z7nQ3vfBy3z3+ZUC261U/Onxi6f9kXcLdfgfgMfbKSyPgTMdCZBA7gQorNzZcScJkIDHBCgsj4EzHQmQQO4EKKzc2XEnCZCAxwQoLI+BMx0JkEDuBCis3NlxJwmQgMcEKCyPgTMdCZBA7gQorNzZcScJkIDHBCgsj4EzHQmQQO4EKKzc2XEnCZCAxwQoLI+BMx0JkEDuBCis3NlxJwmQgMcEKCyPgTMdCZBA7gQorNzZHX7nsmU1qEieD5VovlL4KW5DZeULx7RNmOGnmvJQy15V3Vhi20//4vQFu/IQnyGPQIDCyteIrB0osfbX3qiKq/OVwk9xT+ho31YWibT6qaY81BIDsFuhOwTWGGDH1MbSxx5/7n4MDPABFXkAfmhICiufkFfc8h5R638D6MpnmkLHDluh52ZP6Ti+0HUUMr8Cy0dT8S+MTcTY80cvjBeyliDnprDy3d0VS5aK4uB9ggP6ih/T1rqzvqJ8UkDPl/mxBAko1qqNH7bujt/3/YUL008G58tFAhSWizDfMdQdN9WKVToIoCLfqQoRv6asbHtva0tFJBSqLkR+f+bUhKh8CyFd+8ic8x/0Z41mVkVhedG325fMkBI870UqT3MI4pPr6/dH6+saAPju3u2esjg0mYjC1gMSkmtbdsS+yXdb7nSDwnKH4+GjLFtWKhXJb0HlAi/SeZWjoiSyd+bk9vQH0RO8ymlongfCqlc+PO/8TYbW75uyKSyvWrHy1lliyxoA07xKme88PU1NL7fVVk/Nd56AxH/VEv34+rnnrw/IeQpyDArLK+xr14asfYNfUdXPQxD2Km2+8oQt6/HZ0c4TICjNV46gxVXgNYVe8Hjf+c8E7WxenYfC8or0X/LI8lv/BMhkj9O6nU5PjHakSkIh48XrNphM4lVO/lPZg1M/k/5Tmq8sCVBYWQJzvHzFrQ2i1u8Aneg4VmEC6ISa6l9PbW46VoDywpRgfNaUWNbsR+ac+2vjT+LxASgsj4EfTLf8tksF9nIAvnvI6JFwlJdE9vS2TrArIpHGI63l/35YAi+phi5+bN45vyKnzAlQWJmzcm/lwEAJJtZeJ4IvuhfUk0iJ9rraX05pbJgNmP85nCfE3j2J/vkLmO/EKko+9dRJZ+0vcC3GpKewCtWqNy4o/R6ADxWqhGzzlkXCwyd0TK4EwLnJFt7b1yehuNmy9vzr+rmXjjsPVxwROHiF7PM3lswWSx+ESG0hy8gktwheOynauStsWe/NZD3XHJHAU5aELlk/95yNR1zJBX8lQGEVehiW33yGIPRTv18pPrW5aUdrTXVLoXEFI78mkEqd+OgZH342GOfx7hQUlnes3z3THUvOEwv3+aGUd6qhtaZ609TmpvSH7HV+rdGkukZqtpc8M+vyhEk1+6VWCssPnRgYsDCp5rMCfAWQMj+U9GYNJaHQ5mPbWvdUlJYc66e6DK1ls1ipBY/MuYCXM+TYQAorR3Cub1u2rBQVqatFcYPrsR0EnDGhZVdTVSUvYXDA8OBWkZ1i6+Utu+L384fQucOksHJn5/7OtWtLsPf1z4pYN7kfPPuIM1pbHmyqrEx/i8k7MWSP7y07xMK5orUPrp87N+kwVFFvp7D81v61t5Zjv1wnwGegKClIeYpkY0Xl93vbWhbwt4KOOzBiiS5aP/f8HzqOxAC8nsaXM3DHzU2wwtcK9LMFeHdjV5ZEXu1tnVBVFonwtjGOBkS2/fmuWP8yXLttFT9kdwTyr5v5Dssdju5HWbOsBqPJS0VkqfvB3z1iOGSNHTuxLVVVUlLlZd4A5hqH4JJEafz+J09eOBbA8xXkSBRWQbBnmDT97WF7zcWisirDHY6XnTwl+mrIkimOAxV5ACsuU9f/8tk/8Gk67g4CheUuT/ejqQqWL/20iN4ISPpnMXl5hS05cPzEto0VpaUn5CVB8QTdbCP0j4/3nfNc8RzZu5NSWN6xdpZp5dLLxNb0t4fp+6e7+gpZ1q6e5sbfNVdWvU8kmA/LcBXYuwRT4EXAvvyxvgWPeJGvGHNQWCZ1feWS2bDlBoHOcbPsqS1Nd7dWV50H+P83jW6e2+VY96cg1zzRN/9Fl+My3N8RoLBMG4fbB6qsktqVCnzY6TeIIohPb2v5QlN55W2mYfBNvYq4Cq5tHYov4wWh+e8KhZV/xnnJYK1Yeruq/iOAjlwShCxrZ1dj/foJNTUXCC8MzQUhoPoHkdC/PdJ37jdzC8Bd2RKgsLIl5qf1y5f0ieIaSHb31LJEhntamh9tqaqcLUC9n45kTC2C21XlO4/1zX/CmJoDUCiFZXYTBWuWVVvj9m2qekmmR5nVMfl75ZHwfAC++qF1pvUXeF0Mgv+R2Blf9uRCXl/ldS8oLK+J5yvfHcu6xUql76uVfiLPOz16yy4Jh5LHtrU9W1ESOTFfZQQ4bhyKF1Ni/dMTfeduCPA5fX00CsvX7cmyuOXL2qF2v4he85bLH0S0PBJ5bVpzU11VaWmNCH/MnA1ZBTaIyHf75px7w4CInc1ernWXAIXlLk8/RBMsX3YiYM8X6LXpgkrD4ZXHTWq7oCwc5g34suyQAnchjJtbt8Vf5LeAWcLLw3IKKw9QfRPyjqUnTm2pP6mtttbT3yP65vw5FqIKW0QHEZKTH/3Aea/nGIbb8kCAwsoDVD+FPPkX93VHYC21RdMPPu30U20+rEUh+pAq1oWk7mu8d5X/OkRh+a8n7lekKqeu/+EHRHGOQC4DUO1+EnMjHnxHZekvxMaPS5MVd/78Qx8aMfc0wa6cwgp2f99yujnr1pXZ8QNtEtEPK/Tfi+johzvqK7YdObsUsV2/OH3BbgDpB5zy5VMCFJZPG5Pvsmb/37XlkbHS6yGavh4r/fiumnzn9En8tJA2p3+orLA//3jfAt5VwSeNyaQMCisTSgFfc9q6+xaJ4jSonAnJ7ac+BiAaVdWHIfJySEpuXT/3rM0G1MwSDyFAYXEkDhKYs25dOKn7ZoqtbWLJGQA+BiBv99/yEPvzELkBtr0zptZzT50+f7uHuZnKZQIUlstAAxFOB6yZ32wL1fa0T0wicR8E7zHtXAJcPVyz/evVB45SfttnWvfevV4KKzi9zOtJTnvoR8dJKP0kH40CSN/vPf0ToIl5TXrk4GMQvAIbQxDYEPlxorR09ZMnn5n+8JyvABKgsALY1Hwfac66bzepXX4CxDoGsEXFqgB0FhQzAbTmKb8NlU0QfRJqvyQiCai1J6WpR9p2JzfxKvQ8UfdZWArLZw0xsZw56wbCqVBvvcbD9YLQwTtAqJUSS2WCiHWMDUwX1R6xMFltdEDe+rzFN64sxxCAP0KsV1VTr1lqvWJDnoHqwQePSkQVsIZjpeFdT/30V8N8uIOJk+K8ZgrLOUNGIAES8IgAheURaKYhARJwToDCcs6QEUiABDwiQGF5BJppSIAEnBOgsJwzZAQSIAGPCFBYHoFmGhIgAecEKCznDBmBBEjAIwIUlkegmYYESMA5AQrLOUNGIAES8IgAheURaKYhARJwToDCcs6QEUiABDwiQGF5BJppSIAEnBOgsJwzZAQSIAGPCFBYHoFmGhIgAecEKCznDBmBBEjAIwIUlkegmYYESMA5AQrLOUNGIAES8IgAheURaKYhARJwToDCcs6QEUiABDwiQGF5BJppSIAEnBOgsJwzZAQSIAGPCFBYHoFmGhIgAecEKCznDBmBBEjAIwIUlkegmYYESMA5AQrLOUNGIAES8IgAheURaKYhARJwToDCcs6QEUiABDwiQGF5BJppSIAEnBOgsJwzZAQSIAGPCFBYHoFmGhIgAecEKCznDBmBBEjAIwIUlkegmYYESMA5AQrLOUNGIAES8IgAheURaKYhARJwToDCcs6QEUiABDwiQGF5BJppSIAEnBOgsJwzZAQSIAGPCFBYHoFmGhIgAecEKCznDBmBBEjAIwIUlkegmYYESMA5AQrLOUNGIAES8IgAheURaKYhARJwToDCcs6QEUiABDwiQGF5BJppSIAEnBOgsJwzZAQSIAGPCFBYHoFmGhIgAecEKCznDBmBBEjAIwIUlkegmYYESMA5AQrLOUNGIAES8IgAheURaKYhARJwToDCcs6QEUiABDwiQGF5BJppSIAEnBOgsJwzZAQSIAGPCFBYHoFmGhIgAecEKCznDBmBBEjAIwIUlkegmYYESMA5AQrLOUNGIAES8IgAheURaKYhARJwToDCcs6QEUiABDwiQGF5BJppSIAEnBOgsJwzZAQSIAGPCFBYHoFAyTBlAAAATklEQVRmGhIgAecEKCznDBmBBEjAIwIUlkegmYYESMA5AQrLOUNGIAES8IgAheURaKYhARJwToDCcs6QEUiABDwiQGF5BJppSIAEnBP4/w6+HpbGJT6XAAAAAElFTkSuQmCC;" vertex="1" parent="1">
          <mxGeometry x="595" width="150" height="150" as="geometry" />
        </mxCell>
        <mxCell id="JOucej9rkkGV1EKJ_vH5-25" value="&lt;b style=&quot;font-size: 18px;&quot;&gt;&lt;font style=&quot;font-size: 18px;&quot;&gt;⑤保存到索引库&lt;/font&gt;&lt;/b&gt;" style="text;html=1;align=center;verticalAlign=middle;whiteSpace=wrap;rounded=0;fontSize=18;" vertex="1" parent="1">
          <mxGeometry x="540" y="160" width="130" height="30" as="geometry" />
        </mxCell>
        <mxCell id="JOucej9rkkGV1EKJ_vH5-26" value="&lt;b style=&quot;font-size: 18px;&quot;&gt;&lt;font style=&quot;font-size: 18px;&quot;&gt;③监听消息&lt;/font&gt;&lt;/b&gt;" style="text;html=1;align=center;verticalAlign=middle;whiteSpace=wrap;rounded=0;fontSize=18;" vertex="1" parent="1">
          <mxGeometry x="500" y="260" width="130" height="30" as="geometry" />
        </mxCell>
        <mxCell id="JOucej9rkkGV1EKJ_vH5-27" value="&lt;span style=&quot;font-size: 16px;&quot;&gt;&lt;b&gt;用户微服务&lt;/b&gt;&lt;/span&gt;" style="rounded=0;whiteSpace=wrap;html=1;fillColor=#d0cee2;strokeColor=#56517e;" vertex="1" parent="1">
          <mxGeometry x="890" y="336.25" width="120" height="60" as="geometry" />
        </mxCell>
        <mxCell id="JOucej9rkkGV1EKJ_vH5-28" value="&lt;span style=&quot;font-size: 16px;&quot;&gt;&lt;b&gt;专辑微服务&lt;/b&gt;&lt;/span&gt;" style="rounded=0;whiteSpace=wrap;html=1;fillColor=#dae8fc;strokeColor=#6c8ebf;" vertex="1" parent="1">
          <mxGeometry x="890" y="210" width="120" height="60" as="geometry" />
        </mxCell>
        <mxCell id="JOucej9rkkGV1EKJ_vH5-31" value="&lt;b style=&quot;font-size: 18px;&quot;&gt;&lt;font style=&quot;font-size: 18px;&quot;&gt;获取主播信息&lt;/font&gt;&lt;/b&gt;" style="text;html=1;align=center;verticalAlign=middle;whiteSpace=wrap;rounded=0;fontSize=18;" vertex="1" parent="1">
          <mxGeometry x="810" y="306.25" width="130" height="30" as="geometry" />
        </mxCell>
        <mxCell id="JOucej9rkkGV1EKJ_vH5-32" value="&lt;b&gt;把查询到的信息封装成为索引库文档对象&lt;/b&gt;" style="text;html=1;align=center;verticalAlign=middle;whiteSpace=wrap;rounded=0;fontSize=18;" vertex="1" parent="1">
          <mxGeometry x="680" y="370" width="130" height="30" as="geometry" />
        </mxCell>
        <mxCell id="JOucej9rkkGV1EKJ_vH5-33" value="&lt;b style=&quot;font-size: 18px;&quot;&gt;&lt;font style=&quot;font-size: 18px;&quot;&gt;专辑，分类信息，标签信息，统计信息&lt;/font&gt;&lt;/b&gt;" style="text;html=1;align=center;verticalAlign=middle;whiteSpace=wrap;rounded=0;fontSize=18;" vertex="1" parent="1">
          <mxGeometry x="745" y="180" width="185" height="30" as="geometry" />
        </mxCell>
        <mxCell id="JOucej9rkkGV1EKJ_vH5-35" style="edgeStyle=orthogonalEdgeStyle;rounded=0;orthogonalLoop=1;jettySize=auto;html=1;entryX=0.083;entryY=0.333;entryDx=0;entryDy=0;entryPerimeter=0;" edge="1" parent="1" source="JOucej9rkkGV1EKJ_vH5-19" target="JOucej9rkkGV1EKJ_vH5-28">
          <mxGeometry relative="1" as="geometry" />
        </mxCell>
        <mxCell id="JOucej9rkkGV1EKJ_vH5-36" value="&lt;b style=&quot;font-size: 18px;&quot;&gt;&lt;font style=&quot;font-size: 18px;&quot;&gt;④远程调用&lt;/font&gt;&lt;/b&gt;" style="text;html=1;align=center;verticalAlign=middle;whiteSpace=wrap;rounded=0;fontSize=18;" vertex="1" parent="1">
          <mxGeometry x="700" y="265" width="130" height="30" as="geometry" />
        </mxCell>
      </root>
    </mxGraphModel>
  </diagram>
  <diagram id="kl2GkwsTYrKCqo6Jgeu4" name="专辑详情/声音详情">
    <mxGraphModel dx="1042" dy="531" grid="1" gridSize="10" guides="1" tooltips="1" connect="1" arrows="1" fold="1" page="1" pageScale="1" pageWidth="1654" pageHeight="2336" math="0" shadow="0">
      <root>
        <mxCell id="0" />
        <mxCell id="1" parent="0" />
      </root>
    </mxGraphModel>
  </diagram>
</mxfile>
